<?xml version="1.0" encoding="iso-8859-1"?>
<!-- Generator: Adobe Illustrator 25.0.1, SVG Export Plug-In . SVG Version: 6.00 Build 0)  -->
<svg version="1.1" xmlns="http://www.w3.org/2000/svg" xmlns:xlink="http://www.w3.org/1999/xlink" x="0px" y="0px"
	 viewBox="0 0 800 816.683" style="enable-background:new 0 0 800 816.683;" xml:space="preserve">
<g id="step2-base">
	<g>
		<g>
			<circle style="fill:#00ABAF;" cx="677.788" cy="569.997" r="13.875"/>
			<path style="fill:#059DC1;" d="M677.788,585.212c-8.39,0-15.216-6.826-15.216-15.215c0-8.39,6.826-15.215,15.216-15.215
				c8.39,0,15.215,6.826,15.215,15.215C693.003,578.386,686.178,585.212,677.788,585.212z M677.788,557.463
				c-6.911,0-12.534,5.623-12.534,12.534c0,6.911,5.623,12.534,12.534,12.534c6.911,0,12.534-5.623,12.534-12.534
				C690.322,563.086,684.699,557.463,677.788,557.463z"/>
		</g>
		<g>
			<path style="fill:#FFFFFF;" d="M686.578,567.123l-5.892-0.873l-2.673-5.31l-2.682,5.335l-5.886,0.931l4.255,4.171l-0.934,5.888
				l5.253-2.762l5.337,2.703l-0.99-5.871L686.578,567.123z M678.013,573.284v-9.927l0-0.001l1.956,3.885l4.315,0.639l-3.084,3.082
				l0.726,4.303L678.013,573.284z"/>
		</g>
	</g>
	<g>
		<g>
			<circle style="fill:#FF2F51;" cx="678.313" cy="606.729" r="13.875"/>
			<path style="fill:#059DC1;" d="M678.313,621.945c-8.39,0-15.216-6.826-15.216-15.216c0-8.39,6.826-15.215,15.216-15.215
				c8.39,0,15.215,6.826,15.215,15.215C693.528,615.12,686.703,621.945,678.313,621.945z M678.313,594.196
				c-6.911,0-12.534,5.623-12.534,12.534c0,6.911,5.623,12.534,12.534,12.534c6.911,0,12.534-5.623,12.534-12.534
				C690.847,599.818,685.224,594.196,678.313,594.196z"/>
		</g>
		<g>
			<path style="fill:#FFFFFF;" d="M687.103,603.856l-5.892-0.873l-2.673-5.31l-2.682,5.335l-5.886,0.931l4.255,4.171l-0.934,5.888
				l5.253-2.762l5.337,2.703l-0.99-5.871L687.103,603.856z M678.538,610.017v-9.927l0-0.001l1.956,3.885l4.315,0.639l-3.084,3.082
				l0.726,4.303L678.538,610.017z"/>
		</g>
	</g>
	<g>
		<g>
			<circle style="fill:#005C79;" cx="677.182" cy="534.225" r="13.875"/>
			<path style="fill:#059DC1;" d="M677.182,549.44c-8.39,0-15.216-6.826-15.216-15.215c0-8.39,6.826-15.216,15.216-15.216
				c8.39,0,15.215,6.826,15.215,15.216C692.397,542.615,685.572,549.44,677.182,549.44z M677.182,521.691
				c-6.911,0-12.534,5.623-12.534,12.534c0,6.911,5.623,12.534,12.534,12.534c6.911,0,12.534-5.623,12.534-12.534
				C689.716,527.314,684.093,521.691,677.182,521.691z"/>
		</g>
		<g>
			<g>
				<path style="fill:#FFFFFF;" d="M677.05,526.767c-2.258,0-4.105,1.846-4.105,4.105s1.846,4.105,4.105,4.105
					s4.105-1.846,4.105-4.105S679.309,526.767,677.05,526.767z"/>
			</g>
		</g>
		<g>
			<g>
				<path style="fill:#FFFFFF;" d="M684.095,538.257c-0.108-0.269-0.251-0.52-0.412-0.753c-0.825-1.219-2.097-2.025-3.531-2.223
					c-0.179-0.018-0.376,0.018-0.52,0.125c-0.753,0.556-1.649,0.842-2.581,0.842c-0.932,0-1.828-0.287-2.581-0.842
					c-0.143-0.108-0.341-0.161-0.52-0.125c-1.434,0.197-2.724,1.004-3.531,2.223c-0.161,0.233-0.305,0.502-0.412,0.753
					c-0.054,0.108-0.036,0.233,0.018,0.341c0.143,0.251,0.323,0.502,0.484,0.717c0.251,0.341,0.52,0.645,0.825,0.932
					c0.251,0.251,0.538,0.484,0.825,0.717c1.416,1.058,3.119,1.613,4.875,1.613c1.757,0,3.459-0.556,4.875-1.613
					c0.287-0.215,0.574-0.466,0.825-0.717c0.287-0.287,0.574-0.591,0.825-0.932c0.179-0.233,0.341-0.466,0.484-0.717
					C684.13,538.49,684.148,538.364,684.095,538.257z"/>
			</g>
		</g>
	</g>
	<g>
		<g>
			<circle style="fill:#F7851F;" cx="679.377" cy="491.42" r="19.24"/>
			<path style="fill:#059DC1;" d="M679.377,512.519c-11.634,0-21.099-9.465-21.099-21.099c0-11.634,9.465-21.099,21.099-21.099
				c11.634,0,21.099,9.465,21.099,21.099C700.476,503.054,691.011,512.519,679.377,512.519z M679.377,474.039
				c-9.584,0-17.381,7.797-17.381,17.38c0,9.584,7.797,17.381,17.381,17.381c9.583,0,17.38-7.797,17.38-17.381
				C696.757,481.836,688.96,474.039,679.377,474.039z"/>
		</g>
		<g>
			<path style="fill:#FFFFFF;" d="M670.745,485.409l4.127,1.388c0.34,0.149,1.954,0.739,4.815,0.03
				c3.615-0.897,11.44-2.45,11.519-2.466l-0.291-1.471c-0.003,0.001-0.025,0.005-0.052,0.01l-7.459-1.051
				c-0.82-0.116-2.144-0.082-2.958,0.076l-9.971,1.934c-1.297-0.067-2.531,0.73-2.944,2.022c-0.238,0.746-0.172,1.54,0.187,2.234
				c0.183,0.355,0.433,0.661,0.732,0.91c-0.449,0.35-0.802,0.833-0.988,1.414c-0.238,0.746-0.171,1.54,0.187,2.235
				c0.194,0.376,0.465,0.693,0.786,0.947c-0.442,0.349-0.789,0.829-0.974,1.404c-0.238,0.746-0.171,1.54,0.187,2.234
				c0.359,0.695,0.967,1.209,1.712,1.447l7.189,2.299c0.395,0.126,1.042,0.154,1.446,0.061l12.62-2.891c0,0-0.075-0.327-0.168-0.73
				c-0.092-0.403-0.495-0.656-0.898-0.563l-11.489,2.631c-0.403,0.093-1.05,0.065-1.446-0.061l-6.796-2.172
				c-0.364-0.116-0.661-0.368-0.836-0.706c-0.175-0.339-0.208-0.726-0.091-1.089c0.24-0.751,1.046-1.163,1.798-0.928
				c0.002-0.007,4.159,1.321,5.861,1.864c0.395,0.126,1.042,0.154,1.446,0.061l12.62-2.891c0,0-0.075-0.328-0.168-0.731
				c-0.092-0.403-0.495-0.656-0.899-0.563l-11.489,2.631c-0.403,0.092-1.05,0.064-1.446-0.061l-6.797-2.173
				c-0.364-0.116-0.661-0.368-0.836-0.706c-0.175-0.339-0.208-0.726-0.091-1.089c0.24-0.751,1.046-1.164,1.798-0.928
				c0.001-0.002,4.215,1.345,5.931,1.892c0.394,0.126,1.042,0.154,1.445,0.061l12.62-2.891c0,0-0.075-0.326-0.168-0.731
				c-0.093-0.403-0.495-0.656-0.898-0.563l-11.489,2.63c-0.403,0.093-1.05,0.065-1.446-0.061l-6.797-2.172
				c-0.364-0.116-0.661-0.368-0.836-0.707c-0.175-0.339-0.208-0.726-0.091-1.089C669.198,485.588,670.004,485.17,670.745,485.409z"
				/>
		</g>
	</g>
</g>
<g id="Calque_1">
</g>
</svg>
