<?xml version="1.0" encoding="iso-8859-1"?>
<!-- Generator: Adobe Illustrator 25.0.1, SVG Export Plug-In . SVG Version: 6.00 Build 0)  -->
<svg version="1.1" xmlns="http://www.w3.org/2000/svg" xmlns:xlink="http://www.w3.org/1999/xlink" x="0px" y="0px"
	 viewBox="0 0 800 816.682" style="enable-background:new 0 0 800 816.682;" xml:space="preserve">
<g id="step2-base">
	<g>
		<g>
			<circle style="fill:#F7851F;" cx="678.523" cy="341.157" r="19.24"/>
			<path style="fill:#059DC1;" d="M678.523,362.256c-11.634,0-21.099-9.465-21.099-21.099c0-11.634,9.465-21.099,21.099-21.099
				c11.634,0,21.099,9.465,21.099,21.099C699.622,352.791,690.157,362.256,678.523,362.256z M678.523,323.776
				c-9.584,0-17.381,7.797-17.381,17.38c0,9.584,7.797,17.381,17.381,17.381c9.583,0,17.38-7.797,17.38-17.381
				C695.904,331.573,688.107,323.776,678.523,323.776z"/>
		</g>
		<g>
			<path style="fill:#FFFFFF;" d="M669.891,335.146l4.127,1.388c0.34,0.149,1.953,0.739,4.815,0.03
				c3.615-0.897,11.44-2.45,11.519-2.466l-0.291-1.471c-0.003,0.001-0.025,0.005-0.052,0.01l-7.458-1.051
				c-0.82-0.116-2.144-0.082-2.958,0.076l-9.971,1.934c-1.297-0.067-2.531,0.73-2.944,2.022c-0.238,0.746-0.172,1.54,0.187,2.234
				c0.183,0.355,0.433,0.661,0.732,0.91c-0.449,0.35-0.802,0.833-0.988,1.414c-0.238,0.746-0.171,1.54,0.187,2.235
				c0.194,0.376,0.465,0.693,0.786,0.947c-0.442,0.349-0.789,0.829-0.974,1.404c-0.238,0.746-0.171,1.54,0.187,2.234
				c0.359,0.695,0.967,1.209,1.712,1.447l7.189,2.299c0.395,0.126,1.042,0.154,1.446,0.061l12.62-2.891c0,0-0.075-0.327-0.168-0.73
				c-0.092-0.403-0.495-0.656-0.899-0.563l-11.489,2.631c-0.403,0.093-1.05,0.065-1.446-0.061l-6.797-2.172
				c-0.364-0.116-0.661-0.368-0.835-0.706c-0.175-0.339-0.208-0.726-0.091-1.089c0.24-0.751,1.046-1.163,1.798-0.928
				c0.002-0.007,4.159,1.321,5.861,1.864c0.395,0.126,1.042,0.154,1.446,0.061l12.62-2.891c0,0-0.075-0.328-0.168-0.731
				s-0.495-0.656-0.898-0.563l-11.489,2.631c-0.403,0.092-1.05,0.064-1.446-0.061l-6.797-2.173
				c-0.364-0.116-0.661-0.368-0.835-0.706c-0.175-0.339-0.208-0.726-0.091-1.089c0.24-0.751,1.046-1.164,1.798-0.928
				c0.001-0.002,4.215,1.345,5.931,1.892c0.394,0.126,1.042,0.154,1.445,0.061l12.62-2.891c0,0-0.075-0.326-0.168-0.731
				c-0.093-0.403-0.495-0.656-0.899-0.563l-11.489,2.63c-0.403,0.093-1.05,0.065-1.446-0.061l-6.797-2.172
				c-0.364-0.116-0.661-0.368-0.835-0.707c-0.175-0.339-0.208-0.726-0.091-1.089C668.344,335.325,669.15,334.907,669.891,335.146z"
				/>
		</g>
	</g>
</g>
<g id="Calque_1">
</g>
</svg>
