<?xml version="1.0" encoding="iso-8859-1"?>
<!-- Generator: Adobe Illustrator 25.0.1, SVG Export Plug-In . SVG Version: 6.00 Build 0)  -->
<svg version="1.1" xmlns="http://www.w3.org/2000/svg" xmlns:xlink="http://www.w3.org/1999/xlink" x="0px" y="0px"
	 viewBox="0 0 800 816.682" style="enable-background:new 0 0 800 816.682;" xml:space="preserve">
<g id="step1">
	<g>
		<g>
			<path style="fill:#F7851F;" d="M313.636,247.347l0.182-2.675l6.146,0.417l-0.625,9.182c-0.818,0.314-1.666,0.53-2.541,0.647
				c-0.876,0.117-1.82,0.142-2.833,0.073c-1.199-0.082-2.265-0.339-3.195-0.773c-0.931-0.434-1.706-1.037-2.326-1.812
				c-0.619-0.774-1.072-1.714-1.354-2.818c-0.283-1.104-0.377-2.368-0.28-3.79c0.098-1.432,0.373-2.701,0.825-3.809
				c0.451-1.107,1.062-2.03,1.834-2.767c0.771-0.737,1.695-1.277,2.768-1.619c1.073-0.342,2.277-0.468,3.617-0.376
				c0.793,0.053,1.562,0.174,2.306,0.361c0.745,0.187,1.482,0.42,2.217,0.699l-0.218,3.201c-0.632-0.352-1.335-0.653-2.11-0.904
				s-1.563-0.403-2.366-0.458c-0.811-0.056-1.535,0.036-2.176,0.276c-0.641,0.238-1.188,0.603-1.642,1.093
				c-0.454,0.489-0.815,1.104-1.083,1.845c-0.267,0.741-0.433,1.585-0.497,2.533c-0.062,0.914-0.034,1.743,0.083,2.487
				c0.116,0.745,0.346,1.387,0.686,1.926c0.339,0.539,0.796,0.965,1.367,1.276c0.571,0.313,1.28,0.498,2.126,0.555
				c0.203,0.015,0.379,0.02,0.529,0.017c0.151-0.003,0.294-0.014,0.429-0.031c0.134-0.017,0.261-0.039,0.383-0.065
				c0.12-0.027,0.249-0.059,0.384-0.094l0.301-4.399L313.636,247.347z"/>
			<path style="fill:#F7851F;" d="M322.958,255.036l1.174-17.216l10.403,0.705l-0.188,2.74l-7.099-0.482l-0.292,4.281l6.769,0.459
				l-0.183,2.675l-6.768-0.46l-0.326,4.782l7.099,0.481l-0.188,2.74L322.958,255.036z"/>
			<path style="fill:#F7851F;" d="M345.53,241.722l-0.99,14.516l-3.331-0.226l0.99-14.516l-4.732-0.321l0.184-2.7l12.797,0.867
				l-0.186,2.701L345.53,241.722z"/>
			<path style="fill:#F7851F;" d="M369.139,260.23l-3.133-0.213l10.688-20.819l3.147,0.214L369.139,260.23z"/>
			<path style="fill:#F7851F;" d="M381.86,257.987l1.174-17.217l5.579,0.378c1.965,0.134,3.415,0.576,4.352,1.328
				c0.936,0.752,1.355,1.82,1.261,3.209c-0.028,0.43-0.108,0.846-0.237,1.247s-0.312,0.767-0.546,1.095
				c-0.234,0.327-0.521,0.613-0.854,0.854c-0.336,0.242-0.724,0.424-1.166,0.543c0.427,0.1,0.829,0.267,1.208,0.499
				c0.377,0.233,0.703,0.524,0.975,0.873c0.273,0.35,0.48,0.754,0.622,1.214s0.192,0.966,0.155,1.519
				c-0.119,1.757-0.8,3.036-2.041,3.839c-1.241,0.802-2.977,1.128-5.206,0.977L381.86,257.987z M387.54,255.712
				c0.52,0.036,0.98,0.001,1.382-0.104c0.399-0.105,0.742-0.265,1.022-0.479c0.279-0.215,0.498-0.476,0.657-0.783
				c0.158-0.307,0.249-0.64,0.274-1c0.051-0.746-0.189-1.35-0.72-1.809c-0.532-0.46-1.375-0.729-2.529-0.808l-2.021-0.137
				l-0.339,4.966L387.54,255.712z M390.804,246.021c0.022-0.324-0.011-0.622-0.099-0.893c-0.088-0.271-0.241-0.506-0.463-0.707
				c-0.222-0.2-0.511-0.363-0.87-0.489c-0.358-0.125-0.798-0.206-1.318-0.241l-1.97-0.134l-0.311,4.558l1.971,0.134
				c0.527,0.036,0.979,0.003,1.354-0.1c0.374-0.103,0.686-0.258,0.935-0.466c0.248-0.209,0.434-0.454,0.555-0.736
				C390.709,246.664,390.781,246.355,390.804,246.021z"/>
			<path style="fill:#F7851F;" d="M410.05,250.917c-0.106,1.563-0.382,2.898-0.825,4.007c-0.442,1.107-1.009,2.005-1.696,2.69
				c-0.689,0.686-1.475,1.175-2.358,1.468c-0.883,0.293-1.813,0.406-2.792,0.34c-2.273-0.154-3.933-1.022-4.975-2.607
				c-1.043-1.583-1.467-3.811-1.271-6.683c0.106-1.562,0.381-2.898,0.824-4.007c0.442-1.107,1.009-2.005,1.696-2.69
				c0.689-0.685,1.475-1.175,2.357-1.468c0.884-0.293,1.814-0.406,2.793-0.34c2.273,0.154,3.933,1.021,4.976,2.601
				C409.823,245.806,410.245,248.037,410.05,250.917z M406.602,250.843c0.138-2.038-0.03-3.576-0.509-4.614
				c-0.478-1.038-1.344-1.6-2.594-1.685c-0.626-0.042-1.168,0.051-1.626,0.28c-0.458,0.229-0.849,0.584-1.169,1.065
				s-0.571,1.084-0.754,1.809c-0.183,0.724-0.305,1.561-0.37,2.509c-0.139,2.037,0.032,3.575,0.516,4.613
				c0.482,1.039,1.346,1.6,2.587,1.685c0.626,0.042,1.171-0.051,1.633-0.279c0.462-0.23,0.853-0.585,1.169-1.066
				c0.315-0.48,0.564-1.084,0.747-1.808C406.414,252.627,406.536,251.79,406.602,250.843z"/>
			<path style="fill:#F7851F;" d="M424.958,251.667c-0.106,1.563-0.382,2.899-0.825,4.007c-0.442,1.107-1.009,2.005-1.696,2.69
				c-0.69,0.686-1.476,1.175-2.359,1.468c-0.882,0.293-1.812,0.406-2.791,0.34c-2.273-0.154-3.933-1.022-4.975-2.607
				c-1.043-1.583-1.467-3.811-1.271-6.683c0.106-1.562,0.38-2.898,0.824-4.007c0.441-1.107,1.009-2.005,1.696-2.69
				c0.689-0.685,1.475-1.175,2.357-1.468c0.884-0.293,1.814-0.406,2.792-0.34c2.273,0.154,3.933,1.021,4.977,2.601
				C424.73,246.556,425.153,248.787,424.958,251.667z M421.51,251.593c0.138-2.038-0.031-3.576-0.509-4.613
				c-0.478-1.039-1.344-1.601-2.594-1.686c-0.627-0.042-1.168,0.051-1.626,0.28c-0.459,0.229-0.849,0.584-1.169,1.065
				c-0.321,0.481-0.571,1.084-0.754,1.809c-0.183,0.724-0.306,1.561-0.371,2.509c-0.139,2.037,0.033,3.575,0.516,4.613
				c0.483,1.039,1.346,1.6,2.588,1.685c0.626,0.042,1.17-0.051,1.633-0.279c0.462-0.229,0.853-0.585,1.168-1.065
				c0.316-0.481,0.565-1.085,0.747-1.809C421.321,253.377,421.444,252.54,421.51,251.593z"/>
			<path style="fill:#F7851F;" d="M435.082,260.813l-4.627-8.678l-0.568,8.325l-3.305-0.224l1.175-17.217l3.304,0.225l-0.533,7.837
				l5.702-7.486l3.926,0.266l-6.43,7.809l5.561,9.429L435.082,260.813z"/>
			<path style="fill:#F7851F;" d="M453.622,256.583c-0.063,0.939-0.293,1.744-0.688,2.414c-0.395,0.671-0.922,1.211-1.578,1.62
				c-0.656,0.41-1.423,0.696-2.303,0.856c-0.879,0.161-1.829,0.207-2.851,0.138c-0.908-0.062-1.781-0.174-2.62-0.337
				c-0.839-0.162-1.664-0.395-2.476-0.697l0.219-3.2c0.396,0.168,0.81,0.328,1.242,0.48c0.432,0.153,0.867,0.291,1.306,0.413
				s0.877,0.225,1.314,0.308c0.438,0.082,0.862,0.138,1.276,0.166c0.617,0.041,1.145,0.024,1.584-0.052
				c0.438-0.076,0.802-0.197,1.087-0.362c0.285-0.166,0.499-0.372,0.64-0.619c0.141-0.246,0.222-0.522,0.242-0.83
				c0.029-0.422-0.067-0.783-0.29-1.085c-0.224-0.302-0.526-0.576-0.907-0.823c-0.382-0.245-0.82-0.474-1.314-0.684
				c-0.496-0.21-0.997-0.434-1.508-0.672c-0.511-0.237-1.011-0.5-1.5-0.79c-0.49-0.289-0.92-0.636-1.291-1.04
				c-0.37-0.404-0.659-0.876-0.866-1.415c-0.206-0.538-0.284-1.177-0.233-1.915c0.046-0.676,0.213-1.309,0.5-1.897
				c0.288-0.59,0.713-1.093,1.272-1.509s1.263-0.73,2.109-0.942c0.846-0.211,1.855-0.277,3.027-0.198
				c0.345,0.023,0.702,0.062,1.075,0.119c0.371,0.057,0.739,0.121,1.101,0.194c0.363,0.073,0.711,0.154,1.047,0.242
				c0.335,0.09,0.641,0.179,0.918,0.269l-0.202,2.963c-0.275-0.125-0.577-0.241-0.906-0.352c-0.328-0.111-0.669-0.212-1.021-0.302
				c-0.352-0.09-0.708-0.165-1.066-0.225c-0.359-0.06-0.702-0.101-1.028-0.122c-0.572-0.039-1.06-0.025-1.463,0.04
				c-0.402,0.065-0.737,0.17-1.005,0.315c-0.267,0.145-0.465,0.332-0.596,0.562s-0.206,0.488-0.226,0.778
				c-0.025,0.36,0.075,0.678,0.301,0.953c0.225,0.275,0.53,0.53,0.917,0.764c0.386,0.233,0.828,0.458,1.321,0.672
				c0.494,0.215,1.002,0.443,1.521,0.686c0.518,0.242,1.022,0.513,1.512,0.811c0.487,0.298,0.92,0.649,1.295,1.054
				c0.375,0.405,0.666,0.872,0.874,1.402C453.591,255.263,453.671,255.881,453.622,256.583z"/>
			<path style="fill:#F7851F;" d="M458.585,264.73l-3.133-0.212l10.688-20.819l3.147,0.213L458.585,264.73z"/>
			<path style="fill:#F7851F;" d="M471.609,262.508l0.195-2.858l4.401,0.299l0.754-11.065l-3.977,1.848l-0.879-2.693l5.683-2.512
				l2.71,0.184l-0.986,14.463l3.793,0.258l-0.194,2.858L471.609,262.508z"/>
		</g>
	</g>
	<g>
		<g>
			<path style="fill:#313333;" d="M257.171,285.121l-0.264,5.39l-2.534-0.123l0.711-14.53l5.578,0.271
				c1.629,0.079,2.902,0.564,3.819,1.457s1.341,2.034,1.273,3.427c-0.07,1.425-0.593,2.511-1.57,3.258
				c-0.977,0.747-2.311,1.079-4,0.997L257.171,285.121z M257.271,283.086l3.044,0.147c0.901,0.044,1.6-0.134,2.095-0.533
				c0.494-0.399,0.762-0.998,0.801-1.797c0.038-0.785-0.171-1.424-0.629-1.916c-0.459-0.492-1.107-0.766-1.948-0.819l-3.114-0.151
				L257.271,283.086z"/>
			<path style="fill:#313333;" d="M273.34,282.706c-0.317-0.069-0.647-0.111-0.987-0.128c-1.115-0.055-1.887,0.335-2.315,1.168
				l-0.361,7.385l-2.434-0.118l0.528-10.798l2.323,0.113l0.002,1.21c0.633-0.909,1.47-1.339,2.512-1.289
				c0.346,0.018,0.632,0.078,0.854,0.183L273.34,282.706z"/>
			<path style="fill:#313333;" d="M279.219,291.794c-1.542-0.074-2.768-0.619-3.679-1.634c-0.91-1.015-1.327-2.327-1.248-3.937
				l0.015-0.3c0.053-1.078,0.309-2.03,0.769-2.858c0.457-0.828,1.075-1.46,1.854-1.896c0.777-0.436,1.63-0.632,2.558-0.586
				c1.476,0.071,2.593,0.596,3.352,1.573c0.759,0.977,1.096,2.324,1.012,4.04l-0.048,0.979l-7.08-0.344
				c0.03,0.895,0.294,1.614,0.792,2.158c0.5,0.545,1.146,0.837,1.94,0.875c1.115,0.055,2.045-0.351,2.791-1.215l1.25,1.312
				c-0.465,0.624-1.069,1.097-1.812,1.417C280.942,291.699,280.12,291.838,279.219,291.794z M279.382,282.529
				c-0.668-0.032-1.219,0.174-1.651,0.62c-0.434,0.446-0.728,1.082-0.882,1.907l4.637,0.226l0.009-0.18
				c-0.014-0.814-0.2-1.438-0.56-1.872C280.573,282.796,280.057,282.562,279.382,282.529z"/>
			<path style="fill:#313333;" d="M288.051,292.023l-2.434-0.118l0.75-15.328l2.434,0.118L288.051,292.023z"/>
			<path style="fill:#313333;" d="M290.515,286.631c0.052-1.058,0.309-2,0.771-2.828s1.085-1.451,1.868-1.869
				c0.783-0.419,1.669-0.605,2.657-0.557c1.462,0.07,2.626,0.598,3.491,1.58c0.865,0.981,1.297,2.25,1.295,3.805l-0.019,0.568
				c-0.052,1.065-0.304,2.006-0.756,2.824c-0.451,0.818-1.069,1.438-1.857,1.86c-0.787,0.422-1.682,0.608-2.682,0.56
				c-1.53-0.074-2.728-0.641-3.596-1.699c-0.869-1.06-1.262-2.435-1.179-4.124L290.515,286.631z M292.938,286.959
				c-0.054,1.111,0.134,1.992,0.563,2.644c0.43,0.65,1.056,0.997,1.877,1.036c0.82,0.04,1.476-0.248,1.964-0.865
				c0.488-0.616,0.763-1.539,0.823-2.771c0.053-1.091-0.139-1.967-0.579-2.629c-0.438-0.661-1.062-1.012-1.87-1.052
				c-0.795-0.038-1.441,0.246-1.938,0.852C293.278,284.78,292.999,285.708,292.938,286.959z"/>
			<path style="fill:#313333;" d="M308.852,293.033c-0.097-0.211-0.174-0.551-0.23-1.021c-0.813,0.767-1.782,1.123-2.904,1.069
				c-1.088-0.054-1.961-0.405-2.618-1.058s-0.964-1.435-0.919-2.346c0.056-1.15,0.529-2.013,1.417-2.587
				c0.888-0.573,2.129-0.822,3.725-0.745l1.493,0.073l0.034-0.708c0.027-0.559-0.107-1.015-0.404-1.366
				c-0.298-0.351-0.768-0.542-1.408-0.573c-0.554-0.026-1.015,0.089-1.382,0.349c-0.368,0.259-0.562,0.601-0.583,1.026l-2.434-0.118
				c0.029-0.592,0.254-1.137,0.673-1.633s0.975-0.875,1.667-1.134c0.691-0.26,1.454-0.37,2.289-0.33
				c1.268,0.062,2.264,0.429,2.988,1.102c0.723,0.672,1.066,1.584,1.03,2.735l-0.238,4.87c-0.047,0.972,0.052,1.753,0.297,2.346
				l-0.009,0.169L308.852,293.033z M306.263,291.157c0.481,0.023,0.939-0.07,1.375-0.283c0.435-0.212,0.77-0.509,1.002-0.892
				l0.1-2.035l-1.312-0.064c-0.901-0.044-1.586,0.08-2.055,0.371c-0.471,0.29-0.718,0.722-0.746,1.293
				c-0.022,0.466,0.113,0.845,0.411,1.136S305.743,291.133,306.263,291.157z"/>
			<path style="fill:#313333;" d="M313.286,287.758c0.081-1.663,0.534-2.98,1.358-3.951c0.823-0.97,1.886-1.424,3.188-1.36
				c1.148,0.056,2.058,0.5,2.726,1.333l0.271-5.528l2.434,0.118l-0.75,15.328l-2.204-0.107l-0.064-1.123
				c-0.771,0.843-1.764,1.234-2.979,1.176c-1.268-0.062-2.269-0.62-3.004-1.676C313.525,290.91,313.2,289.507,313.286,287.758z
				 M315.709,288.085c-0.054,1.099,0.116,1.965,0.511,2.601c0.394,0.637,0.98,0.974,1.762,1.012
				c0.995,0.048,1.744-0.359,2.249-1.222l0.226-4.61c-0.405-0.887-1.105-1.354-2.1-1.403c-0.788-0.038-1.411,0.244-1.869,0.846
				C316.03,285.908,315.771,286.834,315.709,288.085z"/>
			<path style="fill:#313333;" d="M326.642,291.338c0.454,0.021,0.799,0.166,1.033,0.435c0.233,0.269,0.342,0.595,0.323,0.98
				c-0.019,0.38-0.158,0.688-0.416,0.926c-0.26,0.237-0.616,0.345-1.07,0.323c-0.435-0.021-0.771-0.161-1.014-0.42
				c-0.241-0.258-0.352-0.58-0.333-0.967c0.019-0.385,0.156-0.7,0.417-0.944C325.842,291.427,326.194,291.316,326.642,291.338z
				 M327.057,282.864c0.454,0.022,0.798,0.168,1.033,0.436c0.233,0.269,0.342,0.596,0.322,0.981
				c-0.019,0.379-0.157,0.688-0.416,0.925s-0.616,0.346-1.07,0.323c-0.435-0.021-0.771-0.161-1.013-0.42
				c-0.242-0.258-0.353-0.58-0.334-0.966c0.02-0.386,0.157-0.701,0.418-0.945C326.256,282.954,326.609,282.843,327.057,282.864z"/>
			<path style="fill:#313333;" d="M337.785,280.444l-0.54,3.846l-1.392-0.067l0.256-5.229l1.742,0.085L337.785,280.444z
				 M340.8,280.591l-0.54,3.846l-1.392-0.067l0.256-5.229l1.742,0.085L340.8,280.591z"/>
			<path style="fill:#313333;" d="M342.869,295.936l-1.912-0.093l6.509-15.499l1.913,0.094L342.869,295.936z"/>
			<path style="fill:#313333;" d="M356.83,295.364c-0.097-0.211-0.174-0.552-0.23-1.021c-0.814,0.768-1.782,1.124-2.904,1.069
				c-1.088-0.053-1.961-0.405-2.618-1.058c-0.657-0.651-0.964-1.434-0.919-2.345c0.056-1.151,0.529-2.014,1.417-2.588
				c0.888-0.572,2.129-0.821,3.725-0.744l1.493,0.072l0.034-0.708c0.027-0.559-0.107-1.014-0.404-1.365
				c-0.298-0.351-0.768-0.542-1.408-0.573c-0.554-0.027-1.015,0.089-1.382,0.348c-0.368,0.259-0.562,0.602-0.583,1.027l-2.434-0.118
				c0.029-0.592,0.254-1.137,0.673-1.633c0.419-0.497,0.975-0.875,1.667-1.135c0.691-0.26,1.454-0.37,2.289-0.329
				c1.268,0.062,2.264,0.429,2.988,1.101c0.723,0.672,1.066,1.584,1.03,2.736l-0.238,4.869c-0.047,0.972,0.052,1.753,0.297,2.346
				l-0.009,0.17L356.83,295.364z M354.241,293.488c0.481,0.023,0.939-0.07,1.375-0.283c0.435-0.212,0.77-0.51,1.002-0.892l0.1-2.036
				l-1.312-0.063c-0.901-0.044-1.586,0.079-2.055,0.37c-0.471,0.291-0.718,0.722-0.746,1.294c-0.022,0.466,0.113,0.845,0.411,1.136
				S353.722,293.463,354.241,293.488z"/>
			<path style="fill:#313333;" d="M368.068,294.85c-0.755,0.804-1.791,1.173-3.106,1.109c-1.175-0.058-2.047-0.443-2.617-1.158
				c-0.572-0.714-0.824-1.721-0.761-3.018l0.342-6.995l2.434,0.118l-0.341,6.965c-0.066,1.371,0.47,2.084,1.611,2.14
				c1.182,0.058,2-0.326,2.456-1.151l0.379-7.754l2.434,0.118l-0.528,10.798l-2.293-0.111L368.068,294.85z"/>
			<path style="fill:#313333;" d="M376.555,282.868l-0.129,2.625l1.913,0.093l-0.088,1.796l-1.913-0.093l-0.295,6.028
				c-0.02,0.412,0.048,0.714,0.203,0.904c0.154,0.191,0.441,0.297,0.862,0.317c0.28,0.014,0.566-0.006,0.856-0.059l-0.092,1.876
				c-0.562,0.126-1.101,0.177-1.614,0.151c-1.869-0.09-2.753-1.163-2.652-3.22l0.299-6.117l-1.783-0.087l0.088-1.796l1.783,0.087
				l0.129-2.625L376.555,282.868z"/>
			<path style="fill:#313333;" d="M382.538,286.97c0.84-0.879,1.866-1.29,3.081-1.23c2.311,0.112,3.418,1.483,3.323,4.113
				l-0.346,7.055l-2.434-0.118l0.341-6.966c0.037-0.744-0.1-1.28-0.408-1.604c-0.309-0.325-0.776-0.504-1.404-0.534
				c-0.975-0.047-1.724,0.35-2.246,1.191l-0.378,7.714l-2.434-0.118l0.75-15.328l2.434,0.118L382.538,286.97z"/>
			<path style="fill:#313333;" d="M390.868,291.506c0.052-1.058,0.31-2,0.771-2.828s1.084-1.451,1.867-1.87
				c0.784-0.418,1.669-0.604,2.657-0.557c1.463,0.071,2.627,0.599,3.492,1.581c0.865,0.981,1.296,2.25,1.294,3.805l-0.019,0.568
				c-0.052,1.064-0.304,2.006-0.755,2.824c-0.452,0.818-1.07,1.438-1.857,1.86s-1.682,0.608-2.683,0.56
				c-1.529-0.074-2.727-0.641-3.595-1.699c-0.869-1.06-1.263-2.435-1.18-4.124L390.868,291.506z M393.291,291.834
				c-0.054,1.111,0.134,1.992,0.564,2.644c0.43,0.65,1.055,0.997,1.876,1.036c0.82,0.04,1.476-0.248,1.965-0.865
				c0.487-0.616,0.763-1.54,0.823-2.771c0.053-1.092-0.14-1.967-0.579-2.629c-0.438-0.662-1.063-1.012-1.871-1.052
				c-0.795-0.038-1.44,0.246-1.938,0.852C393.632,289.654,393.353,290.583,393.291,291.834z"/>
			<path style="fill:#313333;" d="M408.824,289.287c-0.317-0.068-0.646-0.111-0.987-0.128c-1.115-0.054-1.887,0.335-2.315,1.168
				l-0.361,7.385l-2.434-0.118l0.528-10.797l2.323,0.112l0.002,1.211c0.633-0.91,1.47-1.34,2.512-1.289
				c0.346,0.017,0.632,0.077,0.854,0.182L408.824,289.287z"/>
			<path style="fill:#313333;" d="M412.292,284.063l-0.54,3.846l-1.392-0.067l0.256-5.229l1.742,0.085L412.292,284.063z
				 M415.307,284.21l-0.54,3.846l-1.393-0.067l0.256-5.229l1.743,0.085L415.307,284.21z"/>
			<path style="fill:#313333;" d="M416.936,301.565l-1.273-0.842c0.417-0.587,0.708-1.102,0.875-1.544
				c0.165-0.441,0.263-0.896,0.292-1.361l0.093-1.886l2.192,0.106l-0.096,1.746c-0.041,0.705-0.254,1.403-0.639,2.095
				C417.994,300.571,417.513,301.133,416.936,301.565z"/>
			<path style="fill:#313333;" d="M428.555,284.853l-0.539,3.846l-1.393-0.067l0.256-5.229l1.742,0.085L428.555,284.853z
				 M431.57,285l-0.541,3.846l-1.392-0.067l0.256-5.229l1.743,0.085L431.57,285z"/>
			<path style="fill:#313333;" d="M433.639,300.345l-1.911-0.093l6.509-15.498l1.912,0.093L433.639,300.345z"/>
			<path style="fill:#313333;" d="M447.218,291.152c-0.316-0.068-0.646-0.111-0.986-0.128c-1.115-0.054-1.887,0.335-2.316,1.168
				l-0.361,7.385l-2.434-0.118l0.528-10.798l2.323,0.113l0.002,1.211c0.634-0.91,1.471-1.34,2.512-1.289
				c0.347,0.017,0.633,0.077,0.854,0.182L447.218,291.152z"/>
			<path style="fill:#313333;" d="M453.098,300.241c-1.542-0.075-2.768-0.62-3.68-1.635c-0.91-1.015-1.326-2.326-1.247-3.937
				l0.015-0.299c0.053-1.078,0.309-2.031,0.768-2.859c0.458-0.827,1.076-1.46,1.854-1.896c0.776-0.436,1.629-0.631,2.558-0.586
				c1.475,0.071,2.593,0.596,3.352,1.573c0.759,0.977,1.095,2.324,1.011,4.04l-0.048,0.979l-7.079-0.344
				c0.03,0.895,0.294,1.614,0.792,2.158c0.499,0.545,1.146,0.837,1.94,0.876c1.114,0.054,2.045-0.352,2.79-1.216l1.251,1.312
				c-0.466,0.624-1.069,1.097-1.812,1.418C454.821,300.146,453.999,300.285,453.098,300.241z M453.261,290.975
				c-0.668-0.032-1.219,0.175-1.651,0.62c-0.434,0.446-0.728,1.082-0.882,1.908l4.636,0.225l0.009-0.18
				c-0.014-0.813-0.199-1.438-0.56-1.872C454.452,291.242,453.935,291.009,453.261,290.975z"/>
			<path style="fill:#313333;" d="M463.183,297.45l2.671-7.612l2.514,0.121l-4.284,10.615l-2.112-0.103l-3.257-10.981l2.523,0.123
				L463.183,297.45z"/>
			<path style="fill:#313333;" d="M471.944,300.956l-2.434-0.118l0.528-10.797l2.434,0.118L471.944,300.956z M470.026,287.229
				c0.018-0.373,0.152-0.677,0.401-0.911c0.249-0.235,0.594-0.341,1.034-0.32c0.441,0.021,0.775,0.161,1.003,0.419
				c0.229,0.258,0.334,0.573,0.316,0.946c-0.019,0.365-0.153,0.664-0.406,0.895c-0.252,0.231-0.598,0.336-1.039,0.314
				c-0.44-0.021-0.773-0.158-0.998-0.413C470.112,287.905,470.008,287.595,470.026,287.229z"/>
			<path style="fill:#313333;" d="M479.355,301.516c-1.542-0.075-2.768-0.62-3.679-1.635c-0.91-1.014-1.327-2.326-1.248-3.937
				l0.015-0.299c0.053-1.078,0.309-2.031,0.768-2.859c0.458-0.827,1.076-1.46,1.854-1.896c0.776-0.436,1.629-0.631,2.558-0.586
				c1.476,0.071,2.593,0.597,3.352,1.574c0.759,0.977,1.096,2.323,1.012,4.04l-0.048,0.978l-7.08-0.344
				c0.03,0.896,0.294,1.614,0.792,2.159c0.5,0.545,1.146,0.836,1.94,0.875c1.114,0.054,2.045-0.352,2.791-1.216l1.25,1.312
				c-0.466,0.624-1.069,1.097-1.812,1.418C481.079,301.422,480.257,301.56,479.355,301.516z M479.519,292.252
				c-0.668-0.033-1.219,0.174-1.651,0.619c-0.434,0.446-0.728,1.082-0.882,1.908l4.637,0.226l0.009-0.18
				c-0.014-0.814-0.2-1.438-0.561-1.873S480.193,292.284,479.519,292.252z"/>
			<path style="fill:#313333;" d="M495.282,298.738l2.087-7.37l2.373,0.115l-3.482,10.654l-2.003-0.098l-1.96-7.527l-2.646,7.304
				l-2.003-0.098l-2.436-10.941l2.373,0.115l1.393,7.46l2.583-7.267l1.833,0.089L495.282,298.738z"/>
			<path style="fill:#313333;" d="M507.059,299.72c0.021-0.432-0.142-0.771-0.487-1.014s-0.93-0.472-1.749-0.685
				s-1.499-0.467-2.04-0.76c-1.188-0.645-1.752-1.522-1.698-2.634c0.046-0.932,0.478-1.69,1.296-2.277
				c0.819-0.587,1.835-0.852,3.05-0.792c1.296,0.062,2.326,0.433,3.093,1.11s1.126,1.525,1.076,2.543l-2.434-0.118
				c0.022-0.466-0.132-0.861-0.465-1.188c-0.331-0.326-0.785-0.503-1.359-0.531c-0.534-0.025-0.976,0.075-1.324,0.306
				c-0.35,0.229-0.534,0.551-0.555,0.963c-0.018,0.373,0.125,0.67,0.429,0.892c0.303,0.222,0.928,0.46,1.872,0.717
				c0.944,0.255,1.682,0.541,2.212,0.856c0.53,0.316,0.917,0.684,1.16,1.103c0.245,0.418,0.353,0.917,0.324,1.496
				c-0.048,0.971-0.49,1.738-1.327,2.301c-0.839,0.563-1.912,0.812-3.22,0.749c-0.888-0.043-1.672-0.241-2.35-0.594
				c-0.679-0.354-1.199-0.818-1.559-1.396c-0.36-0.577-0.522-1.189-0.491-1.834l2.363,0.114c0.005,0.574,0.2,1.025,0.586,1.354
				c0.385,0.329,0.908,0.51,1.569,0.542c0.641,0.031,1.134-0.066,1.48-0.294C506.857,300.424,507.04,300.114,507.059,299.72z"/>
			<path style="fill:#313333;" d="M512.051,304.155l-1.911-0.093l6.509-15.499l1.912,0.093L512.051,304.155z"/>
			<path style="fill:#313333;" d="M522.092,293.664l-3.013-1.025l0.634-1.658l2.966,1.312l0.018-3.436l1.793,0.087l-0.321,3.481
				l3.031-1.001l0.457,1.741l-3.147,0.726l1.873,2.752l-1.504,0.987l-1.662-2.962l-1.918,2.698l-1.413-1.09L522.092,293.664z"/>
			<path style="fill:#313333;" d="M530.791,289.82l-0.54,3.846l-1.392-0.068l0.256-5.229l1.742,0.084L530.791,289.82z
				 M533.806,289.967l-0.541,3.845l-1.392-0.067l0.256-5.229l1.743,0.084L533.806,289.967z"/>
		</g>
		<path style="fill:#F7851F;" d="M547.776,319.536l-1.175-0.06l-312.928-15.841l2.266-39.319l1.175,0.06l312.928,15.841
			L547.776,319.536z M236.149,301.566l309.402,15.662l2.013-34.941l-309.402-15.662L236.149,301.566z"/>
	</g>
	<g>
		<defs>
			<rect id="SVGID_1_" x="133.162" y="244.613" width="548.235" height="92.157"/>
		</defs>
		<clipPath id="SVGID_2_">
			<use xlink:href="#SVGID_1_"  style="overflow:visible;"/>
		</clipPath>
		<path style="clip-path:url(#SVGID_2_);fill:#F7851F;" d="M664.249,281.569l-12.968-14.3c-0.224-0.247-0.537-0.394-0.868-0.41
			l-9.075-0.428c-1.115-0.053-1.738,1.275-0.986,2.104l5.913,6.517c0.753,0.829,0.13,2.157-0.986,2.105l-520.657-26.382
			l-0.413,8.798l520.658,26.382c1.115,0.053,1.611,1.433,0.785,2.187l-6.498,5.932c-0.826,0.754-0.331,2.135,0.785,2.187
			l9.075,0.428c0.331,0.016,0.657-0.102,0.903-0.327l14.249-13.016C664.678,282.878,664.716,282.083,664.249,281.569z"/>
	</g>
</g>
<g id="Calque_1">
</g>
</svg>
