<?xml version="1.0" encoding="iso-8859-1"?>
<!-- Generator: Adobe Illustrator 25.0.1, SVG Export Plug-In . SVG Version: 6.00 Build 0)  -->
<svg version="1.1" xmlns="http://www.w3.org/2000/svg" xmlns:xlink="http://www.w3.org/1999/xlink" x="0px" y="0px"
	 viewBox="0 0 800 810.965" style="enable-background:new 0 0 800 810.965;" xml:space="preserve">
<g id="step2">
	<g>
		<g>
			<g>
				<g>
					<g>
						<path style="fill:#313333;" d="M283.804,390.768l6.619-0.316l0.098,2.017l-9.153,0.438l-0.7-14.531l2.534-0.121
							L283.804,390.768z"/>
						<path style="fill:#313333;" d="M291.579,378.784c-0.019-0.372,0.086-0.688,0.312-0.946c0.226-0.256,0.558-0.396,0.999-0.416
							c0.44-0.021,0.787,0.085,1.038,0.318c0.253,0.236,0.388,0.54,0.406,0.912c0.018,0.366-0.088,0.676-0.317,0.93
							c-0.228,0.255-0.562,0.393-1.003,0.414c-0.441,0.021-0.785-0.084-1.034-0.316C291.73,379.448,291.596,379.15,291.579,378.784z
							 M294.818,392.263l-2.434,0.116l-0.521-10.798l2.434-0.116L294.818,392.263z"/>
						<path style="fill:#313333;" d="M299.205,381.23l0.131,1.243c0.755-1.003,1.783-1.535,3.085-1.598
							c2.257-0.108,3.468,1.125,3.632,3.697l0.344,7.136l-2.434,0.116l-0.337-6.996c-0.033-0.686-0.206-1.185-0.52-1.5
							s-0.807-0.457-1.48-0.425c-0.982,0.048-1.691,0.524-2.13,1.433l0.37,7.685l-2.434,0.116l-0.521-10.798L299.205,381.23z"/>
						<path style="fill:#313333;" d="M312.172,386.791l-1.028,1.159l0.17,3.523l-2.434,0.116l-0.738-15.329l2.434-0.116l0.426,8.843
							l0.715-0.984l2.833-3.507l2.924-0.14l-3.809,4.692l4.761,6.085l-2.814,0.135L312.172,386.791z"/>
						<path style="fill:#313333;" d="M320.516,379.979c0.454-0.021,0.811,0.091,1.069,0.335s0.398,0.56,0.417,0.945
							c0.019,0.379-0.09,0.7-0.325,0.961c-0.234,0.261-0.579,0.402-1.033,0.424c-0.435,0.021-0.784-0.086-1.049-0.319
							c-0.266-0.234-0.408-0.544-0.427-0.93s0.089-0.713,0.325-0.981C319.727,380.146,320.069,380.001,320.516,379.979z
							 M320.925,388.453c0.454-0.021,0.811,0.09,1.069,0.335c0.259,0.243,0.398,0.56,0.417,0.944c0.019,0.38-0.09,0.7-0.325,0.961
							c-0.234,0.262-0.579,0.403-1.033,0.425c-0.435,0.021-0.784-0.087-1.049-0.32c-0.266-0.233-0.408-0.543-0.427-0.93
							c-0.019-0.385,0.089-0.713,0.325-0.98C320.135,388.619,320.477,388.474,320.925,388.453z"/>
						<path style="fill:#313333;" d="M331.68,384.187l6.016,1.953l0.117,2.425l-8.562-3.321l-0.093-1.926l8.203-4.114l0.117,2.425
							L331.68,384.187z"/>
						<path style="fill:#313333;" d="M341.297,391.289l-1.912,0.092l4.978-16.053l1.913-0.092L341.297,391.289z"/>
						<path style="fill:#313333;" d="M355.138,389.378c-0.117-0.201-0.228-0.533-0.33-0.995c-0.735,0.842-1.664,1.291-2.786,1.345
							c-1.087,0.052-1.991-0.216-2.709-0.802c-0.718-0.585-1.097-1.335-1.141-2.245c-0.056-1.151,0.33-2.055,1.158-2.711
							c0.829-0.657,2.04-1.023,3.636-1.101l1.492-0.071l-0.034-0.708c-0.026-0.56-0.205-0.999-0.534-1.32
							c-0.33-0.32-0.816-0.466-1.458-0.436c-0.554,0.027-1,0.188-1.341,0.479c-0.342,0.294-0.5,0.653-0.479,1.078l-2.435,0.116
							c-0.028-0.592,0.142-1.155,0.512-1.69c0.368-0.533,0.885-0.963,1.549-1.288c0.663-0.326,1.411-0.508,2.246-0.548
							c1.27-0.062,2.296,0.209,3.081,0.808c0.785,0.6,1.215,1.474,1.291,2.624l0.234,4.87c0.047,0.972,0.221,1.74,0.522,2.306
							l0.009,0.17L355.138,389.378z M352.38,387.76c0.48-0.023,0.928-0.162,1.34-0.416c0.413-0.252,0.717-0.58,0.911-0.982
							l-0.098-2.036l-1.312,0.063c-0.901,0.043-1.572,0.231-2.011,0.564c-0.439,0.335-0.645,0.789-0.617,1.36
							c0.022,0.466,0.196,0.83,0.519,1.092C351.437,387.665,351.859,387.784,352.38,387.76z"/>
						<path style="fill:#313333;" d="M366.274,387.784c-0.675,0.873-1.669,1.341-2.984,1.404c-1.175,0.056-2.081-0.245-2.719-0.901
							s-0.987-1.633-1.05-2.931l-0.337-6.995l2.435-0.116l0.336,6.966c0.065,1.37,0.669,2.028,1.811,1.974
							c1.182-0.057,1.959-0.517,2.333-1.382l-0.374-7.754l2.434-0.117l0.521,10.798l-2.293,0.11L366.274,387.784z"/>
						<path style="fill:#313333;" d="M373.559,375.043l0.126,2.625l1.913-0.092l0.087,1.796l-1.913,0.092l0.29,6.027
							c0.021,0.413,0.116,0.707,0.289,0.882c0.173,0.174,0.47,0.252,0.89,0.232c0.281-0.014,0.562-0.061,0.847-0.141l0.09,1.876
							c-0.546,0.18-1.077,0.282-1.591,0.307c-1.869,0.09-2.854-0.894-2.952-2.95l-0.295-6.117l-1.783,0.085l-0.087-1.796
							l1.783-0.085l-0.126-2.625L373.559,375.043z"/>
						<path style="fill:#313333;" d="M379.912,378.549c0.751-0.956,1.733-1.463,2.948-1.521c2.311-0.11,3.546,1.146,3.706,3.774
							l0.34,7.055l-2.435,0.117l-0.336-6.966c-0.036-0.745-0.223-1.265-0.562-1.559c-0.339-0.295-0.821-0.426-1.449-0.396
							c-0.975,0.047-1.681,0.515-2.121,1.401l0.372,7.715l-2.434,0.117l-0.738-15.329l2.434-0.117L379.912,378.549z"/>
						<path style="fill:#313333;" d="M388.643,382.263c-0.052-1.058,0.113-2.021,0.494-2.89c0.379-0.867,0.938-1.548,1.677-2.04
							c0.74-0.492,1.604-0.762,2.591-0.81c1.463-0.069,2.672,0.342,3.629,1.237c0.956,0.895,1.509,2.115,1.656,3.661l0.038,0.568
							c0.051,1.065-0.108,2.026-0.479,2.885c-0.37,0.857-0.927,1.534-1.669,2.03c-0.743,0.495-1.614,0.768-2.615,0.815
							c-1.529,0.073-2.776-0.376-3.743-1.347s-1.492-2.302-1.574-3.992L388.643,382.263z M391.087,382.355
							c0.054,1.112,0.326,1.971,0.817,2.577s1.146,0.891,1.968,0.852c0.82-0.039,1.445-0.39,1.872-1.05
							c0.426-0.66,0.609-1.605,0.551-2.837c-0.053-1.091-0.329-1.945-0.831-2.562c-0.501-0.616-1.157-0.904-1.965-0.866
							c-0.795,0.038-1.409,0.383-1.846,1.034C391.215,380.155,391.026,381.105,391.087,382.355z"/>
						<path style="fill:#313333;" d="M406.3,378.327c-0.321-0.037-0.654-0.049-0.994-0.032c-1.115,0.053-1.845,0.516-2.191,1.386
							l0.355,7.385l-2.434,0.116l-0.521-10.798l2.323-0.11l0.119,1.204c0.542-0.967,1.334-1.475,2.375-1.524
							c0.348-0.017,0.638,0.017,0.868,0.099L406.3,378.327z"/>
						<path style="fill:#313333;" d="M414.184,383.611c-0.021-0.432-0.215-0.753-0.584-0.961c-0.367-0.21-0.971-0.381-1.807-0.515
							c-0.836-0.133-1.538-0.319-2.104-0.56c-1.244-0.526-1.891-1.346-1.944-2.457c-0.045-0.932,0.31-1.729,1.068-2.392
							c0.759-0.663,1.743-1.024,2.959-1.083c1.295-0.062,2.357,0.209,3.187,0.809c0.828,0.601,1.268,1.409,1.316,2.428l-2.434,0.116
							c-0.022-0.466-0.215-0.845-0.577-1.138c-0.361-0.292-0.83-0.426-1.404-0.398c-0.534,0.026-0.964,0.171-1.29,0.433
							c-0.324,0.262-0.477,0.6-0.457,1.012c0.018,0.373,0.188,0.654,0.512,0.846c0.324,0.191,0.968,0.369,1.933,0.532
							c0.966,0.164,1.727,0.379,2.285,0.643c0.559,0.262,0.979,0.592,1.262,0.984c0.284,0.394,0.439,0.879,0.468,1.458
							c0.047,0.971-0.32,1.777-1.099,2.419c-0.779,0.64-1.823,0.992-3.131,1.055c-0.888,0.043-1.688-0.08-2.396-0.366
							c-0.711-0.286-1.272-0.699-1.687-1.239c-0.415-0.54-0.637-1.134-0.668-1.779l2.363-0.113c0.061,0.571,0.3,1.002,0.715,1.292
							s0.954,0.42,1.615,0.389c0.641-0.031,1.122-0.177,1.444-0.436C414.051,384.331,414.204,384.005,414.184,383.611z"/>
						<path style="fill:#313333;" d="M419.582,387.545l-1.911,0.092l4.978-16.053l1.913-0.092L419.582,387.545z"/>
						<path style="fill:#313333;" d="M433.384,385.635l-2.424,0.116l-0.562-11.673l-3.517,1.385l-0.099-2.035l5.589-2.359
							l0.311-0.015L433.384,385.635z"/>
						<path style="fill:#313333;" d="M444.525,378.74l-6.299-1.971l-0.115-2.385l8.832,3.299l0.093,1.926l-8.474,4.127l-0.115-2.385
							L444.525,378.74z"/>
						<path style="fill:#313333;" d="M449.965,388.122l-1.349-0.715c0.357-0.624,0.598-1.164,0.72-1.62
							c0.123-0.456,0.175-0.917,0.158-1.383l-0.091-1.886l2.194-0.105l0.074,1.747c0.027,0.705-0.117,1.421-0.435,2.146
							C450.922,387.031,450.497,387.637,449.965,388.122z M450.008,373.786c0.454-0.022,0.81,0.09,1.07,0.334
							c0.259,0.244,0.398,0.56,0.417,0.945c0.019,0.379-0.09,0.7-0.325,0.961c-0.236,0.261-0.58,0.402-1.034,0.425
							c-0.434,0.021-0.784-0.086-1.05-0.32c-0.265-0.233-0.407-0.544-0.426-0.93s0.09-0.713,0.324-0.98
							S449.56,373.807,450.008,373.786z"/>
						<path style="fill:#313333;" d="M464.525,375.542c-0.321-0.037-0.653-0.049-0.993-0.032c-1.115,0.053-1.846,0.516-2.192,1.386
							l0.355,7.385l-2.434,0.116l-0.521-10.798l2.323-0.11l0.119,1.204c0.542-0.967,1.334-1.475,2.375-1.524
							c0.348-0.017,0.638,0.017,0.868,0.099L464.525,375.542z"/>
						<path style="fill:#313333;" d="M471.259,384.023c-1.542,0.074-2.815-0.352-3.821-1.273c-1.004-0.921-1.545-2.188-1.623-3.799
							l-0.015-0.3c-0.052-1.077,0.111-2.05,0.487-2.917c0.377-0.869,0.931-1.557,1.662-2.066c0.731-0.508,1.561-0.785,2.489-0.829
							c1.476-0.07,2.638,0.344,3.488,1.243c0.85,0.9,1.315,2.208,1.398,3.925l0.047,0.978l-7.08,0.339
							c0.116,0.888,0.449,1.58,0.998,2.073c0.55,0.494,1.221,0.722,2.016,0.684c1.115-0.053,2.001-0.546,2.66-1.477l1.371,1.184
							c-0.402,0.666-0.958,1.194-1.666,1.585C472.965,383.763,472.16,383.98,471.259,384.023z M470.522,374.785
							c-0.668,0.032-1.195,0.291-1.583,0.776s-0.619,1.147-0.692,1.984l4.637-0.222l-0.009-0.181
							c-0.093-0.809-0.339-1.413-0.739-1.81C471.735,374.935,471.197,374.753,470.522,374.785z"/>
						<path style="fill:#313333;" d="M480.072,383.401l-2.434,0.116l-0.738-15.329l2.434-0.116L480.072,383.401z"/>
						<path style="fill:#313333;" d="M491.184,375.067l-8.633,0.413l-0.098-2.016l8.633-0.413L491.184,375.067z M491.388,379.299
							l-8.633,0.413l-0.097-2.006l8.633-0.413L491.388,379.299z"/>
						<path style="fill:#313333;" d="M503.432,376.981c0.08,1.671-0.235,3.021-0.949,4.052c-0.714,1.031-1.71,1.578-2.992,1.64
							c-1.188,0.058-2.158-0.287-2.911-1.031l0.247,5.119l-2.434,0.116l-0.721-14.949l2.244-0.107l0.152,1.092
							c0.674-0.896,1.624-1.377,2.852-1.436c1.322-0.063,2.383,0.377,3.181,1.322c0.799,0.946,1.24,2.29,1.324,4.033
							L503.432,376.981z M500.999,376.889c-0.053-1.077-0.309-1.922-0.77-2.533c-0.461-0.612-1.093-0.898-1.894-0.86
							c-0.995,0.048-1.689,0.491-2.084,1.33l0.23,4.791c0.481,0.817,1.223,1.201,2.225,1.153c0.773-0.037,1.365-0.377,1.772-1.021
							C500.885,379.106,501.059,378.153,500.999,376.889z"/>
						<path style="fill:#313333;" d="M511.005,373.319c-0.322-0.038-0.654-0.05-0.994-0.033c-1.115,0.054-1.846,0.517-2.191,1.386
							l0.355,7.385l-2.434,0.117l-0.521-10.798l2.323-0.111l0.119,1.204c0.541-0.967,1.333-1.475,2.375-1.524
							c0.348-0.017,0.637,0.017,0.868,0.099L511.005,373.319z"/>
						<path style="fill:#313333;" d="M517.738,381.801c-1.542,0.073-2.815-0.353-3.821-1.274c-1.005-0.921-1.545-2.188-1.623-3.798
							l-0.014-0.3c-0.053-1.077,0.11-2.051,0.486-2.918c0.377-0.868,0.931-1.557,1.662-2.065s1.561-0.785,2.489-0.83
							c1.475-0.07,2.638,0.344,3.488,1.244c0.85,0.899,1.315,2.208,1.398,3.925l0.047,0.978l-7.08,0.338
							c0.116,0.889,0.448,1.58,0.998,2.074c0.549,0.493,1.22,0.722,2.016,0.684c1.114-0.054,2.001-0.546,2.659-1.478l1.372,1.184
							c-0.403,0.666-0.958,1.195-1.666,1.585C519.444,381.539,518.639,381.757,517.738,381.801z M517.002,372.562
							c-0.668,0.031-1.196,0.29-1.583,0.775c-0.389,0.485-0.619,1.147-0.692,1.984l4.636-0.222l-0.009-0.181
							c-0.092-0.809-0.338-1.412-0.739-1.81C518.215,372.713,517.675,372.53,517.002,372.562z"/>
						<path style="fill:#313333;" d="M526.55,381.178l-2.434,0.117l-0.738-15.329l2.434-0.117L526.55,381.178z"/>
						<path style="fill:#313333;" d="M528.48,375.574c-0.052-1.058,0.113-2.021,0.493-2.89c0.38-0.868,0.939-1.549,1.678-2.041
							c0.739-0.491,1.603-0.762,2.591-0.809c1.462-0.07,2.672,0.342,3.629,1.236c0.956,0.896,1.508,2.116,1.656,3.662l0.038,0.567
							c0.051,1.065-0.109,2.026-0.479,2.886c-0.371,0.857-0.927,1.533-1.669,2.03c-0.743,0.494-1.614,0.768-2.615,0.815
							c-1.529,0.073-2.777-0.377-3.744-1.348s-1.491-2.301-1.573-3.991L528.48,375.574z M530.924,375.667
							c0.054,1.112,0.326,1.97,0.816,2.577c0.492,0.605,1.147,0.891,1.969,0.852c0.82-0.04,1.444-0.391,1.872-1.05
							c0.425-0.661,0.609-1.606,0.551-2.838c-0.053-1.091-0.33-1.944-0.831-2.561c-0.502-0.616-1.157-0.905-1.965-0.866
							c-0.795,0.038-1.409,0.382-1.847,1.033S530.863,374.417,530.924,375.667z"/>
						<path style="fill:#313333;" d="M547.352,380.182c-0.117-0.2-0.228-0.532-0.33-0.994c-0.735,0.842-1.664,1.291-2.785,1.345
							c-1.088,0.052-1.992-0.217-2.709-0.802c-0.718-0.585-1.098-1.335-1.142-2.245c-0.056-1.152,0.331-2.055,1.159-2.711
							c0.829-0.658,2.039-1.024,3.635-1.101l1.493-0.071l-0.034-0.708c-0.026-0.56-0.205-0.999-0.535-1.32
							c-0.33-0.32-0.816-0.466-1.457-0.436c-0.555,0.026-1.001,0.188-1.342,0.479c-0.341,0.293-0.5,0.653-0.479,1.078l-2.434,0.116
							c-0.028-0.592,0.142-1.155,0.511-1.69c0.369-0.533,0.885-0.963,1.549-1.288c0.662-0.326,1.412-0.509,2.247-0.549
							c1.269-0.061,2.295,0.21,3.08,0.809c0.785,0.6,1.216,1.474,1.292,2.624l0.234,4.87c0.047,0.972,0.221,1.74,0.521,2.306
							l0.009,0.17L547.352,380.182z M544.593,378.564c0.481-0.022,0.928-0.161,1.341-0.415c0.412-0.252,0.717-0.58,0.911-0.982
							l-0.098-2.036l-1.312,0.062c-0.901,0.043-1.572,0.232-2.011,0.565c-0.439,0.335-0.645,0.789-0.617,1.36
							c0.022,0.466,0.196,0.83,0.52,1.092C543.651,378.471,544.074,378.59,544.593,378.564z"/>
						<path style="fill:#313333;" d="M551.255,374.504c-0.08-1.663,0.243-3.017,0.969-4.062c0.726-1.045,1.739-1.598,3.041-1.66
							c1.148-0.055,2.097,0.3,2.842,1.065l-0.266-5.529l2.434-0.117l0.738,15.329l-2.203,0.105l-0.174-1.112
							c-0.686,0.913-1.636,1.399-2.852,1.458c-1.268,0.061-2.318-0.4-3.153-1.38C551.798,377.62,551.339,376.254,551.255,374.504z
							 M553.698,374.598c0.053,1.098,0.306,1.945,0.761,2.539c0.452,0.595,1.069,0.875,1.852,0.838
							c0.994-0.048,1.701-0.525,2.119-1.432l-0.223-4.611c-0.488-0.844-1.231-1.241-2.226-1.194
							c-0.788,0.038-1.38,0.378-1.777,1.021C553.806,372.401,553.637,373.348,553.698,374.598z"/>
						<path style="fill:#313333;" d="M284.93,414.128l6.619-0.316l0.097,2.016l-9.153,0.438l-0.7-14.531l2.534-0.121L284.93,414.128
							z"/>
						<path style="fill:#313333;" d="M292.704,402.142c-0.018-0.372,0.086-0.688,0.312-0.946c0.226-0.256,0.558-0.396,0.999-0.416
							c0.44-0.021,0.787,0.085,1.038,0.319c0.253,0.235,0.389,0.539,0.406,0.911c0.018,0.366-0.088,0.677-0.317,0.931
							c-0.228,0.254-0.562,0.392-1.003,0.413c-0.441,0.021-0.785-0.084-1.034-0.316
							C292.855,402.807,292.721,402.509,292.704,402.142z M295.943,415.621l-2.434,0.116l-0.521-10.798l2.434-0.116L295.943,415.621
							z"/>
						<path style="fill:#313333;" d="M300.331,404.589l0.13,1.244c0.755-1.003,1.784-1.536,3.086-1.599
							c2.257-0.108,3.467,1.125,3.631,3.698l0.344,7.135l-2.434,0.116l-0.337-6.996c-0.033-0.686-0.206-1.185-0.52-1.5
							c-0.312-0.314-0.806-0.457-1.479-0.424c-0.982,0.047-1.692,0.523-2.131,1.432l0.37,7.685l-2.434,0.116l-0.52-10.798
							L300.331,404.589z"/>
						<path style="fill:#313333;" d="M313.298,410.15l-1.029,1.158l0.17,3.523l-2.434,0.116l-0.738-15.329l2.434-0.116l0.426,8.843
							l0.715-0.984l2.834-3.507l2.924-0.14l-3.809,4.693l4.76,6.084l-2.814,0.135L313.298,410.15z"/>
						<path style="fill:#313333;" d="M321.641,403.338c0.454-0.021,0.811,0.091,1.069,0.335c0.26,0.245,0.399,0.56,0.418,0.946
							c0.018,0.378-0.091,0.699-0.326,0.961c-0.234,0.26-0.578,0.401-1.032,0.423c-0.435,0.021-0.784-0.085-1.05-0.318
							c-0.266-0.235-0.407-0.545-0.426-0.93c-0.019-0.387,0.089-0.713,0.324-0.982C320.852,403.505,321.194,403.359,321.641,403.338
							z M322.05,411.811c0.454-0.021,0.811,0.09,1.069,0.335c0.26,0.243,0.399,0.56,0.418,0.945c0.018,0.379-0.091,0.699-0.326,0.96
							c-0.234,0.262-0.578,0.403-1.032,0.425c-0.435,0.021-0.785-0.086-1.05-0.32c-0.266-0.233-0.407-0.543-0.426-0.929
							s0.089-0.714,0.324-0.981C321.26,411.977,321.602,411.833,322.05,411.811z"/>
						<path style="fill:#313333;" d="M332.806,407.547l6.016,1.952l0.116,2.425l-8.561-3.32l-0.093-1.927l8.203-4.114l0.116,2.425
							L332.806,407.547z"/>
						<path style="fill:#313333;" d="M342.423,414.648l-1.912,0.092l4.977-16.054l1.913-0.092L342.423,414.648z"/>
						<path style="fill:#313333;" d="M355.049,404.191c-0.323-0.037-0.655-0.049-0.995-0.033c-1.115,0.054-1.846,0.517-2.192,1.387
							l0.355,7.385l-2.434,0.116l-0.521-10.798l2.324-0.111l0.119,1.205c0.542-0.967,1.334-1.475,2.376-1.525
							c0.347-0.016,0.636,0.017,0.868,0.099L355.049,404.191z"/>
						<path style="fill:#313333;" d="M361.78,412.673c-1.542,0.073-2.814-0.351-3.82-1.272c-1.004-0.923-1.546-2.189-1.623-3.8
							l-0.015-0.299c-0.052-1.078,0.11-2.051,0.487-2.919c0.376-0.868,0.93-1.557,1.663-2.065c0.73-0.509,1.561-0.785,2.489-0.829
							c1.475-0.071,2.638,0.344,3.487,1.244c0.85,0.899,1.315,2.207,1.397,3.924l0.048,0.979l-7.08,0.339
							c0.116,0.888,0.449,1.579,0.997,2.072c0.551,0.494,1.222,0.722,2.017,0.684c1.115-0.054,2.001-0.546,2.659-1.478l1.372,1.184
							c-0.403,0.668-0.958,1.195-1.666,1.586C363.486,412.412,362.681,412.63,361.78,412.673z M361.046,403.434
							c-0.669,0.032-1.197,0.291-1.584,0.775c-0.389,0.486-0.62,1.147-0.693,1.985l4.637-0.222l-0.009-0.181
							c-0.093-0.81-0.339-1.412-0.739-1.811C362.257,403.586,361.719,403.402,361.046,403.434z"/>
						<path style="fill:#313333;" d="M371.549,408.925l1.921-7.835l2.514-0.12l-3.236,10.978l-2.112,0.102l-4.306-10.617
							l2.523-0.121L371.549,408.925z"/>
						<path style="fill:#313333;" d="M377.369,398.093c-0.018-0.372,0.087-0.688,0.312-0.946c0.226-0.256,0.558-0.396,0.999-0.417
							c0.44-0.021,0.787,0.086,1.038,0.319c0.254,0.236,0.389,0.54,0.406,0.912c0.018,0.366-0.088,0.677-0.317,0.93
							c-0.228,0.255-0.562,0.393-1.003,0.413c-0.441,0.021-0.785-0.083-1.034-0.315C377.52,398.758,377.386,398.459,377.369,398.093
							z M380.608,411.571l-2.434,0.116l-0.52-10.798l2.434-0.116L380.608,411.571z"/>
						<path style="fill:#313333;" d="M388.04,411.417c-1.543,0.073-2.815-0.352-3.821-1.273c-1.004-0.922-1.545-2.188-1.622-3.799
							l-0.015-0.299c-0.052-1.078,0.109-2.052,0.486-2.919c0.376-0.868,0.931-1.557,1.663-2.065c0.73-0.509,1.561-0.785,2.489-0.83
							c1.475-0.07,2.638,0.345,3.487,1.245c0.85,0.898,1.316,2.207,1.398,3.924l0.048,0.979l-7.08,0.338
							c0.116,0.889,0.448,1.579,0.997,2.073c0.55,0.494,1.221,0.722,2.016,0.684c1.115-0.054,2.001-0.546,2.659-1.478l1.373,1.184
							c-0.404,0.667-0.959,1.195-1.666,1.586S388.941,411.373,388.04,411.417z M387.304,402.179
							c-0.668,0.032-1.197,0.291-1.584,0.775c-0.389,0.486-0.619,1.147-0.692,1.985l4.636-0.223l-0.009-0.181
							c-0.093-0.809-0.338-1.411-0.739-1.81C388.516,402.33,387.978,402.146,387.304,402.179z"/>
						<path style="fill:#313333;" d="M403.622,407.12l1.363-7.537l2.373-0.114l-2.434,10.939l-2.003,0.096l-2.681-7.304
							l-1.926,7.524l-2.003,0.096l-3.485-10.656l2.375-0.113l2.107,7.291l1.867-7.481l1.834-0.088L403.622,407.12z"/>
						<path style="fill:#313333;" d="M415.438,406.965c-0.021-0.433-0.214-0.753-0.582-0.963c-0.368-0.209-0.971-0.38-1.808-0.514
							c-0.835-0.133-1.537-0.319-2.104-0.56c-1.244-0.526-1.892-1.347-1.945-2.458c-0.045-0.932,0.311-1.729,1.068-2.392
							c0.758-0.662,1.744-1.023,2.96-1.082c1.295-0.062,2.356,0.208,3.186,0.808c0.828,0.601,1.268,1.41,1.316,2.429l-2.434,0.116
							c-0.021-0.465-0.215-0.846-0.577-1.137c-0.361-0.293-0.83-0.427-1.404-0.399c-0.535,0.025-0.964,0.171-1.29,0.433
							c-0.323,0.262-0.477,0.6-0.457,1.012c0.019,0.373,0.189,0.654,0.512,0.846c0.324,0.191,0.968,0.369,1.934,0.533
							c0.965,0.163,1.726,0.377,2.284,0.642c0.559,0.262,0.979,0.591,1.262,0.984c0.284,0.393,0.44,0.88,0.468,1.458
							c0.047,0.972-0.319,1.777-1.098,2.418c-0.78,0.641-1.824,0.993-3.132,1.056c-0.888,0.042-1.688-0.08-2.397-0.365
							c-0.709-0.287-1.271-0.7-1.687-1.241c-0.413-0.54-0.636-1.133-0.667-1.778l2.363-0.113c0.062,0.571,0.3,1.002,0.716,1.292
							c0.415,0.29,0.952,0.42,1.614,0.388c0.641-0.03,1.121-0.176,1.444-0.434C415.306,407.682,415.458,407.357,415.438,406.965z"/>
						<path style="fill:#313333;" d="M420.838,410.898l-1.911,0.091l4.977-16.054l1.913-0.092L420.838,410.898z"/>
						<path style="fill:#313333;" d="M434.638,408.987l-2.424,0.115l-0.562-11.673l-3.517,1.386l-0.098-2.036l5.587-2.357
							l0.312-0.015L434.638,408.987z"/>
						<path style="fill:#313333;" d="M445.78,402.093l-6.299-1.971l-0.114-2.385l8.832,3.299l0.093,1.927l-8.475,4.126l-0.115-2.385
							L445.78,402.093z"/>
						<path style="fill:#313333;" d="M451.22,411.474l-1.351-0.716c0.358-0.624,0.599-1.163,0.721-1.62
							c0.122-0.455,0.176-0.916,0.159-1.383l-0.091-1.886l2.193-0.104l0.075,1.746c0.026,0.706-0.118,1.421-0.436,2.146
							C452.176,410.385,451.752,410.989,451.22,411.474z M451.262,397.138c0.454-0.021,0.811,0.091,1.07,0.335
							c0.26,0.245,0.398,0.56,0.417,0.946c0.018,0.378-0.09,0.699-0.325,0.961c-0.236,0.26-0.579,0.401-1.033,0.423
							c-0.434,0.021-0.784-0.086-1.051-0.318c-0.265-0.235-0.406-0.546-0.425-0.931c-0.019-0.387,0.09-0.713,0.323-0.981
							C450.473,397.305,450.815,397.159,451.262,397.138z"/>
						<path style="fill:#313333;" d="M465.781,398.894c-0.322-0.037-0.654-0.049-0.995-0.033c-1.114,0.054-1.845,0.517-2.191,1.387
							l0.355,7.385l-2.434,0.116l-0.52-10.798l2.322-0.111l0.119,1.205c0.542-0.967,1.334-1.475,2.376-1.524
							c0.348-0.017,0.637,0.017,0.868,0.098L465.781,398.894z"/>
						<path style="fill:#313333;" d="M472.513,407.376c-1.542,0.073-2.815-0.351-3.821-1.272c-1.004-0.923-1.545-2.189-1.622-3.8
							l-0.015-0.299c-0.052-1.078,0.11-2.051,0.486-2.919c0.377-0.868,0.931-1.557,1.663-2.065c0.73-0.509,1.561-0.785,2.489-0.829
							c1.475-0.071,2.638,0.344,3.487,1.244c0.85,0.899,1.316,2.207,1.399,3.924l0.047,0.979l-7.08,0.339
							c0.116,0.888,0.449,1.579,0.997,2.072c0.55,0.494,1.222,0.722,2.017,0.684c1.114-0.054,2-0.546,2.659-1.478l1.372,1.184
							c-0.403,0.668-0.959,1.195-1.666,1.586S473.415,407.333,472.513,407.376z M471.778,398.138
							c-0.668,0.032-1.196,0.291-1.584,0.775c-0.388,0.486-0.619,1.147-0.692,1.985l4.637-0.222l-0.009-0.181
							c-0.093-0.81-0.339-1.412-0.74-1.811C472.99,398.289,472.452,398.105,471.778,398.138z"/>
						<path style="fill:#313333;" d="M481.327,406.754l-2.435,0.116l-0.738-15.329l2.435-0.116L481.327,406.754z"/>
						<path style="fill:#313333;" d="M492.439,398.42l-8.633,0.413l-0.097-2.016l8.633-0.413L492.439,398.42z M492.643,402.651
							l-8.633,0.413l-0.097-2.006l8.633-0.413L492.643,402.651z"/>
						<path style="fill:#313333;" d="M504.687,400.334c0.081,1.671-0.236,3.021-0.949,4.053c-0.714,1.031-1.711,1.577-2.992,1.639
							c-1.188,0.057-2.159-0.287-2.911-1.031l0.247,5.119l-2.434,0.116l-0.72-14.949l2.242-0.107l0.154,1.093
							c0.672-0.898,1.623-1.378,2.852-1.438c1.321-0.062,2.382,0.379,3.18,1.324c0.799,0.944,1.24,2.29,1.324,4.033L504.687,400.334
							z M502.254,400.242c-0.052-1.078-0.308-1.924-0.77-2.535c-0.461-0.611-1.092-0.897-1.893-0.859
							c-0.995,0.047-1.689,0.49-2.085,1.33l0.23,4.791c0.482,0.816,1.224,1.201,2.226,1.153c0.773-0.037,1.364-0.377,1.771-1.021
							S502.314,401.506,502.254,400.242z"/>
						<path style="fill:#313333;" d="M512.26,396.671c-0.323-0.037-0.654-0.049-0.995-0.032c-1.115,0.053-1.846,0.516-2.191,1.386
							l0.355,7.385l-2.434,0.116l-0.521-10.798l2.324-0.11l0.118,1.205c0.542-0.967,1.334-1.476,2.376-1.525
							c0.348-0.017,0.636,0.017,0.867,0.099L512.26,396.671z"/>
						<path style="fill:#313333;" d="M518.993,405.152c-1.543,0.074-2.815-0.351-3.821-1.272c-1.004-0.922-1.545-2.189-1.622-3.8
							l-0.015-0.299c-0.052-1.078,0.109-2.051,0.486-2.918c0.376-0.869,0.931-1.558,1.663-2.066c0.73-0.508,1.561-0.785,2.489-0.829
							c1.475-0.07,2.638,0.345,3.487,1.244s1.315,2.207,1.398,3.924l0.047,0.979l-7.079,0.339c0.116,0.888,0.448,1.579,0.997,2.072
							c0.55,0.494,1.221,0.722,2.016,0.684c1.115-0.053,2.001-0.546,2.659-1.477l1.373,1.184c-0.404,0.667-0.959,1.194-1.666,1.586
							C520.699,404.891,519.894,405.109,518.993,405.152z M518.258,395.914c-0.668,0.032-1.197,0.291-1.584,0.776
							c-0.389,0.486-0.619,1.147-0.692,1.984l4.636-0.222l-0.009-0.181c-0.093-0.809-0.338-1.412-0.739-1.81
							C519.468,396.066,518.931,395.882,518.258,395.914z"/>
						<path style="fill:#313333;" d="M527.805,404.53l-2.434,0.116l-0.738-15.329l2.434-0.116L527.805,404.53z"/>
						<path style="fill:#313333;" d="M529.735,398.928c-0.051-1.059,0.113-2.022,0.493-2.891c0.379-0.868,0.939-1.549,1.678-2.041
							c0.739-0.491,1.604-0.762,2.592-0.81c1.462-0.069,2.672,0.343,3.628,1.238c0.956,0.894,1.509,2.114,1.656,3.661l0.038,0.567
							c0.052,1.065-0.108,2.026-0.479,2.885c-0.371,0.857-0.927,1.534-1.669,2.031c-0.742,0.494-1.614,0.767-2.615,0.814
							c-1.529,0.073-2.777-0.375-3.744-1.347c-0.967-0.971-1.491-2.3-1.572-3.99L529.735,398.928z M532.178,399.018
							c0.054,1.112,0.326,1.971,0.816,2.577c0.491,0.607,1.148,0.891,1.97,0.852c0.82-0.039,1.444-0.389,1.871-1.05
							c0.426-0.66,0.61-1.605,0.551-2.836c-0.053-1.092-0.33-1.946-0.831-2.562c-0.502-0.615-1.156-0.904-1.964-0.866
							c-0.795,0.038-1.411,0.384-1.848,1.034C532.306,396.818,532.119,397.768,532.178,399.018z"/>
						<path style="fill:#313333;" d="M548.607,403.535c-0.117-0.201-0.228-0.532-0.33-0.994c-0.735,0.842-1.664,1.29-2.785,1.344
							c-1.088,0.052-1.991-0.216-2.709-0.801c-0.717-0.586-1.098-1.335-1.142-2.246c-0.056-1.151,0.331-2.055,1.158-2.711
							c0.829-0.656,2.041-1.023,3.637-1.1l1.492-0.071l-0.034-0.708c-0.027-0.559-0.205-1-0.534-1.32
							c-0.331-0.321-0.816-0.466-1.457-0.436c-0.555,0.026-1.001,0.187-1.343,0.48c-0.34,0.292-0.5,0.652-0.479,1.077l-2.434,0.116
							c-0.028-0.592,0.142-1.155,0.511-1.69c0.369-0.533,0.886-0.964,1.549-1.289s1.412-0.508,2.247-0.548
							c1.27-0.061,2.295,0.209,3.081,0.808c0.784,0.601,1.215,1.475,1.291,2.625l0.234,4.87c0.047,0.972,0.22,1.74,0.522,2.305
							l0.008,0.17L548.607,403.535z M545.848,401.917c0.481-0.022,0.928-0.162,1.341-0.414c0.412-0.253,0.717-0.582,0.911-0.983
							l-0.099-2.036l-1.312,0.062c-0.901,0.043-1.571,0.231-2.011,0.566c-0.438,0.334-0.644,0.788-0.616,1.359
							c0.022,0.467,0.195,0.829,0.52,1.091C544.906,401.823,545.329,401.942,545.848,401.917z"/>
						<path style="fill:#313333;" d="M552.509,397.857c-0.08-1.663,0.243-3.018,0.969-4.063c0.726-1.044,1.74-1.599,3.042-1.66
							c1.148-0.056,2.096,0.3,2.842,1.064l-0.267-5.529l2.434-0.116l0.738,15.329l-2.203,0.105l-0.174-1.111
							c-0.686,0.911-1.636,1.398-2.852,1.457c-1.268,0.061-2.318-0.399-3.152-1.381
							C553.053,400.973,552.593,399.607,552.509,397.857z M554.953,397.95c0.053,1.098,0.307,1.944,0.76,2.539
							c0.453,0.596,1.071,0.874,1.853,0.837c0.995-0.048,1.701-0.524,2.119-1.432l-0.222-4.611
							c-0.489-0.843-1.231-1.241-2.226-1.193c-0.788,0.038-1.381,0.379-1.778,1.021C555.061,395.753,554.893,396.7,554.953,397.95z"
							/>
						<path style="fill:#313333;" d="M286.055,437.486l6.619-0.316l0.098,2.016l-9.154,0.438l-0.699-14.53l2.534-0.121
							L286.055,437.486z"/>
						<path style="fill:#313333;" d="M293.829,425.502c-0.018-0.373,0.087-0.688,0.312-0.946c0.226-0.257,0.557-0.396,0.998-0.417
							c0.44-0.021,0.788,0.085,1.039,0.32c0.253,0.234,0.388,0.538,0.405,0.911c0.019,0.365-0.087,0.676-0.316,0.929
							c-0.228,0.255-0.563,0.393-1.004,0.414c-0.441,0.021-0.784-0.084-1.033-0.316
							C293.981,426.166,293.847,425.867,293.829,425.502z M297.069,438.979l-2.434,0.116l-0.521-10.798l2.434-0.116L297.069,438.979
							z"/>
						<path style="fill:#313333;" d="M301.456,427.947l0.13,1.244c0.756-1.003,1.784-1.536,3.086-1.599
							c2.257-0.108,3.467,1.125,3.632,3.698l0.344,7.135l-2.434,0.116l-0.338-6.995c-0.032-0.686-0.205-1.186-0.52-1.5
							c-0.312-0.315-0.806-0.458-1.479-0.426c-0.982,0.048-1.691,0.525-2.131,1.434l0.37,7.684l-2.434,0.116l-0.52-10.798
							L301.456,427.947z"/>
						<path style="fill:#313333;" d="M314.423,433.509l-1.028,1.159l0.169,3.522l-2.434,0.116l-0.738-15.328l2.434-0.116
							l0.426,8.842l0.716-0.984l2.833-3.507l2.924-0.14l-3.809,4.693l4.76,6.084l-2.814,0.135L314.423,433.509z"/>
						<path style="fill:#313333;" d="M322.766,426.697c0.454-0.021,0.812,0.09,1.069,0.334c0.26,0.245,0.399,0.56,0.418,0.946
							c0.019,0.378-0.091,0.699-0.325,0.961c-0.234,0.26-0.579,0.401-1.033,0.423c-0.435,0.021-0.784-0.086-1.049-0.318
							c-0.266-0.235-0.408-0.545-0.427-0.93c-0.019-0.387,0.089-0.713,0.324-0.982C321.978,426.863,322.319,426.719,322.766,426.697
							z M323.175,435.17c0.454-0.021,0.812,0.09,1.069,0.335c0.26,0.244,0.399,0.56,0.418,0.945
							c0.019,0.379-0.091,0.699-0.326,0.961c-0.233,0.261-0.578,0.402-1.032,0.424c-0.435,0.021-0.784-0.087-1.049-0.319
							c-0.266-0.234-0.408-0.544-0.427-0.93s0.089-0.713,0.324-0.981C322.386,435.336,322.727,435.191,323.175,435.17z"/>
						<path style="fill:#313333;" d="M333.931,430.905l6.016,1.952l0.117,2.425l-8.562-3.32l-0.093-1.927l8.203-4.114l0.117,2.426
							L333.931,430.905z"/>
						<path style="fill:#313333;" d="M343.548,438.008l-1.912,0.091l4.978-16.053l1.913-0.092L343.548,438.008z"/>
						<path style="fill:#313333;" d="M356.174,427.551c-0.323-0.037-0.655-0.049-0.995-0.033c-1.115,0.054-1.846,0.516-2.192,1.386
							l0.356,7.385l-2.434,0.116l-0.521-10.798l2.324-0.111l0.118,1.205c0.542-0.967,1.334-1.475,2.376-1.524
							c0.347-0.018,0.636,0.016,0.868,0.098L356.174,427.551z"/>
						<path style="fill:#313333;" d="M362.905,436.031c-1.542,0.073-2.814-0.351-3.819-1.273c-1.005-0.922-1.547-2.188-1.624-3.799
							l-0.015-0.299c-0.052-1.078,0.11-2.051,0.488-2.919c0.376-0.868,0.929-1.557,1.662-2.064c0.731-0.51,1.561-0.786,2.489-0.831
							c1.475-0.07,2.638,0.345,3.487,1.245c0.851,0.9,1.315,2.207,1.398,3.924l0.047,0.979l-7.08,0.339
							c0.116,0.888,0.449,1.578,0.997,2.072c0.551,0.494,1.222,0.722,2.017,0.684c1.115-0.054,2.002-0.546,2.659-1.477l1.372,1.184
							c-0.402,0.666-0.958,1.194-1.666,1.585C364.612,435.77,363.806,435.988,362.905,436.031z M362.171,426.793
							c-0.669,0.032-1.197,0.291-1.584,0.775c-0.389,0.486-0.62,1.147-0.693,1.985l4.637-0.222l-0.008-0.181
							c-0.093-0.81-0.34-1.412-0.739-1.81C363.382,426.944,362.844,426.761,362.171,426.793z"/>
						<path style="fill:#313333;" d="M372.674,432.283l1.921-7.835l2.514-0.12l-3.236,10.978l-2.111,0.102l-4.307-10.617
							l2.523-0.121L372.674,432.283z"/>
						<path style="fill:#313333;" d="M378.494,421.452c-0.018-0.373,0.087-0.688,0.312-0.946c0.226-0.257,0.557-0.396,0.998-0.418
							c0.44-0.021,0.788,0.086,1.039,0.32c0.253,0.235,0.388,0.539,0.405,0.912c0.019,0.365-0.087,0.676-0.316,0.929
							c-0.229,0.255-0.563,0.393-1.004,0.413c-0.441,0.021-0.785-0.083-1.033-0.315
							C378.646,422.116,378.512,421.817,378.494,421.452z M381.733,434.93l-2.434,0.116l-0.52-10.798l2.434-0.116L381.733,434.93z"
							/>
						<path style="fill:#313333;" d="M389.165,434.775c-1.543,0.073-2.815-0.352-3.82-1.273s-1.546-2.188-1.623-3.799l-0.015-0.299
							c-0.052-1.078,0.11-2.052,0.487-2.919c0.376-0.868,0.93-1.557,1.662-2.064c0.731-0.51,1.561-0.786,2.489-0.831
							c1.475-0.07,2.638,0.345,3.487,1.245c0.851,0.899,1.316,2.207,1.399,3.924l0.047,0.979l-7.08,0.338
							c0.116,0.889,0.448,1.579,0.997,2.073c0.55,0.494,1.221,0.722,2.016,0.684c1.115-0.054,2.002-0.546,2.659-1.478l1.373,1.185
							c-0.403,0.666-0.959,1.194-1.666,1.585C390.872,434.514,390.066,434.731,389.165,434.775z M388.429,425.537
							c-0.668,0.031-1.197,0.291-1.584,0.775c-0.389,0.486-0.619,1.147-0.692,1.984l4.636-0.222l-0.008-0.181
							c-0.093-0.809-0.339-1.411-0.739-1.81C389.641,425.688,389.103,425.505,388.429,425.537z"/>
						<path style="fill:#313333;" d="M404.748,430.478l1.363-7.537l2.373-0.114l-2.435,10.939l-2.002,0.096l-2.681-7.304
							l-1.927,7.524l-2.002,0.096l-3.485-10.656l2.374-0.113l2.108,7.291l1.867-7.481l1.833-0.088L404.748,430.478z"/>
						<path style="fill:#313333;" d="M416.564,430.323c-0.021-0.433-0.215-0.753-0.583-0.963c-0.368-0.209-0.971-0.379-1.808-0.514
							c-0.835-0.133-1.537-0.319-2.104-0.559c-1.244-0.528-1.892-1.348-1.945-2.458c-0.044-0.932,0.311-1.729,1.068-2.393
							c0.758-0.662,1.744-1.023,2.96-1.082c1.295-0.062,2.357,0.208,3.186,0.808c0.829,0.602,1.269,1.411,1.317,2.429l-2.434,0.116
							c-0.022-0.465-0.215-0.846-0.578-1.138c-0.361-0.293-0.829-0.426-1.403-0.398c-0.535,0.025-0.964,0.171-1.29,0.433
							c-0.324,0.263-0.478,0.6-0.457,1.013c0.018,0.372,0.188,0.653,0.511,0.846c0.325,0.19,0.969,0.367,1.934,0.532
							c0.965,0.164,1.727,0.377,2.284,0.642c0.559,0.263,0.979,0.591,1.263,0.984c0.284,0.393,0.439,0.88,0.467,1.458
							c0.047,0.972-0.319,1.777-1.098,2.418c-0.779,0.642-1.824,0.993-3.132,1.056c-0.888,0.042-1.688-0.08-2.396-0.365
							c-0.71-0.287-1.272-0.699-1.687-1.241c-0.414-0.54-0.637-1.132-0.667-1.778l2.363-0.113c0.061,0.572,0.3,1.002,0.715,1.292
							c0.415,0.291,0.953,0.42,1.615,0.388c0.641-0.03,1.121-0.176,1.444-0.434C416.432,431.041,416.583,430.716,416.564,430.323z"
							/>
						<path style="fill:#313333;" d="M421.963,434.256l-1.911,0.092l4.978-16.053l1.913-0.092L421.963,434.256z"/>
						<path style="fill:#313333;" d="M438.977,432.191l-9.803,0.469l-0.081-1.667l4.603-5.511c0.663-0.812,1.132-1.486,1.403-2.022
							c0.272-0.536,0.396-1.068,0.37-1.594c-0.033-0.691-0.256-1.241-0.666-1.647c-0.412-0.408-0.947-0.595-1.608-0.563
							c-0.788,0.038-1.387,0.306-1.798,0.806s-0.598,1.165-0.558,1.997l-2.433,0.116c-0.042-0.885,0.121-1.691,0.49-2.419
							c0.37-0.728,0.921-1.306,1.653-1.734c0.733-0.428,1.59-0.666,2.57-0.713c1.416-0.067,2.549,0.232,3.4,0.902
							c0.854,0.67,1.31,1.63,1.369,2.88c0.035,0.726-0.133,1.495-0.505,2.31c-0.373,0.815-1.002,1.75-1.889,2.807l-3.382,3.974
							l6.77-0.324L438.977,432.191z"/>
						<path style="fill:#313333;" d="M446.905,425.451l-6.298-1.97l-0.115-2.386l8.832,3.299l0.093,1.927l-8.475,4.126l-0.114-2.385
							L446.905,425.451z"/>
						<path style="fill:#313333;" d="M452.345,434.834l-1.35-0.717c0.358-0.624,0.599-1.163,0.721-1.62
							c0.121-0.455,0.175-0.916,0.158-1.383l-0.091-1.886l2.194-0.104l0.074,1.746c0.027,0.706-0.117,1.421-0.435,2.147
							C453.302,433.743,452.877,434.348,452.345,434.834z M452.387,420.497c0.454-0.021,0.811,0.09,1.07,0.334
							c0.26,0.245,0.398,0.56,0.417,0.946c0.019,0.378-0.09,0.699-0.325,0.961c-0.235,0.26-0.579,0.401-1.033,0.423
							c-0.434,0.021-0.784-0.086-1.05-0.318c-0.265-0.235-0.407-0.546-0.426-0.931c-0.019-0.387,0.09-0.713,0.323-0.981
							C451.599,420.663,451.94,420.518,452.387,420.497z"/>
						<path style="fill:#313333;" d="M466.906,422.254c-0.321-0.037-0.654-0.049-0.995-0.033c-1.114,0.054-1.845,0.516-2.191,1.386
							l0.355,7.385l-2.434,0.116l-0.52-10.798l2.323-0.111l0.118,1.205c0.542-0.967,1.334-1.475,2.376-1.524
							c0.348-0.018,0.637,0.016,0.868,0.098L466.906,422.254z"/>
						<path style="fill:#313333;" d="M473.638,430.734c-1.542,0.073-2.815-0.351-3.82-1.272c-1.005-0.923-1.546-2.188-1.623-3.8
							l-0.015-0.299c-0.052-1.078,0.111-2.051,0.487-2.919c0.377-0.868,0.93-1.557,1.662-2.064c0.731-0.51,1.561-0.786,2.489-0.83
							c1.475-0.071,2.638,0.344,3.487,1.244c0.851,0.9,1.316,2.207,1.399,3.924l0.047,0.979l-7.08,0.339
							c0.116,0.888,0.449,1.578,0.997,2.072c0.55,0.494,1.222,0.722,2.017,0.684c1.114-0.054,2.001-0.546,2.659-1.477l1.372,1.184
							c-0.402,0.666-0.959,1.194-1.666,1.585C475.345,430.473,474.54,430.691,473.638,430.734z M472.903,421.496
							c-0.668,0.032-1.196,0.291-1.584,0.775c-0.388,0.486-0.619,1.147-0.692,1.985l4.637-0.222l-0.008-0.181
							c-0.093-0.81-0.34-1.412-0.74-1.81S473.577,421.464,472.903,421.496z"/>
						<path style="fill:#313333;" d="M482.452,430.112l-2.434,0.116l-0.739-15.328l2.435-0.116L482.452,430.112z"/>
						<path style="fill:#313333;" d="M493.565,421.779l-8.633,0.413l-0.098-2.017l8.633-0.413L493.565,421.779z M493.768,426.011
							l-8.633,0.413l-0.097-2.007l8.633-0.413L493.768,426.011z"/>
						<path style="fill:#313333;" d="M505.813,423.693c0.08,1.671-0.236,3.021-0.949,4.052c-0.714,1.031-1.712,1.577-2.993,1.639
							c-1.188,0.057-2.159-0.286-2.91-1.03l0.246,5.118l-2.434,0.116l-0.72-14.949l2.243-0.107l0.153,1.093
							c0.672-0.898,1.623-1.378,2.852-1.438c1.321-0.062,2.382,0.379,3.181,1.324c0.798,0.945,1.239,2.29,1.323,4.033
							L505.813,423.693z M503.379,423.6c-0.052-1.078-0.308-1.924-0.769-2.535s-1.093-0.897-1.894-0.859
							c-0.995,0.048-1.689,0.491-2.085,1.331l0.231,4.79c0.481,0.816,1.223,1.201,2.225,1.153c0.773-0.037,1.364-0.377,1.772-1.02
							C503.266,425.816,503.44,424.864,503.379,423.6z"/>
						<path style="fill:#313333;" d="M513.385,420.03c-0.322-0.037-0.654-0.049-0.995-0.032c-1.115,0.053-1.846,0.515-2.191,1.385
							l0.356,7.385l-2.434,0.116l-0.521-10.798l2.323-0.111l0.118,1.206c0.542-0.967,1.334-1.476,2.376-1.525
							c0.348-0.017,0.636,0.017,0.868,0.099L513.385,420.03z"/>
						<path style="fill:#313333;" d="M520.118,428.511c-1.543,0.074-2.815-0.351-3.82-1.272s-1.546-2.188-1.623-3.8l-0.015-0.299
							c-0.052-1.078,0.11-2.051,0.487-2.918c0.376-0.869,0.93-1.558,1.662-2.065c0.731-0.509,1.561-0.786,2.489-0.83
							c1.475-0.07,2.638,0.345,3.487,1.244c0.851,0.9,1.315,2.207,1.398,3.924l0.047,0.979l-7.079,0.339
							c0.116,0.888,0.448,1.579,0.997,2.072c0.55,0.495,1.221,0.722,2.016,0.684c1.115-0.053,2.002-0.546,2.659-1.477l1.373,1.185
							c-0.403,0.666-0.959,1.193-1.666,1.585C521.825,428.25,521.019,428.468,520.118,428.511z M519.383,419.272
							c-0.668,0.032-1.197,0.292-1.584,0.776c-0.389,0.486-0.619,1.147-0.692,1.984l4.636-0.222l-0.008-0.181
							c-0.093-0.809-0.339-1.412-0.739-1.81C520.593,419.424,520.056,419.24,519.383,419.272z"/>
						<path style="fill:#313333;" d="M528.93,427.889l-2.434,0.116l-0.738-15.328l2.434-0.116L528.93,427.889z"/>
						<path style="fill:#313333;" d="M530.86,422.286c-0.051-1.059,0.113-2.022,0.493-2.891c0.379-0.868,0.939-1.549,1.679-2.04
							c0.738-0.492,1.603-0.763,2.591-0.811c1.462-0.069,2.672,0.344,3.628,1.238c0.957,0.895,1.509,2.114,1.656,3.661l0.039,0.568
							c0.051,1.064-0.109,2.025-0.479,2.884c-0.37,0.857-0.926,1.535-1.669,2.031c-0.742,0.494-1.614,0.767-2.615,0.814
							c-1.529,0.073-2.777-0.375-3.744-1.347c-0.967-0.971-1.49-2.3-1.572-3.99L530.86,422.286z M533.304,422.378
							c0.053,1.111,0.325,1.97,0.815,2.577c0.491,0.606,1.148,0.891,1.97,0.851c0.82-0.039,1.444-0.389,1.872-1.049
							c0.425-0.661,0.609-1.606,0.55-2.837c-0.053-1.092-0.329-1.946-0.831-2.562c-0.501-0.615-1.156-0.904-1.964-0.866
							c-0.795,0.038-1.411,0.384-1.847,1.034C533.432,420.177,533.244,421.127,533.304,422.378z"/>
						<path style="fill:#313333;" d="M549.733,426.893c-0.118-0.2-0.228-0.532-0.33-0.993c-0.736,0.842-1.665,1.289-2.786,1.343
							c-1.088,0.052-1.991-0.215-2.708-0.801c-0.718-0.586-1.099-1.335-1.143-2.246c-0.055-1.151,0.331-2.055,1.159-2.711
							s2.04-1.023,3.636-1.1l1.492-0.071l-0.034-0.708c-0.026-0.559-0.205-1-0.534-1.319c-0.331-0.322-0.816-0.467-1.457-0.437
							c-0.555,0.026-1.001,0.187-1.342,0.48c-0.341,0.292-0.501,0.652-0.48,1.078l-2.434,0.116c-0.028-0.593,0.142-1.156,0.511-1.69
							s0.886-0.964,1.55-1.29c0.662-0.325,1.411-0.508,2.246-0.548c1.27-0.061,2.296,0.209,3.081,0.808
							c0.784,0.602,1.215,1.476,1.291,2.625l0.234,4.87c0.047,0.972,0.221,1.74,0.522,2.306l0.008,0.169L549.733,426.893z
							 M546.973,425.275c0.481-0.022,0.929-0.161,1.341-0.414c0.413-0.253,0.717-0.581,0.911-0.983l-0.099-2.036l-1.312,0.062
							c-0.901,0.043-1.571,0.231-2.01,0.566c-0.439,0.335-0.645,0.788-0.617,1.359c0.022,0.467,0.195,0.829,0.52,1.091
							S546.454,425.301,546.973,425.275z"/>
						<path style="fill:#313333;" d="M553.634,421.216c-0.08-1.663,0.243-3.018,0.97-4.062c0.726-1.045,1.739-1.6,3.041-1.661
							c1.148-0.056,2.097,0.3,2.842,1.064l-0.267-5.528l2.434-0.116l0.739,15.328l-2.203,0.105l-0.175-1.111
							c-0.685,0.912-1.636,1.398-2.852,1.457c-1.268,0.061-2.318-0.399-3.152-1.381
							C554.178,424.331,553.719,422.966,553.634,421.216z M556.079,421.309c0.053,1.097,0.306,1.943,0.759,2.539
							c0.454,0.595,1.071,0.874,1.853,0.837c0.995-0.048,1.701-0.525,2.119-1.433l-0.222-4.61c-0.489-0.843-1.231-1.242-2.226-1.194
							c-0.788,0.038-1.381,0.378-1.778,1.021C556.187,419.111,556.018,420.058,556.079,421.309z"/>
					</g>
				</g>
			</g>
		</g>
		
			<rect x="267.528" y="359.747" transform="matrix(0.9988 -0.0486 0.0486 0.9988 -19.0831 21.0163)" style="fill:none;stroke:#F7851F;stroke-width:3;stroke-miterlimit:10;" width="309.504" height="85.723"/>
	</g>
	<g>
		<g>
			<path style="fill:#F7851F;" d="M364.893,350.578l-0.082-2.377l3.951-4.216c0.741-0.792,1.335-1.473,1.778-2.042
				c0.445-0.57,0.785-1.076,1.022-1.521c0.236-0.443,0.388-0.853,0.454-1.224c0.067-0.373,0.095-0.756,0.08-1.153
				c-0.012-0.324-0.074-0.633-0.191-0.923c-0.116-0.292-0.278-0.542-0.489-0.751c-0.211-0.208-0.473-0.371-0.785-0.489
				c-0.314-0.115-0.669-0.167-1.066-0.154c-0.68,0.023-1.306,0.192-1.879,0.506c-0.571,0.315-1.11,0.728-1.613,1.239l-1.784-2.133
				c0.726-0.72,1.553-1.307,2.478-1.755c0.927-0.451,1.937-0.694,3.031-0.731c0.849-0.029,1.619,0.052,2.315,0.244
				c0.695,0.193,1.296,0.491,1.801,0.897c0.505,0.404,0.901,0.92,1.193,1.545c0.29,0.623,0.45,1.35,0.479,2.177
				c0.023,0.686-0.047,1.329-0.212,1.929c-0.164,0.6-0.415,1.187-0.747,1.763c-0.335,0.574-0.749,1.152-1.247,1.733
				c-0.498,0.58-1.066,1.194-1.706,1.841l-2.433,2.475l7.295-0.249l0.103,2.969L364.893,350.578z"/>
			<path style="fill:#F7851F;" d="M392,340.687c0.049,1.416-0.062,2.689-0.332,3.816c-0.271,1.128-0.69,2.086-1.26,2.876
				c-0.568,0.79-1.275,1.402-2.117,1.836c-0.844,0.434-1.816,0.67-2.919,0.707c-0.954,0.032-1.838-0.105-2.653-0.412
				c-0.814-0.308-1.525-0.808-2.132-1.505c-0.607-0.697-1.094-1.6-1.459-2.705c-0.365-1.106-0.574-2.438-0.627-3.995
				c-0.049-1.416,0.062-2.688,0.338-3.815c0.274-1.129,0.695-2.087,1.26-2.877c0.565-0.789,1.273-1.402,2.125-1.836
				c0.851-0.435,1.823-0.67,2.918-0.707c0.954-0.032,1.837,0.104,2.651,0.412c0.815,0.307,1.524,0.807,2.127,1.499
				c0.604,0.693,1.087,1.592,1.453,2.698C391.736,337.786,391.946,339.121,392,340.687z M381.753,341.089
				c0.007,0.176,0.012,0.342,0.018,0.496c0.006,0.153,0.02,0.309,0.042,0.467l6.328-4.893c-0.338-0.859-0.77-1.489-1.291-1.892
				c-0.522-0.399-1.128-0.588-1.815-0.565c-0.495,0.017-0.95,0.159-1.365,0.424c-0.414,0.265-0.771,0.663-1.064,1.192
				c-0.297,0.529-0.521,1.188-0.675,1.977C381.775,339.085,381.717,340.015,381.753,341.089z M388.747,340.904
				c-0.005-0.149-0.016-0.301-0.029-0.455s-0.023-0.302-0.027-0.442l-6.291,4.865c0.313,0.843,0.732,1.463,1.258,1.86
				c0.526,0.396,1.129,0.582,1.809,0.559c0.495-0.017,0.952-0.16,1.372-0.431c0.419-0.269,0.776-0.666,1.072-1.191
				c0.296-0.526,0.518-1.186,0.668-1.979C388.727,342.897,388.784,341.969,388.747,340.904z"/>
			<path style="fill:#F7851F;" d="M406.906,339.919c0.049,1.417-0.062,2.689-0.332,3.816c-0.271,1.128-0.69,2.086-1.261,2.876
				c-0.568,0.79-1.275,1.402-2.117,1.837c-0.843,0.433-1.815,0.669-2.919,0.706c-0.953,0.033-1.837-0.104-2.652-0.411
				c-0.814-0.308-1.525-0.809-2.132-1.506c-0.607-0.697-1.095-1.6-1.459-2.705c-0.365-1.106-0.575-2.438-0.628-3.995
				c-0.049-1.416,0.063-2.688,0.338-3.815c0.275-1.128,0.695-2.087,1.261-2.877c0.565-0.789,1.273-1.402,2.125-1.836
				c0.85-0.435,1.823-0.67,2.918-0.706c0.953-0.033,1.837,0.104,2.651,0.411c0.815,0.307,1.524,0.807,2.127,1.499
				c0.603,0.693,1.087,1.592,1.452,2.698C406.642,337.017,406.852,338.353,406.906,339.919z M396.659,340.321
				c0.007,0.176,0.012,0.341,0.018,0.495c0.006,0.153,0.02,0.309,0.042,0.467l6.328-4.892c-0.339-0.86-0.77-1.49-1.292-1.892
				c-0.521-0.4-1.127-0.589-1.814-0.566c-0.495,0.018-0.95,0.159-1.365,0.424s-0.771,0.663-1.065,1.192
				c-0.296,0.529-0.521,1.188-0.675,1.978C396.681,338.316,396.623,339.248,396.659,340.321z M403.652,340.136
				c-0.005-0.149-0.016-0.301-0.029-0.455c-0.014-0.153-0.023-0.301-0.027-0.441l-6.29,4.864c0.313,0.844,0.731,1.463,1.258,1.86
				c0.526,0.396,1.129,0.582,1.809,0.559c0.494-0.017,0.952-0.159,1.371-0.43c0.42-0.27,0.777-0.667,1.073-1.192
				c0.295-0.526,0.518-1.185,0.668-1.979C403.633,342.129,403.689,341.2,403.652,340.136z"/>
			<path style="fill:#F7851F;" d="M436.931,338.376c0.054,1.565-0.083,2.922-0.41,4.069c-0.328,1.147-0.799,2.097-1.413,2.85
				c-0.615,0.751-1.347,1.317-2.195,1.699c-0.849,0.38-1.764,0.588-2.743,0.621c-2.277,0.078-4.016-0.619-5.216-2.088
				c-1.199-1.47-1.849-3.643-1.946-6.52c-0.055-1.564,0.082-2.922,0.409-4.068c0.326-1.147,0.799-2.097,1.413-2.85
				c0.615-0.752,1.347-1.318,2.195-1.7c0.849-0.38,1.762-0.587,2.742-0.621c2.277-0.077,4.017,0.615,5.216,2.081
				C436.182,333.314,436.832,335.49,436.931,338.376z M433.494,338.65c-0.07-2.04-0.396-3.553-0.979-4.537s-1.5-1.454-2.753-1.412
				c-0.627,0.021-1.155,0.169-1.589,0.443c-0.433,0.275-0.783,0.668-1.054,1.18c-0.27,0.512-0.457,1.136-0.564,1.875
				c-0.107,0.738-0.145,1.584-0.112,2.534c0.071,2.04,0.399,3.553,0.985,4.536c0.586,0.984,1.502,1.455,2.746,1.412
				c0.627-0.021,1.159-0.169,1.596-0.443c0.437-0.273,0.787-0.668,1.053-1.178c0.266-0.512,0.451-1.136,0.559-1.876
				C433.489,340.445,433.527,339.601,433.494,338.65z"/>
			<path style="fill:#F7851F;" d="M447.939,346.445l-5.491-8.161l0.288,8.34l-3.311,0.112l-0.594-17.247l3.31-0.112l0.271,7.851
				l4.907-8.026l3.934-0.135l-5.597,8.421l6.495,8.814L447.939,346.445z"/>
		</g>
	</g>
	<path style="fill:#F7851F;" d="M133.279,371.043l13.053-14.3c0.225-0.247,0.54-0.394,0.874-0.41l9.135-0.428
		c1.123-0.053,1.749,1.275,0.993,2.104l-5.952,6.517c-0.758,0.829-0.131,2.157,0.993,2.105l524.103-26.382l0.415,8.798
		l-524.104,26.382c-1.123,0.053-1.621,1.433-0.79,2.187l6.541,5.932c0.831,0.754,0.333,2.135-0.79,2.187l-9.135,0.428
		c-0.334,0.016-0.661-0.102-0.909-0.327l-14.343-13.016C132.848,372.352,132.81,371.557,133.279,371.043z"/>
</g>
<g id="Calque_1">
</g>
</svg>
