<?xml version="1.0" encoding="iso-8859-1"?>
<!-- Generator: Adobe Illustrator 25.0.1, SVG Export Plug-In . SVG Version: 6.00 Build 0)  -->
<svg version="1.1" xmlns="http://www.w3.org/2000/svg" xmlns:xlink="http://www.w3.org/1999/xlink" x="0px" y="0px"
	 viewBox="0 0 800 810.965" style="enable-background:new 0 0 800 810.965;" xml:space="preserve">
<g id="step4">
	<g>
		<path style="fill:#FF2F51;" d="M364.745,746.712l-0.109-2.116l3.457-3.822c0.649-0.718,1.167-1.334,1.556-1.85
			c0.386-0.516,0.683-0.973,0.886-1.372c0.205-0.399,0.334-0.766,0.388-1.1c0.054-0.332,0.072-0.675,0.054-1.027
			c-0.016-0.29-0.077-0.564-0.186-0.822c-0.107-0.258-0.258-0.478-0.449-0.661c-0.19-0.182-0.427-0.323-0.708-0.423
			c-0.28-0.099-0.599-0.141-0.952-0.122c-0.606,0.031-1.162,0.192-1.667,0.48c-0.506,0.291-0.979,0.666-1.421,1.129l-1.624-1.873
			c0.637-0.654,1.364-1.189,2.183-1.604c0.819-0.415,1.715-0.648,2.691-0.699c0.755-0.038,1.445,0.022,2.068,0.183
			c0.624,0.161,1.164,0.417,1.619,0.771c0.457,0.354,0.819,0.808,1.089,1.358c0.27,0.553,0.423,1.196,0.461,1.934
			c0.031,0.611-0.021,1.188-0.158,1.724c-0.138,0.538-0.353,1.066-0.64,1.584c-0.289,0.519-0.65,1.04-1.085,1.566
			c-0.434,0.524-0.931,1.081-1.493,1.667l-2.132,2.244l6.503-0.335l0.138,2.646L364.745,746.712z"/>
		<path style="fill:#FF2F51;" d="M388.359,737.724c0.065,1.262-0.014,2.397-0.236,3.407c-0.225,1.009-0.583,1.872-1.079,2.585
			c-0.495,0.713-1.115,1.271-1.859,1.67s-1.609,0.625-2.592,0.675c-0.85,0.044-1.64-0.062-2.371-0.325
			c-0.731-0.26-1.373-0.697-1.927-1.31c-0.552-0.612-0.999-1.408-1.342-2.39c-0.344-0.979-0.551-2.165-0.622-3.553
			c-0.065-1.262,0.015-2.396,0.243-3.407c0.228-1.011,0.587-1.872,1.078-2.586c0.491-0.712,1.113-1.27,1.866-1.669
			c0.752-0.4,1.615-0.626,2.591-0.677c0.85-0.044,1.641,0.064,2.372,0.326c0.731,0.261,1.371,0.696,1.919,1.305
			c0.549,0.608,0.994,1.402,1.338,2.383C388.079,735.141,388.287,736.328,388.359,737.724z M379.229,738.241
			c0.008,0.157,0.016,0.305,0.022,0.441c0.007,0.138,0.022,0.275,0.045,0.416l5.566-4.46c-0.315-0.763-0.709-1.318-1.181-1.668
			c-0.472-0.349-1.015-0.508-1.629-0.476c-0.439,0.022-0.844,0.155-1.209,0.398c-0.365,0.242-0.677,0.604-0.933,1.079
			c-0.255,0.478-0.445,1.069-0.57,1.775S379.179,737.285,379.229,738.241z M385.462,737.967c-0.007-0.132-0.018-0.268-0.032-0.404
			c-0.016-0.137-0.026-0.268-0.032-0.395l-5.532,4.438c0.291,0.746,0.674,1.293,1.149,1.638c0.476,0.346,1.016,0.503,1.621,0.472
			c0.441-0.023,0.846-0.158,1.217-0.405c0.369-0.248,0.683-0.607,0.937-1.08c0.257-0.474,0.444-1.064,0.565-1.774
			C385.474,739.745,385.511,738.916,385.462,737.967z"/>
		<path style="fill:#FF2F51;" d="M401.236,737.06c0.065,1.262-0.014,2.398-0.237,3.407c-0.225,1.01-0.583,1.872-1.078,2.585
			c-0.496,0.713-1.115,1.271-1.86,1.671c-0.744,0.399-1.608,0.624-2.592,0.675c-0.85,0.044-1.64-0.063-2.371-0.325
			c-0.731-0.26-1.373-0.698-1.926-1.31c-0.553-0.612-1-1.409-1.343-2.39s-0.551-2.165-0.622-3.553
			c-0.065-1.262,0.016-2.397,0.243-3.407c0.228-1.011,0.587-1.872,1.079-2.586c0.49-0.713,1.112-1.27,1.865-1.67
			c0.752-0.4,1.616-0.626,2.592-0.676c0.849-0.044,1.64,0.064,2.371,0.326c0.731,0.26,1.371,0.696,1.92,1.304
			c0.548,0.608,0.994,1.403,1.337,2.384C400.956,734.476,401.164,735.664,401.236,737.06z M392.105,737.578
			c0.008,0.156,0.016,0.305,0.022,0.441s0.022,0.274,0.045,0.415l5.566-4.46c-0.315-0.762-0.709-1.317-1.18-1.667
			c-0.473-0.349-1.015-0.508-1.629-0.477c-0.44,0.022-0.844,0.156-1.21,0.399c-0.366,0.242-0.677,0.603-0.932,1.079
			c-0.256,0.478-0.446,1.068-0.57,1.775C392.093,735.79,392.055,736.621,392.105,737.578z M398.339,737.304
			c-0.007-0.132-0.018-0.268-0.032-0.405c-0.016-0.136-0.026-0.268-0.032-0.394l-5.533,4.437c0.291,0.747,0.675,1.293,1.15,1.638
			c0.475,0.346,1.016,0.503,1.621,0.472c0.44-0.022,0.846-0.158,1.216-0.405s0.683-0.607,0.938-1.079
			c0.256-0.474,0.443-1.064,0.565-1.775C398.351,739.082,398.388,738.253,398.339,737.304z"/>
		<path style="fill:#FF2F51;" d="M427.179,735.724c0.072,1.396-0.028,2.607-0.302,3.636c-0.274,1.027-0.68,1.882-1.216,2.562
			c-0.537,0.68-1.181,1.198-1.933,1.55c-0.75,0.354-1.562,0.552-2.435,0.597c-2.03,0.104-3.591-0.488-4.684-1.78
			c-1.093-1.291-1.705-3.22-1.838-5.784c-0.072-1.395,0.028-2.605,0.302-3.635c0.274-1.028,0.679-1.881,1.216-2.562
			c0.537-0.68,1.181-1.197,1.931-1.55c0.752-0.354,1.563-0.553,2.437-0.598c2.029-0.104,3.591,0.486,4.683,1.775
			C426.434,731.222,427.047,733.151,427.179,735.724z M424.119,736.021c-0.095-1.818-0.408-3.161-0.943-4.03
			c-0.533-0.868-1.359-1.273-2.477-1.216c-0.559,0.028-1.028,0.168-1.409,0.419c-0.382,0.253-0.688,0.607-0.921,1.068
			c-0.233,0.46-0.391,1.021-0.475,1.682c-0.085,0.66-0.104,1.414-0.061,2.262c0.095,1.818,0.411,3.161,0.948,4.03
			c0.538,0.868,1.362,1.272,2.472,1.216c0.559-0.029,1.03-0.169,1.416-0.42c0.385-0.252,0.692-0.608,0.92-1.067
			c0.229-0.46,0.386-1.021,0.47-1.682S424.163,736.869,424.119,736.021z"/>
		<path style="fill:#FF2F51;" d="M436.718,743.002l-5.023-7.193l0.386,7.433l-2.95,0.152l-0.798-15.37l2.95-0.152l0.363,6.997
			l4.251-7.235l3.505-0.181l-4.859,7.597l5.929,7.76L436.718,743.002z"/>
	</g>
	<g>
		<path style="fill:#00ABAF;" d="M364.225,708.53l-0.11-2.116l3.458-3.822c0.649-0.718,1.167-1.334,1.556-1.849
			c0.386-0.517,0.683-0.973,0.886-1.373c0.205-0.399,0.334-0.766,0.388-1.099s0.071-0.675,0.054-1.028
			c-0.016-0.289-0.077-0.564-0.186-0.822c-0.107-0.257-0.258-0.478-0.449-0.661c-0.19-0.181-0.427-0.322-0.708-0.423
			c-0.28-0.099-0.599-0.141-0.952-0.122c-0.606,0.031-1.162,0.192-1.667,0.481c-0.506,0.29-0.98,0.666-1.421,1.128l-1.624-1.873
			c0.637-0.653,1.364-1.189,2.183-1.604c0.819-0.415,1.716-0.647,2.691-0.698c0.755-0.038,1.444,0.022,2.068,0.182
			c0.624,0.161,1.164,0.418,1.619,0.771c0.457,0.354,0.819,0.808,1.089,1.359s0.422,1.197,0.461,1.934
			c0.031,0.611-0.022,1.187-0.158,1.724c-0.138,0.537-0.353,1.066-0.64,1.584c-0.29,0.518-0.65,1.04-1.085,1.565
			c-0.435,0.524-0.931,1.082-1.493,1.668l-2.132,2.244l6.503-0.335l0.138,2.646L364.225,708.53z"/>
		<path style="fill:#00ABAF;" d="M387.84,699.543c0.065,1.262-0.014,2.398-0.236,3.407c-0.225,1.01-0.583,1.873-1.079,2.586
			c-0.495,0.713-1.115,1.27-1.859,1.67c-0.744,0.398-1.609,0.625-2.592,0.675c-0.85,0.044-1.641-0.063-2.371-0.326
			c-0.731-0.26-1.373-0.696-1.927-1.31c-0.552-0.611-1-1.408-1.343-2.389s-0.55-2.165-0.621-3.553
			c-0.066-1.263,0.014-2.397,0.243-3.408c0.228-1.009,0.587-1.871,1.077-2.585c0.492-0.712,1.114-1.271,1.867-1.67
			c0.752-0.4,1.615-0.625,2.591-0.676c0.85-0.043,1.641,0.063,2.372,0.325s1.371,0.696,1.918,1.305
			c0.55,0.608,0.994,1.403,1.338,2.384C387.559,696.959,387.767,698.147,387.84,699.543z M378.71,700.06
			c0.008,0.157,0.016,0.304,0.022,0.44c0.007,0.138,0.022,0.276,0.045,0.417l5.566-4.461c-0.315-0.763-0.709-1.318-1.182-1.667
			c-0.471-0.35-1.014-0.509-1.628-0.477c-0.439,0.022-0.844,0.156-1.21,0.399c-0.365,0.242-0.676,0.603-0.932,1.08
			c-0.255,0.476-0.445,1.067-0.57,1.773S378.66,699.103,378.71,700.06z M384.942,699.786c-0.007-0.133-0.018-0.269-0.033-0.405
			c-0.015-0.137-0.025-0.268-0.031-0.393l-5.532,4.436c0.291,0.747,0.674,1.293,1.149,1.639c0.476,0.345,1.016,0.502,1.621,0.471
			c0.441-0.023,0.846-0.158,1.217-0.404c0.369-0.248,0.682-0.608,0.937-1.081c0.257-0.472,0.444-1.064,0.565-1.774
			C384.955,701.563,384.991,700.734,384.942,699.786z"/>
		<path style="fill:#00ABAF;" d="M400.717,698.88c0.065,1.262-0.014,2.398-0.237,3.406c-0.224,1.011-0.583,1.873-1.078,2.586
			c-0.496,0.713-1.116,1.27-1.86,1.671c-0.744,0.398-1.608,0.624-2.592,0.675c-0.85,0.044-1.641-0.064-2.372-0.326
			c-0.73-0.26-1.372-0.697-1.925-1.31s-1.001-1.409-1.343-2.389c-0.343-0.981-0.551-2.165-0.623-3.553
			c-0.065-1.263,0.016-2.398,0.244-3.408c0.228-1.01,0.587-1.871,1.078-2.585c0.491-0.713,1.113-1.271,1.866-1.671
			c0.752-0.4,1.616-0.625,2.592-0.675c0.849-0.044,1.64,0.063,2.371,0.325c0.731,0.261,1.372,0.696,1.919,1.304
			c0.549,0.608,0.994,1.403,1.337,2.385C400.436,696.295,400.644,697.484,400.717,698.88z M391.586,699.397
			c0.008,0.157,0.016,0.304,0.022,0.44c0.007,0.138,0.022,0.275,0.045,0.416l5.566-4.461c-0.315-0.762-0.709-1.317-1.181-1.666
			c-0.472-0.35-1.014-0.509-1.628-0.478c-0.44,0.022-0.844,0.156-1.211,0.399c-0.365,0.243-0.676,0.603-0.931,1.08
			c-0.256,0.477-0.446,1.067-0.57,1.774C391.574,697.608,391.536,698.44,391.586,699.397z M397.819,699.123
			c-0.007-0.133-0.018-0.269-0.033-0.406c-0.015-0.136-0.025-0.267-0.031-0.393l-5.533,4.436c0.291,0.747,0.675,1.293,1.15,1.639
			c0.475,0.345,1.016,0.502,1.621,0.471c0.44-0.022,0.846-0.158,1.216-0.404c0.37-0.247,0.682-0.607,0.938-1.08
			s0.443-1.064,0.565-1.775C397.832,700.9,397.868,700.071,397.819,699.123z"/>
		<path style="fill:#00ABAF;" d="M426.66,697.542c0.072,1.396-0.028,2.607-0.302,3.636c-0.274,1.028-0.68,1.882-1.217,2.562
			c-0.536,0.681-1.18,1.198-1.932,1.55c-0.75,0.354-1.562,0.553-2.435,0.598c-2.03,0.104-3.591-0.488-4.684-1.78
			s-1.705-3.22-1.839-5.784c-0.072-1.395,0.028-2.606,0.303-3.635c0.274-1.029,0.679-1.882,1.216-2.562
			c0.537-0.68,1.181-1.196,1.931-1.55c0.752-0.354,1.563-0.552,2.437-0.597c2.029-0.104,3.591,0.486,4.683,1.774
			C425.914,693.04,426.526,694.97,426.66,697.542z M423.598,697.841c-0.094-1.819-0.407-3.162-0.942-4.031
			c-0.533-0.868-1.359-1.273-2.477-1.216c-0.559,0.028-1.028,0.168-1.41,0.42c-0.381,0.252-0.688,0.607-0.921,1.067
			c-0.232,0.461-0.39,1.021-0.475,1.682c-0.084,0.661-0.104,1.414-0.06,2.262c0.095,1.818,0.411,3.162,0.948,4.03
			c0.538,0.868,1.361,1.273,2.471,1.216c0.559-0.028,1.03-0.168,1.417-0.42c0.385-0.252,0.692-0.607,0.92-1.067
			c0.229-0.46,0.386-1.02,0.47-1.681C423.623,699.44,423.643,698.688,423.598,697.841z"/>
		<path style="fill:#00ABAF;" d="M436.199,704.82l-5.023-7.193l0.386,7.433l-2.95,0.152l-0.798-15.37l2.95-0.152l0.363,6.998
			l4.251-7.236l3.505-0.181l-4.86,7.597l5.93,7.76L436.199,704.82z"/>
	</g>
	<g>
		<path style="fill:#005C79;" d="M363.975,670.093l-0.11-2.116l3.458-3.822c0.649-0.718,1.167-1.334,1.555-1.85
			c0.387-0.515,0.683-0.972,0.887-1.372c0.205-0.399,0.333-0.766,0.387-1.098c0.053-0.334,0.071-0.677,0.054-1.029
			c-0.016-0.29-0.077-0.563-0.186-0.821c-0.106-0.258-0.257-0.479-0.448-0.662c-0.191-0.182-0.427-0.323-0.708-0.422
			c-0.281-0.1-0.599-0.141-0.953-0.123c-0.605,0.031-1.161,0.192-1.666,0.48c-0.507,0.291-0.98,0.666-1.421,1.129l-1.624-1.872
			c0.637-0.655,1.364-1.19,2.183-1.605s1.715-0.648,2.691-0.698c0.755-0.039,1.444,0.021,2.068,0.182
			c0.623,0.161,1.163,0.417,1.619,0.771c0.456,0.354,0.819,0.808,1.088,1.359c0.27,0.552,0.423,1.196,0.462,1.934
			c0.031,0.611-0.022,1.187-0.159,1.724s-0.352,1.065-0.64,1.584c-0.289,0.518-0.65,1.039-1.084,1.565
			c-0.435,0.524-0.932,1.081-1.493,1.667l-2.132,2.245l6.502-0.335l0.138,2.646L363.975,670.093z"/>
		<path style="fill:#005C79;" d="M387.59,661.105c0.065,1.262-0.014,2.398-0.237,3.407c-0.224,1.011-0.583,1.872-1.078,2.585
			c-0.496,0.713-1.115,1.271-1.859,1.67c-0.744,0.4-1.609,0.626-2.593,0.677c-0.85,0.043-1.641-0.064-2.372-0.326
			c-0.73-0.261-1.372-0.698-1.925-1.311c-0.552-0.611-1.001-1.408-1.343-2.39c-0.343-0.979-0.551-2.164-0.623-3.552
			c-0.065-1.262,0.016-2.397,0.245-3.408c0.227-1.01,0.587-1.871,1.077-2.585c0.491-0.713,1.113-1.27,1.866-1.67
			c0.752-0.4,1.616-0.626,2.592-0.676c0.85-0.044,1.64,0.063,2.372,0.326c0.731,0.26,1.371,0.695,1.918,1.304
			c0.549,0.608,0.994,1.403,1.337,2.383C387.309,658.521,387.517,659.709,387.59,661.105z M378.459,661.622
			c0.008,0.157,0.016,0.305,0.022,0.441c0.007,0.138,0.022,0.276,0.045,0.416l5.566-4.46c-0.314-0.763-0.709-1.317-1.181-1.668
			c-0.472-0.349-1.014-0.508-1.628-0.476c-0.439,0.022-0.844,0.156-1.21,0.399c-0.366,0.242-0.676,0.603-0.932,1.079
			s-0.445,1.068-0.57,1.775C378.447,659.835,378.409,660.666,378.459,661.622z M384.692,661.348
			c-0.007-0.131-0.018-0.267-0.033-0.404c-0.015-0.137-0.025-0.268-0.031-0.393l-5.532,4.436c0.29,0.747,0.674,1.293,1.149,1.639
			c0.476,0.345,1.016,0.502,1.621,0.471c0.44-0.022,0.846-0.158,1.216-0.405c0.37-0.246,0.682-0.607,0.938-1.079
			c0.257-0.474,0.443-1.065,0.565-1.775C384.705,663.127,384.741,662.297,384.692,661.348z"/>
		<path style="fill:#005C79;" d="M400.466,660.442c0.065,1.262-0.014,2.397-0.236,3.407c-0.225,1.01-0.583,1.871-1.079,2.584
			c-0.495,0.713-1.115,1.271-1.859,1.671s-1.609,0.625-2.592,0.676c-0.85,0.044-1.641-0.064-2.372-0.326
			c-0.73-0.26-1.372-0.698-1.926-1.31c-0.552-0.612-1-1.408-1.342-2.39c-0.344-0.98-0.551-2.165-0.623-3.553
			c-0.065-1.262,0.015-2.396,0.244-3.407c0.228-1.011,0.587-1.871,1.077-2.586c0.492-0.713,1.114-1.27,1.867-1.67
			c0.752-0.399,1.615-0.626,2.591-0.676c0.85-0.044,1.641,0.064,2.372,0.326c0.731,0.26,1.371,0.696,1.918,1.305
			c0.55,0.607,0.995,1.402,1.338,2.383C400.185,657.857,400.393,659.046,400.466,660.442z M391.336,660.959
			c0.008,0.157,0.016,0.305,0.022,0.441c0.007,0.138,0.022,0.275,0.045,0.416l5.566-4.461c-0.315-0.762-0.709-1.317-1.182-1.667
			c-0.471-0.349-1.013-0.508-1.628-0.477c-0.439,0.023-0.843,0.156-1.21,0.399c-0.365,0.242-0.676,0.603-0.932,1.079
			c-0.255,0.478-0.445,1.069-0.57,1.775C391.324,659.172,391.286,660.003,391.336,660.959z M397.568,660.684
			c-0.007-0.132-0.018-0.268-0.033-0.405c-0.015-0.136-0.025-0.268-0.032-0.393l-5.531,4.436c0.291,0.747,0.674,1.293,1.15,1.639
			c0.475,0.345,1.015,0.502,1.62,0.471c0.441-0.022,0.846-0.158,1.217-0.405c0.369-0.246,0.682-0.606,0.937-1.079
			c0.257-0.474,0.444-1.064,0.565-1.775C397.581,662.463,397.617,661.634,397.568,660.684z"/>
		<path style="fill:#005C79;" d="M426.41,659.105c0.072,1.396-0.028,2.606-0.303,3.635c-0.273,1.028-0.679,1.882-1.217,2.562
			c-0.535,0.68-1.179,1.198-1.931,1.55c-0.75,0.354-1.562,0.553-2.436,0.598c-2.03,0.104-3.591-0.489-4.683-1.781
			c-1.093-1.291-1.705-3.219-1.839-5.783c-0.072-1.395,0.028-2.606,0.303-3.636c0.274-1.027,0.679-1.881,1.215-2.562
			c0.537-0.68,1.182-1.197,1.931-1.55c0.752-0.353,1.563-0.553,2.437-0.598c2.029-0.104,3.591,0.487,4.684,1.776
			C425.664,654.603,426.276,656.533,426.41,659.105z M423.348,659.402c-0.094-1.818-0.408-3.161-0.942-4.03
			c-0.533-0.868-1.359-1.273-2.478-1.216c-0.558,0.029-1.027,0.169-1.41,0.42c-0.38,0.252-0.688,0.607-0.92,1.067
			s-0.391,1.021-0.476,1.682c-0.084,0.661-0.103,1.414-0.059,2.262c0.095,1.818,0.41,3.161,0.948,4.03
			c0.538,0.868,1.361,1.273,2.47,1.216c0.56-0.028,1.031-0.169,1.417-0.42s0.692-0.608,0.921-1.067
			c0.229-0.46,0.385-1.021,0.469-1.682C423.373,661.004,423.393,660.25,423.348,659.402z"/>
		<path style="fill:#005C79;" d="M435.948,666.383l-5.022-7.193l0.386,7.433l-2.95,0.152l-0.798-15.37l2.95-0.152l0.363,6.997
			l4.25-7.234l3.506-0.181l-4.86,7.596l5.929,7.76L435.948,666.383z"/>
	</g>
	<path style="fill:#005C79;" d="M134.407,690.649l7.555-8.305c0.13-0.143,0.313-0.229,0.506-0.238l5.288-0.248
		c0.65-0.03,1.013,0.741,0.575,1.222l-3.445,3.785c-0.439,0.482-0.076,1.253,0.575,1.223l525.056-31.009l0.241,5.11l-525.057,31.009
		c-0.65,0.031-0.938,0.832-0.457,1.27l3.787,3.446c0.481,0.438,0.193,1.24-0.457,1.27l-5.288,0.248
		c-0.193,0.009-0.383-0.059-0.526-0.19l-8.305-7.561C134.157,691.41,134.135,690.948,134.407,690.649z"/>
	<path style="fill:#00ABAF;" d="M134.392,729.387l7.555-8.305c0.13-0.143,0.313-0.229,0.506-0.238l5.288-0.248
		c0.65-0.03,1.013,0.741,0.575,1.222l-3.445,3.785c-0.439,0.482-0.076,1.253,0.575,1.223l525.056-31.009l0.241,5.11l-525.057,31.009
		c-0.65,0.031-0.938,0.832-0.457,1.27l3.787,3.446c0.481,0.438,0.193,1.24-0.457,1.27l-5.288,0.248
		c-0.193,0.009-0.383-0.059-0.526-0.19l-8.305-7.561C134.143,730.148,134.121,729.686,134.392,729.387z"/>
	<path style="fill:#FF2F51;" d="M134.378,767.524l7.555-8.305c0.13-0.143,0.313-0.229,0.506-0.238l5.288-0.248
		c0.65-0.03,1.013,0.741,0.575,1.222l-3.445,3.785c-0.439,0.482-0.076,1.253,0.575,1.223l525.056-31.009l0.241,5.11l-525.057,31.009
		c-0.65,0.031-0.938,0.832-0.457,1.27l3.787,3.446c0.481,0.438,0.193,1.24-0.457,1.27l-5.288,0.248
		c-0.193,0.009-0.383-0.059-0.526-0.19l-8.305-7.561C134.128,768.285,134.106,767.823,134.378,767.524z"/>
</g>
<g id="Calque_1">
</g>
</svg>
