<?xml version="1.0" encoding="iso-8859-1"?>
<!-- Generator: Adobe Illustrator 25.0.1, SVG Export Plug-In . SVG Version: 6.00 Build 0)  -->
<svg version="1.1" xmlns="http://www.w3.org/2000/svg" xmlns:xlink="http://www.w3.org/1999/xlink" x="0px" y="0px"
	 viewBox="0 0 800 810.965" style="enable-background:new 0 0 800 810.965;" xml:space="preserve">
<g id="step2-base">
	<g>
		<g>
			<ellipse style="fill:#F7851F;" cx="676.574" cy="343.73" rx="19.105" ry="19.038"/>
			<path style="fill:#059DC1;" d="M676.574,364.608c-11.553,0-20.951-9.366-20.951-20.878c0-11.512,9.398-20.878,20.951-20.878
				c11.552,0,20.951,9.366,20.951,20.878C697.525,355.242,688.126,364.608,676.574,364.608z M676.574,326.531
				c-9.517,0-17.259,7.715-17.259,17.198c0,9.484,7.742,17.199,17.259,17.199c9.516,0,17.258-7.715,17.258-17.199
				C693.832,334.246,686.09,326.531,676.574,326.531z"/>
		</g>
		<g>
			<path style="fill:#FFFFFF;" d="M668.002,337.782l4.098,1.373c0.337,0.147,1.94,0.731,4.781,0.029
				c3.589-0.887,11.36-2.424,11.438-2.44l-0.289-1.455c-0.003,0.001-0.024,0.005-0.052,0.01l-7.406-1.04
				c-0.815-0.114-2.129-0.081-2.937,0.076l-9.902,1.914c-1.288-0.066-2.513,0.722-2.924,2.001c-0.237,0.738-0.17,1.524,0.186,2.211
				c0.182,0.351,0.43,0.655,0.726,0.901c-0.446,0.347-0.796,0.824-0.981,1.399c-0.236,0.738-0.17,1.524,0.186,2.212
				c0.193,0.372,0.462,0.686,0.781,0.937c-0.439,0.345-0.784,0.82-0.967,1.389c-0.236,0.738-0.17,1.523,0.185,2.211
				c0.357,0.688,0.96,1.197,1.7,1.432l7.138,2.275c0.392,0.125,1.034,0.153,1.435,0.06l12.531-2.861c0,0-0.075-0.324-0.166-0.723
				c-0.092-0.399-0.491-0.649-0.892-0.558l-11.408,2.603c-0.401,0.092-1.043,0.064-1.435-0.06l-6.749-2.15
				c-0.361-0.114-0.656-0.364-0.83-0.699c-0.174-0.335-0.206-0.719-0.09-1.078c0.238-0.744,1.039-1.151,1.785-0.918
				c0.002-0.007,4.13,1.307,5.82,1.844c0.392,0.125,1.034,0.153,1.435,0.06l12.531-2.86c0,0-0.075-0.324-0.166-0.723
				c-0.092-0.399-0.491-0.649-0.892-0.557l-11.408,2.604c-0.401,0.091-1.043,0.064-1.435-0.06l-6.749-2.15
				c-0.361-0.114-0.656-0.364-0.83-0.699c-0.174-0.335-0.206-0.719-0.09-1.078c0.238-0.744,1.039-1.151,1.785-0.918
				c0.001-0.002,4.185,1.331,5.889,1.872c0.391,0.125,1.034,0.153,1.435,0.06l12.531-2.861c0,0-0.075-0.323-0.166-0.723
				c-0.092-0.399-0.492-0.649-0.892-0.557l-11.408,2.603c-0.401,0.092-1.043,0.065-1.435-0.06l-6.749-2.15
				c-0.361-0.115-0.656-0.364-0.83-0.7c-0.174-0.335-0.206-0.719-0.09-1.078C666.466,337.959,667.266,337.545,668.002,337.782z"/>
		</g>
	</g>
</g>
<g id="Calque_1">
</g>
</svg>
