<?xml version="1.0" encoding="utf-8"?>
<!-- Generator: Adobe Illustrator 22.0.1, SVG Export Plug-In . SVG Version: 6.00 Build 0)  -->
<svg version="1.1" id="Calque_1" xmlns="http://www.w3.org/2000/svg" xmlns:xlink="http://www.w3.org/1999/xlink" x="0px" y="0px"
	 width="24px" height="24px" viewBox="0 0 24 24" style="enable-background:new 0 0 24 24;" xml:space="preserve">
<path d="M6.5,14.5c0,1.1-0.9,2-2,2s-2-0.9-2-2s0.9-2,2-2h2V14.5z M7.5,14.5c0-1.1,0.9-2,2-2s2,0.9,2,2v5c0,1.1-0.9,2-2,2s-2-0.9-2-2
	C7.5,19.5,7.5,14.5,7.5,14.5z M9.5,6.5c-1.1,0-2-0.9-2-2s0.9-2,2-2s2,0.9,2,2v2L9.5,6.5L9.5,6.5z M9.5,7.5c1.1,0,2,0.9,2,2
	s-0.9,2-2,2h-5c-1.1,0-2-0.9-2-2s0.9-2,2-2L9.5,7.5L9.5,7.5z M17.5,9.5c0-1.1,0.9-2,2-2s2,0.9,2,2s-0.9,2-2,2h-2V9.5L17.5,9.5z
	 M16.5,9.5c0,1.1-0.9,2-2,2s-2-0.9-2-2v-5c0-1.1,0.9-2,2-2s2,0.9,2,2V9.5L16.5,9.5z M14.5,17.5c1.1,0,2,0.9,2,2s-0.9,2-2,2
	s-2-0.9-2-2v-2H14.5z M14.5,16.5c-1.1,0-2-0.9-2-2s0.9-2,2-2h5c1.1,0,2,0.9,2,2s-0.9,2-2,2H14.5z"/>
</svg>
