<svg xmlns="http://www.w3.org/2000/svg" width="24" height="24"><path d="M6.5 14.5c0 1.1-.9 2-2 2s-2-.9-2-2 .9-2 2-2h2v2zm1 0c0-1.1.9-2 2-2s2 .9 2 2v5c0 1.1-.9 2-2 2s-2-.9-2-2c0 0 0-5 0-5zm2-8c-1.1 0-2-.9-2-2s.9-2 2-2 2 .9 2 2v2h-2zm0 1c1.1 0 2 .9 2 2s-.9 2-2 2h-5c-1.1 0-2-.9-2-2s.9-2 2-2h5zm8 2c0-1.1.9-2 2-2s2 .9 2 2-.9 2-2 2h-2v-2zm-1 0c0 1.1-.9 2-2 2s-2-.9-2-2v-5c0-1.1.9-2 2-2s2 .9 2 2v5zm-2 8c1.1 0 2 .9 2 2s-.9 2-2 2-2-.9-2-2v-2h2zm0-1c-1.1 0-2-.9-2-2s.9-2 2-2h5c1.1 0 2 .9 2 2s-.9 2-2 2h-5z"/></svg>