<svg xmlns="http://www.w3.org/2000/svg" viewBox="0 0 491.04 902.52"><defs><style>.a{fill:#e5eaea;}.b,.m{font-size:28px;}.b{fill:#313333;font-family:Roboto-Medium, Roboto;font-weight:500;}.c{letter-spacing:-0.01em;}.d{letter-spacing:-0.06em;}.e{letter-spacing:-0.02em;}.f{letter-spacing:0.01em;}.g{letter-spacing:-0.01em;}.h,.u{fill:#f7851f;}.i{font-size:32px;letter-spacing:-0.01em;}.i,.s,.t{fill:#fff;}.i,.m{font-family:Consolas-Bold, Consolas;font-weight:700;}.j,.x{fill:#ff2f51;}.k,.v{fill:#005c79;}.l,.w{fill:#00abaf;}.m{letter-spacing:-0.02em;}.n,.o,.p,.q{fill:none;stroke:#a7d3db;stroke-width:3px;}.n,.o,.p,.q,.u,.v,.w,.x{stroke-miterlimit:10;}.o{stroke-dasharray:11.72 11.72;}.p{stroke-dasharray:11.97 11.97;}.q{stroke-dasharray:12;}.r{fill:#059dc1;}.t{font-size:68px;font-family:BebasNeue, Bebas Neue;}.u,.v,.w,.x{stroke:#fff;stroke-width:4px;}</style></defs><rect class="a" x="64.13" y="257.57" width="385.06" height="331.8"/><text class="b" transform="translate(85.2 352.27)">{<tspan x="0" y="32" xml:space="preserve">    &quot;titl</tspan><tspan class="c" x="69.89" y="32">e</tspan><tspan x="84.72" y="32">&quot;: </tspan><tspan class="d" x="108.2" y="32">&quot;</tspan><tspan x="115.64" y="32">A book&quot;,</tspan><tspan x="0" y="64" xml:space="preserve">    </tspan><tspan class="e" x="27.89" y="64">&quot;</tspan><tspan x="36.29" y="64">autho</tspan><tspan class="f" x="107.79" y="64">r</tspan><tspan x="117.85" y="64">&quot;: &quot;/authors/1&quot;,</tspan><tspan x="0" y="96" xml:space="preserve">    &quot;r</tspan><tspan class="g" x="46.81" y="96">e</tspan><tspan x="61.66" y="96">views&quot;: [</tspan><tspan x="0" y="128" xml:space="preserve">        &quot;/r</tspan><tspan class="g" x="85.78" y="128">e</tspan><tspan x="100.63" y="128">views/1&quot;,</tspan><tspan x="0" y="160" xml:space="preserve">        &quot;/r</tspan><tspan class="g" x="85.78" y="160">e</tspan><tspan x="100.63" y="160">views/2&quot;</tspan><tspan x="0" y="192" xml:space="preserve">    ]</tspan><tspan x="0" y="224">}</tspan></text><rect class="h" x="61.63" y="270.13" width="289.13" height="45.74"/><text class="i" transform="translate(110.41 303.3)"><tspan xml:space="preserve"> /BOOKS/1</tspan></text><rect class="a" x="63.64" y="788.59" width="385.55" height="73.07"/><rect class="j" x="63.46" y="801.44" width="287.3" height="45.74"/><text class="i" transform="translate(112.22 834.61)"><tspan xml:space="preserve"> /REVIEWS/2</tspan></text><rect class="a" x="63.64" y="607.75" width="385.55" height="73.07"/><rect class="k" x="61.63" y="620.43" width="289.13" height="45.74"/><text class="i" transform="translate(110.71 653.6)"><tspan xml:space="preserve"> /AUTHORS/1</tspan></text><rect class="a" x="63.64" y="697.52" width="385.55" height="73.07"/><rect class="l" x="64.15" y="709.23" width="286.61" height="45.74"/><text class="i" transform="translate(111.97 742.4)"><tspan xml:space="preserve"> /REVIEWS/1</tspan></text><text class="m" transform="translate(362.4 652.92)">{...}</text><text class="m" transform="translate(362.4 740.47)">{...}</text><text class="m" transform="translate(362.4 834.29)">{...}</text><polyline class="n" points="467.57 877.44 467.57 883.44 461.57 883.44"/><line class="o" x1="449.85" y1="883.44" x2="33.95" y2="883.44"/><polyline class="n" points="28.09 883.44 22.09 883.44 22.09 877.44"/><line class="p" x1="22.09" y1="865.47" x2="22.09" y2="249.03"/><polyline class="n" points="22.09 243.04 22.09 237.04 28.09 237.04"/><line class="o" x1="39.81" y1="237.04" x2="455.71" y2="237.04"/><polyline class="n" points="461.57 237.04 467.57 237.04 467.57 243.04"/><line class="p" x1="467.57" y1="255.01" x2="467.57" y2="871.45"/><line class="q" x1="233.75" y1="142.83" x2="233.75" y2="233.49"/><circle class="r" cx="233.75" cy="114.69" r="66.14"/><path class="s" d="M233.75,187.84a73.15,73.15,0,1,1,73.15-73.15A73.22,73.22,0,0,1,233.75,187.84Zm0-132.29a59.15,59.15,0,1,0,59.15,59.14A59.21,59.21,0,0,0,233.75,55.55Z"/><text class="t" transform="translate(202.39 142.38)">API</text><circle class="q" cx="233.51" cy="114.94" r="72.9"/><circle class="u" cx="63.64" cy="296.42" r="31.05"/><path class="s" d="M49.71,286.72,56.37,289c.55.24,3.16,1.2,7.77.05,5.84-1.45,18.46-3.95,18.59-4l-.47-2.37-.08,0-12-1.7a17.33,17.33,0,0,0-4.77.12l-16.09,3.12a4.71,4.71,0,0,0-4.75,3.27,4.65,4.65,0,0,0,.3,3.6A4.7,4.7,0,0,0,46,292.56a4.62,4.62,0,0,0-1.59,2.28A4.69,4.69,0,0,0,46,300a4.66,4.66,0,0,0-1.58,2.26,4.73,4.73,0,0,0,3.07,5.94l11.6,3.71a5.24,5.24,0,0,0,2.33.1l20.36-4.67-.27-1.17a1.2,1.2,0,0,0-1.45-.91l-18.53,4.24a5.14,5.14,0,0,1-2.34-.1l-11-3.5a2.31,2.31,0,0,1-1.35-1.14,2.25,2.25,0,0,1-.15-1.76,2.32,2.32,0,0,1,2.9-1.5l9.46,3a5.24,5.24,0,0,0,2.33.1l20.36-4.67-.27-1.18a1.2,1.2,0,0,0-1.45-.9l-18.53,4.24a5.29,5.29,0,0,1-2.34-.1l-11-3.5a2.31,2.31,0,0,1-1.35-1.14,2.25,2.25,0,0,1-.15-1.76,2.32,2.32,0,0,1,2.9-1.5l9.57,3.06a5.24,5.24,0,0,0,2.33.09l20.37-4.66s-.13-.53-.27-1.18a1.21,1.21,0,0,0-1.45-.91l-18.54,4.24a5.14,5.14,0,0,1-2.34-.09l-11-3.51a2.31,2.31,0,0,1-1.5-2.9A2.31,2.31,0,0,1,49.71,286.72Z"/><circle class="v" cx="62.58" cy="644.21" r="31.05"/><path class="s" d="M62.29,627.52a9.19,9.19,0,1,0,9.18,9.18A9.21,9.21,0,0,0,62.29,627.52Z"/><path class="s" d="M78.05,653.23a8.62,8.62,0,0,0-.92-1.69,11.44,11.44,0,0,0-7.9-5,1.71,1.71,0,0,0-1.17.28,9.77,9.77,0,0,1-11.55,0,1.5,1.5,0,0,0-1.16-.28,11.33,11.33,0,0,0-7.9,5,9.93,9.93,0,0,0-.92,1.69.85.85,0,0,0,0,.76,16,16,0,0,0,1.08,1.6,14.72,14.72,0,0,0,1.84,2.09c.57.56,1.21,1.08,1.85,1.6a18.29,18.29,0,0,0,21.82,0,17.58,17.58,0,0,0,1.84-1.6,17.8,17.8,0,0,0,1.85-2.09,14,14,0,0,0,1.08-1.6A.68.68,0,0,0,78.05,653.23Z"/><circle class="w" cx="64.15" cy="734.05" r="31.05"/><path class="s" d="M83.82,727.62l-13.18-2-6-11.88-6,11.94-13.18,2.08L55,737.14l-2.09,13.18,11.76-6.18,11.94,6-2.22-13.13ZM64.66,741.41V719.2h0l4.37,8.7,9.66,1.43-6.9,6.9,1.62,9.62Z"/><circle class="x" cx="62.76" cy="824.52" r="31.05"/><path class="s" d="M82.43,818.09l-13.19-2-6-11.88-6,11.93-13.17,2.09,9.52,9.33-2.09,13.17,11.75-6.18,11.94,6L73,827.51ZM63.26,831.88V809.66h0l4.38,8.69,9.65,1.43-6.9,6.9L72,836.31Z"/></svg>