<svg xmlns="http://www.w3.org/2000/svg" xmlns:xlink="http://www.w3.org/1999/xlink" viewBox="0 0 800 816.68"><defs><style>.a,.b{fill:none;}.b{stroke:#059dc1;stroke-linecap:round;stroke-miterlimit:10;stroke-width:16px;}.c{fill:#a7d3db;}.d{fill:#00394c;}.e{fill:#059dc1;}.f,.j{fill:#005c79;}.g{fill:#007ba3;}.h{fill:#fff;}.i{fill:#f7851f;}.j{font-size:27.37px;font-family:BebasNeueBold, Bebas Neue;letter-spacing:-0.01em;}.k{fill:#ba5a0c;}.l{fill:#d8670b;}.m{opacity:0.28;}.n{clip-path:url(#a);}.o{opacity:0.2;}.p{fill:#575757;}.q{fill:#9c9c9c;}.r{fill:#6b6b6b;}.s{fill:#878787;}</style><clipPath id="a"><polyline class="a" points="741.63 144.38 583.35 55.32 492.97 68.68 589.2 211.75 728.9 203.2"/></clipPath></defs><path class="b" d="M676.91,790.38V234.64c-62.12,0-112.47-50.17-112.47-112.07S614.79,10.5,676.91,10.5,789.37,60.68,789.37,122.57"/><ellipse class="c" cx="126.38" cy="123.2" rx="92.11" ry="91.79"/><ellipse class="c" cx="677.82" cy="123.65" rx="95.15" ry="94.82"/><path class="d" d="M112.73,192.22a6.76,6.76,0,0,0-6.1,0L79.18,207c-1.68,1-1.15,3.25.53,4.22l11.37,6.54a6.74,6.74,0,0,0,6.09,0l26.92-15.49c1.68-1,2-3.76.34-4.73Z"/><path class="d" d="M210,174.87l-29.62-15.29a3,3,0,0,0-2.68.11L127.29,187c-.79.46-.56,2.62.13,3l29.41,16.92a2.94,2.94,0,0,0,2.67-.11L209.55,178C210.34,177.58,210.63,175.26,210,174.87Z"/><path class="e" d="M159.5,205.05a2.94,2.94,0,0,1-2.67.11l-29.41-16.92c-.69-.39-.6-1.08.19-1.54l50-28.79a3,3,0,0,1,2.68-.11l29.41,16.92c.69.4.6,1.08-.19,1.54Z"/><polygon class="f" points="161.31 201.31 134.1 185.66 178.24 160.27 205.45 175.92 161.31 201.31"/><path class="d" d="M146.5,195.89a3.53,3.53,0,0,1-3.2.13c-.82-.47-.72-1.29.23-1.84a3.59,3.59,0,0,1,3.2-.13C147.55,194.52,147.45,195.35,146.5,195.89Z"/><polygon class="d" points="205.45 175.92 178.79 160.58 178.81 160.57 178.24 160.27 134.1 185.66 134.68 185.97 177.83 161.14 204.5 176.49 205.45 175.92"/><path class="e" d="M112.73,190.76a6.79,6.79,0,0,0-6.1,0L79.72,206.25c-1.69,1-1.69,2.54,0,3.51l11.37,6.54a6.8,6.8,0,0,0,6.09,0l26.92-15.49c1.68-1,1.68-2.54,0-3.51Z"/><path class="d" d="M84.18,210.85l4.95,2.85a1.55,1.55,0,0,0,1.42,0,.43.43,0,0,0,0-.81l-5-2.85a1.55,1.55,0,0,0-1.42,0A.43.43,0,0,0,84.18,210.85Zm1.45,0a.81.81,0,0,1,.71,0l2.76,1.59c.19.11.19.29,0,.41a.8.8,0,0,1-.71,0l-2.76-1.59C85.44,211.17,85.44,211,85.63,210.87Z"/><path class="d" d="M114.64,194.39l3.16,1.82a.37.37,0,0,0,.5-.13h0a.36.36,0,0,0-.14-.5L115,193.76a.36.36,0,0,0-.49.13h0A.37.37,0,0,0,114.64,194.39Z"/><path class="f" d="M108.37,192.15l12.42,7.42a1,1,0,0,1,0,1.71L97.38,214.59a1.39,1.39,0,0,1-1.37,0l-11.76-6.45a1.4,1.4,0,0,1,0-2.43l22.72-13.58A1.4,1.4,0,0,1,108.37,192.15Z"/><path class="d" d="M201.15,127l-5.06,2.64-50.75-29.2a3.69,3.69,0,0,0-3.31.13L54.5,151c-.84-.46-4.66-2.29-4.66-2.29l1.85,4.81h0a1.08,1.08,0,0,0,.52.57l53.45,30.76a3.73,3.73,0,0,0,3.31-.14l89.57-51.53a1.65,1.65,0,0,0,.75-.8h0Z"/><path class="g" d="M200.37,127.86l-91.8,52.82a3.82,3.82,0,0,1-3.4.14L50.4,149.3c-.87-.5-.77-1.38.24-2l91.8-52.82a3.77,3.77,0,0,1,3.39-.14l54.78,31.52C201.48,126.41,201.37,127.28,200.37,127.86Z"/><path class="e" d="M64.68,146.35,141,102.46a1.65,1.65,0,0,1,1.64,0l27.17,15.66a.58.58,0,0,1,0,1L93.52,163a1.65,1.65,0,0,1-1.64,0l-27.2-15.64A.58.58,0,0,1,64.68,146.35Z"/><polygon class="h" points="144.66 106.43 78.39 144.55 75.44 142.85 141.71 104.73 144.66 106.43"/><polygon class="h" points="151.88 110.58 89.72 146.34 86.78 144.65 148.93 108.89 151.88 110.58"/><polygon class="h" points="156.58 113.29 83.4 155.39 80.46 153.7 153.64 111.59 156.58 113.29"/><polygon class="h" points="161.29 116 88.11 158.1 85.16 156.4 158.34 114.3 161.29 116"/><polygon class="h" points="165.99 118.7 92.81 160.8 89.87 159.11 163.04 117.01 165.99 118.7"/><polygon class="h" points="74.39 146.85 71.44 148.55 68.5 146.85 71.44 145.16 74.39 146.85"/><polygon class="h" points="84.78 149.19 78.66 152.71 75.72 151.01 81.83 147.49 84.78 149.19"/><path class="e" d="M143.9,157l20.57-11.83a.89.89,0,0,0,0-1.68l-14.07-8.09a3.24,3.24,0,0,0-2.91,0L126.92,147.2a.89.89,0,0,0,0,1.68L141,157A3.24,3.24,0,0,0,143.9,157Z"/><path class="d" d="M46.34,81.86V143c0,2.94.82,3.41,3.39,4.85l.06-.08,93-124.17-.65-.3-.27-.12a4.51,4.51,0,0,0-.44-.22,5.87,5.87,0,0,0-1-.41,4.5,4.5,0,0,0-1.53-.19,4.71,4.71,0,0,0-1.69.42,6.38,6.38,0,0,0-.74.37L51.29,72C48.23,73.73,46.34,78.34,46.34,81.86Z"/><path class="e" d="M51.26,147.89l91.25-52.35a4.68,4.68,0,0,0,2.35-4.06V27.22c0-2.07-2.24-4.71-4-3.68L52.88,74c-2.33,1.34-3.77,5.17-3.77,7.85v64.81A1.44,1.44,0,0,0,51.26,147.89Z"/><path class="f" d="M139.93,94.2a5.32,5.32,0,0,0,2.68-4.62V29.81A2.07,2.07,0,0,0,139.5,28L54.13,77a5.48,5.48,0,0,0-2.76,4.76v58.63a2.67,2.67,0,0,0,4,2.31Z"/><polygon class="h" points="132.19 42.63 132.19 82.24 63.19 122 63.13 82.43 132.19 42.63"/><path class="f" d="M75.79,79.43a3.05,3.05,0,0,1-1.4,2.39c-.78.44-1.4.09-1.4-.78a3,3,0,0,1,1.4-2.39C75.16,78.21,75.79,78.56,75.79,79.43Z"/><path class="f" d="M71.78,81.72a3,3,0,0,1-1.4,2.38c-.78.45-1.4.1-1.4-.78a3.05,3.05,0,0,1,1.4-2.39C71.15,80.49,71.78,80.84,71.78,81.72Z"/><path class="f" d="M67.77,84a3.08,3.08,0,0,1-1.4,2.39c-.78.44-1.4.09-1.4-.78a3,3,0,0,1,1.4-2.39C67.14,82.77,67.77,83.12,67.77,84Z"/><polygon class="i" points="130.73 52.81 130.73 55.7 64.89 93.64 64.83 90.79 130.73 52.81"/><polygon class="i" points="116.4 201.07 113.76 199.48 110.82 201.2 113.46 202.79 116.4 201.07"/><polygon class="h" points="112.56 198.75 109.92 197.16 106.98 198.88 109.62 200.48 112.56 198.75"/><polygon class="h" points="108.72 196.44 106.08 194.84 103.14 196.57 105.78 198.16 108.72 196.44"/><polygon class="h" points="112.22 203.52 109.58 201.93 106.64 203.65 109.28 205.24 112.22 203.52"/><polygon class="h" points="108.38 201.2 105.74 199.61 102.8 201.34 105.44 202.93 108.38 201.2"/><polygon class="h" points="104.54 198.89 101.9 197.29 98.96 199.02 101.6 200.61 104.54 198.89"/><polygon class="h" points="108.04 205.97 105.4 204.38 102.46 206.1 105.09 207.7 108.04 205.97"/><polygon class="h" points="103.85 208.42 101.22 206.83 98.27 208.56 100.91 210.15 103.85 208.42"/><polygon class="h" points="96.18 203.79 93.54 202.2 90.59 203.92 93.23 205.52 96.18 203.79"/><polygon class="i" points="104.2 203.66 101.56 202.06 98.62 203.79 101.26 205.38 104.2 203.66"/><polygon class="h" points="100.36 201.34 97.72 199.75 94.78 201.47 97.42 203.06 100.36 201.34"/><polygon class="i" points="160.14 172.69 183.34 186.33 195.63 179.2 172.43 165.56 160.14 172.69"/><polygon class="h" points="158.13 173.86 181.33 187.5 181.97 187.13 158.77 173.49 158.13 173.86"/><polygon class="h" points="156.4 174.86 179.6 188.5 180.24 188.13 157.04 174.49 156.4 174.86"/><polygon class="h" points="154.67 175.86 177.88 189.5 178.51 189.13 155.31 175.49 154.67 175.86"/><polygon class="h" points="174.38 164.23 197.58 177.87 199.68 176.77 176.47 163.13 174.38 164.23"/><polygon class="h" points="158.73 195.25 156.09 193.66 153.15 195.38 155.79 196.97 158.73 195.25"/><polygon class="i" points="153.43 192.21 150.79 190.61 147.85 192.34 150.49 193.93 153.43 192.21"/><polygon class="h" points="148.13 189.16 145.49 187.57 142.55 189.29 145.19 190.89 148.13 189.16"/><text class="j" transform="matrix(0.86, -0.51, 0, 0.79, 67.02, 113.48)">CLIENT</text><path class="f" d="M692,92.76h8.11l-1.94-4.4L617.28,56.92V159h0a.89.89,0,0,0,.49.65L691.52,202a1.92,1.92,0,0,0,.46.18Z"/><path class="e" d="M692,202.22l.95.1h0a3.41,3.41,0,0,0,1.49-.4l44.32-25.5a1.24,1.24,0,0,0,.71-.92h0V73.5L692,100.3l.1,48"/><path class="g" d="M690.56,100.12,617.92,57.53c-.74-.43-.65-1.18.21-1.67l44.38-25.4a3.26,3.26,0,0,1,2.91-.11l73.63,42.58c.75.43.65,1.18-.21,1.68L693.46,100A3.21,3.21,0,0,1,690.56,100.12Z"/><polygon class="k" points="664.49 34.89 629.07 55.27 625.63 54.63 625.63 57.25 692.25 95.57 725.98 72.72 664.49 34.89"/><polygon class="l" points="731.11 70.6 731.11 73.22 692.25 95.57 692.25 92.96 731.11 70.6"/><polygon class="i" points="692.25 92.96 625.63 54.63 664.49 32.28 731.11 70.6 692.25 92.96"/><polygon class="f" points="650.5 51.84 649.43 51.23 649.52 50.73 659.37 45.02 660.74 45.67 660.48 46.09 650.5 51.84"/><polygon class="f" points="659.42 45.48 660.48 46.09 661.16 45.7 659.42 44.7 648.75 50.84 649.44 51.23 659.42 45.48"/><polygon class="f" points="653.72 53.69 652.66 53.08 652.75 52.58 662.59 46.87 663.96 47.52 663.7 47.94 653.72 53.69"/><polygon class="f" points="662.64 47.33 663.7 47.94 664.39 47.55 662.64 46.55 651.98 52.68 652.66 53.08 662.64 47.33"/><polygon class="f" points="656.94 55.53 655.88 54.92 655.97 54.43 665.81 48.72 667.18 49.37 666.92 49.79 656.94 55.53"/><polygon class="f" points="665.86 49.18 666.92 49.79 667.61 49.4 665.86 48.39 655.2 54.53 655.88 54.92 665.86 49.18"/><polygon class="f" points="660.16 57.38 659.1 56.77 659.19 56.28 669.03 50.57 670.4 51.22 670.14 51.64 660.16 57.38"/><polygon class="f" points="669.09 51.03 670.14 51.64 670.83 51.24 669.09 50.24 658.42 56.38 659.1 56.77 669.09 51.03"/><polygon class="f" points="669.58 62.84 668.52 62.23 668.61 61.73 678.45 56.02 679.82 56.67 679.57 57.09 669.58 62.84"/><polygon class="f" points="678.51 56.48 679.57 57.09 680.25 56.7 678.51 55.7 667.84 61.83 668.52 62.23 678.51 56.48"/><polygon class="f" points="672.8 64.68 671.74 64.07 671.83 63.58 681.67 57.87 683.04 58.52 682.79 58.94 672.8 64.68"/><polygon class="f" points="681.73 58.33 682.79 58.94 683.47 58.55 681.73 57.54 671.06 63.68 671.74 64.07 681.73 58.33"/><polygon class="f" points="676.03 66.53 674.96 65.92 675.05 65.42 684.9 59.72 686.26 60.37 686.01 60.79 676.03 66.53"/><polygon class="f" points="684.95 60.18 686.01 60.79 686.69 60.4 684.95 59.39 674.28 65.53 674.97 65.92 684.95 60.18"/><polygon class="f" points="679.25 68.38 678.18 67.77 678.27 67.27 688.12 61.56 689.49 62.21 689.23 62.64 679.25 68.38"/><polygon class="f" points="688.17 62.03 689.23 62.64 689.91 62.24 688.17 61.24 677.5 67.38 678.19 67.77 688.17 62.03"/><polygon class="f" points="688.67 73.83 687.61 73.22 687.69 72.73 697.54 67.02 698.91 67.67 698.65 68.09 688.67 73.83"/><polygon class="f" points="697.59 67.48 698.65 68.09 699.34 67.7 697.59 66.69 686.92 72.83 687.61 73.22 697.59 67.48"/><polygon class="f" points="691.89 75.68 690.83 75.07 690.92 74.58 700.76 68.87 702.13 69.52 701.87 69.94 691.89 75.68"/><polygon class="f" points="700.81 69.33 701.87 69.94 702.56 69.54 700.81 68.54 690.15 74.68 690.83 75.07 700.81 69.33"/><polygon class="f" points="695.11 77.53 694.05 76.92 694.14 76.42 703.98 70.71 705.35 71.36 705.09 71.78 695.11 77.53"/><polygon class="f" points="704.03 71.18 705.09 71.79 705.78 71.39 704.03 70.39 693.37 76.53 694.05 76.92 704.03 71.18"/><polygon class="f" points="698.33 79.38 697.27 78.77 697.36 78.27 707.2 72.56 708.57 73.21 708.32 73.63 698.33 79.38"/><polygon class="f" points="707.26 73.02 708.32 73.63 709 73.24 707.26 72.24 696.59 78.37 697.27 78.77 707.26 73.02"/><path class="f" d="M701.15,149.36a1.21,1.21,0,0,1-.62-1.07V106.57a2.65,2.65,0,0,1,1.33-2.3l30.25-17.41a1.27,1.27,0,0,1,1.25,0,1.24,1.24,0,0,1,.62,1.08v41.72a2.64,2.64,0,0,1-1.34,2.3l-30.25,17.4a1.14,1.14,0,0,1-.62.17A1.19,1.19,0,0,1,701.15,149.36Zm31.32-61.88-30.25,17.4a1.94,1.94,0,0,0-1,1.69v41.72a.52.52,0,0,0,.27.46.51.51,0,0,0,.53,0l30.25-17.4a2,2,0,0,0,1-1.69V87.94a.56.56,0,0,0-.54-.54A.5.5,0,0,0,732.47,87.48Z"/><g class="m"><g class="n"><path class="o" d="M505.35,193.74c-18.18,10.45-17.69,10.45-35.87,0s-18.17-27.41,0-37.87,17.69-10.46,35.87,0S523.52,183.28,505.35,193.74Z"/><path class="p" d="M486,156.72c-6.36-5.81,9.28-5.88,2.86-.15-3.23,2.89-3.25,6.74-.05,9.66a12.91,12.91,0,0,0,1.91,1.41c6.33-3.84-13-3.79-6.71.13a12,12,0,0,0,1.93-1.39C489.2,163.49,489.22,159.65,486,156.72Z"/><path class="q" d="M485.35,145.65l-10.58-6.16-10.24,5.82,10.58,6.17c-.21.18-.38.38-.58.57a15.48,15.48,0,0,0-3.55,5.1l-5.38,0-9.63-.05-.05,8.31,15,.08a12.84,12.84,0,0,0,1.06,2.09,17.65,17.65,0,0,0,3,3.64l-10.63,6,1.13.66,8.86,5.16.19.11,10.64-6c1,.35,1.95.66,2.95.95a50.21,50.21,0,0,0,6.94,1.45v2.53l0,6.11-15.52.08,0-6.11V179.6a50.42,50.42,0,0,0,7-1.38c1-.28,2-.58,3-.92l10.57,6.16.18-.1,8.93-5.07,1.14-.65-10.58-6.16a17,17,0,0,0,3-3.61,12.87,12.87,0,0,0,1.09-2.07l15,.08,0-8.31-9.63,0-5.38,0a15.34,15.34,0,0,0-3.49-5.14c-.2-.19-.37-.39-.57-.58l10.64-6.05-10.18-5.93-10.64,6.05a47.67,47.67,0,0,0-9.89-2.41l0-8.64,15.52-.08-.05,8.64A48,48,0,0,0,485.35,145.65Zm.6,20.73a12,12,0,0,1-1.93,1.39c-6.32,3.85,13,3.79,6.71-.13a12.91,12.91,0,0,1-1.91-1.41c-3.2-2.92-3.18-6.77.05-9.66,6.42-5.73-9.22-5.66-2.86.15C489.22,159.65,489.2,163.49,486,166.38Z"/><polygon class="r" points="464.36 177.23 474.54 183.16 474.47 195.62 464.29 189.69 464.36 177.23"/><polygon class="p" points="485.18 177.12 485.11 189.57 474.47 195.62 474.54 183.16 485.18 177.12"/><polygon class="r" points="479.51 188.24 479.44 200.7 494.96 200.62 495.03 188.16 479.51 188.24"/><path class="r" d="M495.07,179.52,495,192a48.86,48.86,0,0,1-9.9-2.4l.07-12.46C488.15,178.38,495.07,179.52,495.07,179.52Z"/><polygon class="p" points="470.94 165.46 470.89 173.52 464.36 177.23 464.35 177.88 455.86 177.84 455.92 165.38 470.94 165.46"/><path class="s" d="M470.94,165.46a16.44,16.44,0,0,0,4.05,5.73l-4.1,2.33Z"/><polygon class="r" points="500.05 183.46 499.99 195.92 489.41 189.76 489.48 177.3 500.05 183.46"/><polygon class="p" points="510.3 177.64 510.23 190.1 499.99 195.92 500.05 183.46 510.3 177.64"/><path class="p" d="M489.48,177.3c0-.82-.07,12.46-.07,12.46a44.34,44.34,0,0,1-9.92,2.3c0-.74.07-12.46.07-12.46A54.74,54.74,0,0,0,489.48,177.3Z"/><polygon class="r" points="518.86 165.88 518.79 178.34 510.3 178.29 510.3 177.64 503.8 173.85 503.85 165.8 518.86 165.88"/><path class="p" d="M503.85,165.8l-.05,8.06-4.08-2.38A18.22,18.22,0,0,0,503.85,165.8Z"/><path class="p" d="M510.47,145.72l-.06,11.83-6.52-.06a16.45,16.45,0,0,0-4.06-5.72Z"/><path class="p" d="M475.11,151.48a16.9,16.9,0,0,0-4.13,5.67l-6.52,0,.07-11.81Z"/></g></g><path class="h" d="M628.84,102.49a8.12,8.12,0,0,1,4.29,7.19v.58l-2.75-1.63v-.76a2.85,2.85,0,0,0-1.46-2.69c-.93-.55-1.46-.36-1.46,1,0,3.8,5.7,7.89,5.7,13.17,0,3-1.48,3.77-4.35,2.07a8.18,8.18,0,0,1-4.34-7.21V113l2.75,1.63V116a2.9,2.9,0,0,0,1.51,2.69c.93.55,1.52.42,1.52-.9,0-3.8-5.7-7.89-5.7-13.17C624.55,101.65,626,100.82,628.84,102.49Z"/><path class="h" d="M637.74,115.76l4,2.36v2.64l-4-2.36v5.41l5,3v2.64l-7.95-4.7V106.25l7.95,4.7v2.64l-5-3Z"/><path class="h" d="M650.67,134.1a7.45,7.45,0,0,1-.26-2.43v-2.91a3.54,3.54,0,0,0-1.91-3.47l-1-.6v7.53l-2.91-1.73V112l4.4,2.6c3,1.79,4.32,4,4.32,6.81v1.45c0,1.9-.61,2.78-1.91,2.62a6.73,6.73,0,0,1,1.93,5.08v2.85a6.9,6.9,0,0,0,.32,2.43Zm-3.18-17.73v5.68l1.14.67c1.09.65,1.75.56,1.75-.92V120a2.9,2.9,0,0,0-1.48-2.78Z"/><path class="h" d="M659.58,136l2.22-13.76,2.68,1.58-2.86,16.8L657.27,138l-2.86-20.18,2.94,1.74Z"/><path class="h" d="M668.74,134.09l4,2.36v2.64l-4-2.36v5.41l5,3v2.64l-7.95-4.7V124.57l7.95,4.7v2.64l-5-3Z"/><path class="h" d="M681.68,152.42a7,7,0,0,1-.27-2.42v-2.91a3.56,3.56,0,0,0-1.91-3.48l-1-.59v7.52l-2.92-1.72V130.34l4.4,2.6c3,1.78,4.32,3.95,4.32,6.8v1.46c0,1.9-.61,2.78-1.91,2.62a6.73,6.73,0,0,1,1.94,5.07v2.86a6.92,6.92,0,0,0,.31,2.43ZM678.5,134.7v5.68l1.14.67c1.08.64,1.74.56,1.74-.92v-1.82a2.89,2.89,0,0,0-1.48-2.78Z"/><polyline class="e" points="152.42 783 124.36 810.97 96.3 783"/><polyline class="e" points="705.83 783 677.77 810.97 649.7 783"/><path class="e" d="M79.07,558.1V544.19h4.1v4.7h24.64v4.51H83.17v4.7Z"/><path class="e" d="M79.07,542.22v-4.5h28.74v4.5Z"/><path class="e" d="M99.48,524.91l-20.41-3.07v-6.26h28.74v4.26H87.2L107.81,523v4.26l-20.32,3.35h20.32v3.93H79.07v-6.26Z"/><path class="e" d="M91.18,507.81v-6.18h4.11v6.18h8.42V500h4.1v12.28H79.07V500h4.1v7.78Z"/><path class="b" d="M238.43,123c0-61.9-50.35-112.07-112.47-112.07S13.5,61.1,13.5,123,63.85,235.07,126,235.07V783"/><path class="b" d="M789.5,122.73c0,61.89-50.35,112.07-112.46,112.07"/><path class="b" d="M238.2,122.73c0,61.89-50.35,112.07-112.46,112.07"/></svg>