<svg xmlns="http://www.w3.org/2000/svg" viewBox="0 0 600 600"><path fill="#495466" d="M571.53 385.75h-42.88V142.8a57.21 57.21 0 00-57.16-57.16h-343a57.21 57.21 0 00-57.14 57.16v243H28.47A14.33 14.33 0 0014.18 400v42.87a71.55 71.55 0 0071.46 71.45h428.72a71.55 71.55 0 0071.46-71.45V400a14.33 14.33 0 00-14.29-14.25zM99.93 142.8a28.55 28.55 0 0128.58-28.58h343a28.55 28.55 0 0128.58 28.58v243H363.51c-3.67 0-6.26 2.76-7.06 6.34a28.55 28.55 0 01-27.87 22.24h-57.16a28.55 28.55 0 01-27.87-22.24c-.8-3.58-3.48-6.34-7.06-6.34H99.93zm457.31 300.11a42.89 42.89 0 01-42.88 42.87H85.64a42.89 42.89 0 01-42.88-42.87v-28.58h174a43 43 0 0040.37 28.58h85.74a42.78 42.78 0 0040.37-28.58h174z"/><path d="M252 305l10.09-10.09a7.16 7.16 0 000-10.09l-42-42 42-42a7.18 7.18 0 000-10.1L252 180.67a7.18 7.18 0 00-10.1 0l-57.16 57.16a7.18 7.18 0 000 10.1l57.16 57.16A7.1 7.1 0 00252 305zM337.78 294.91L347.87 305a7.18 7.18 0 0010.1 0l57.16-57.16a7.16 7.16 0 000-10.09L358 180.58a7.18 7.18 0 00-10.1 0l-10.09 10.09a7.18 7.18 0 000 10.1l42 42-42 42a7.27 7.27 0 000 10.18z" fill="#ffa600" /></svg>