<?xml version="1.0" encoding="iso-8859-1"?>
<!-- Generator: Adobe Illustrator 25.0.1, SVG Export Plug-In . SVG Version: 6.00 Build 0)  -->
<svg version="1.1" xmlns="http://www.w3.org/2000/svg" xmlns:xlink="http://www.w3.org/1999/xlink" x="0px" y="0px"
	 viewBox="0 0 800 816.683" style="enable-background:new 0 0 800 816.683;" xml:space="preserve">
<g id="step1">
	<g>
		<g>
			<path style="fill:#313333;" d="M251.273,370.525l-0.266,5.446l-2.552-0.125l0.716-14.684l5.617,0.274
				c1.641,0.079,2.923,0.569,3.847,1.473c0.923,0.901,1.35,2.056,1.281,3.462c-0.07,1.44-0.597,2.538-1.58,3.293
				c-0.984,0.755-2.327,1.091-4.027,1.008L251.273,370.525z M251.374,368.468l3.065,0.149c0.908,0.044,1.611-0.137,2.109-0.54
				c0.497-0.404,0.767-1.009,0.806-1.815c0.038-0.793-0.173-1.438-0.633-1.937c-0.462-0.497-1.115-0.774-1.962-0.829l-3.137-0.152
				L251.374,368.468z"/>
			<path style="fill:#313333;" d="M267.557,368.083c-0.319-0.069-0.652-0.111-0.994-0.128c-1.123-0.055-1.901,0.339-2.331,1.18
				l-0.364,7.463l-2.451-0.119l0.532-10.912l2.34,0.114l0.001,1.224c0.637-0.92,1.48-1.354,2.53-1.303
				c0.349,0.017,0.635,0.078,0.86,0.184L267.557,368.083z"/>
			<path style="fill:#313333;" d="M273.478,377.268c-1.553-0.076-2.789-0.627-3.706-1.652c-0.916-1.024-1.336-2.351-1.257-3.978
				l0.015-0.303c0.054-1.089,0.312-2.053,0.772-2.889c0.463-0.837,1.085-1.475,1.868-1.916c0.783-0.439,1.642-0.638,2.576-0.592
				c1.486,0.072,2.611,0.603,3.375,1.591c0.764,0.986,1.104,2.348,1.019,4.082l-0.048,0.988l-7.13-0.348
				c0.03,0.904,0.296,1.632,0.799,2.183c0.502,0.55,1.153,0.845,1.954,0.884c1.122,0.055,2.058-0.355,2.809-1.229l1.26,1.326
				c-0.47,0.63-1.077,1.108-1.823,1.432C275.213,377.172,274.385,377.312,273.478,377.268z M273.641,367.905
				c-0.672-0.032-1.227,0.177-1.664,0.627c-0.436,0.45-0.731,1.094-0.887,1.928l4.669,0.228l0.009-0.182
				c-0.015-0.822-0.201-1.453-0.564-1.893C274.841,368.174,274.319,367.938,273.641,367.905z"/>
			<path style="fill:#313333;" d="M282.372,377.5l-2.451-0.119l0.755-15.49l2.451,0.119L282.372,377.5z"/>
			<path style="fill:#313333;" d="M284.851,372.049c0.053-1.068,0.312-2.021,0.776-2.857s1.092-1.466,1.881-1.891
				c0.789-0.422,1.682-0.609,2.677-0.562c1.473,0.072,2.645,0.604,3.517,1.598c0.871,0.992,1.306,2.274,1.304,3.844l-0.019,0.575
				c-0.053,1.076-0.307,2.028-0.761,2.854c-0.455,0.827-1.078,1.454-1.87,1.879c-0.793,0.428-1.693,0.616-2.702,0.566
				c-1.54-0.075-2.747-0.647-3.621-1.718s-1.271-2.46-1.188-4.168L284.851,372.049z M287.291,372.381
				c-0.055,1.123,0.135,2.014,0.567,2.672c0.433,0.657,1.063,1.007,1.891,1.047s1.486-0.251,1.979-0.874
				c0.491-0.622,0.768-1.557,0.828-2.801c0.054-1.102-0.141-1.987-0.583-2.655c-0.442-0.67-1.07-1.023-1.884-1.063
				c-0.8-0.039-1.451,0.247-1.953,0.86S287.353,371.118,287.291,372.381z"/>
			<path style="fill:#313333;" d="M303.318,378.521c-0.098-0.215-0.175-0.559-0.232-1.032c-0.82,0.775-1.794,1.135-2.924,1.08
				c-1.096-0.054-1.975-0.41-2.637-1.068c-0.663-0.66-0.97-1.449-0.925-2.371c0.057-1.162,0.53-2.033,1.425-2.613
				s2.146-0.831,3.753-0.752l1.502,0.073l0.035-0.716c0.027-0.565-0.109-1.025-0.409-1.381c-0.299-0.354-0.771-0.548-1.416-0.579
				c-0.558-0.027-1.022,0.09-1.392,0.352c-0.371,0.262-0.565,0.608-0.586,1.038l-2.452-0.119c0.029-0.599,0.255-1.148,0.677-1.651
				c0.422-0.501,0.982-0.884,1.68-1.146c0.695-0.263,1.465-0.374,2.306-0.333c1.276,0.062,2.279,0.434,3.008,1.113
				c0.729,0.679,1.075,1.6,1.039,2.765l-0.24,4.921c-0.048,0.982,0.052,1.772,0.299,2.37l-0.009,0.172L303.318,378.521z
				 M300.712,376.625c0.483,0.024,0.945-0.072,1.384-0.286c0.438-0.214,0.774-0.515,1.009-0.901l0.101-2.057l-1.321-0.064
				c-0.907-0.045-1.598,0.08-2.07,0.374s-0.723,0.729-0.751,1.308c-0.022,0.47,0.115,0.854,0.414,1.147
				S300.187,376.599,300.712,376.625z"/>
			<path style="fill:#313333;" d="M307.783,373.188c0.082-1.681,0.538-3.011,1.368-3.991c0.829-0.98,1.9-1.439,3.211-1.376
				c1.156,0.057,2.07,0.507,2.744,1.348l0.272-5.587l2.45,0.119l-0.755,15.49l-2.219-0.107l-0.066-1.136
				c-0.776,0.852-1.775,1.247-2.999,1.188c-1.277-0.062-2.285-0.627-3.025-1.694C308.024,376.375,307.697,374.957,307.783,373.188z
				 M310.224,373.52c-0.055,1.109,0.117,1.985,0.515,2.628c0.396,0.643,0.988,0.983,1.774,1.021
				c1.002,0.049,1.756-0.363,2.265-1.234l0.227-4.659c-0.408-0.896-1.112-1.368-2.114-1.417c-0.794-0.038-1.421,0.245-1.881,0.854
				C310.547,371.32,310.285,372.256,310.224,373.52z"/>
			<path style="fill:#313333;" d="M321.234,376.806c0.457,0.022,0.803,0.169,1.04,0.439c0.235,0.271,0.344,0.602,0.325,0.991
				c-0.019,0.384-0.159,0.695-0.42,0.936c-0.261,0.239-0.62,0.35-1.077,0.327c-0.438-0.021-0.776-0.163-1.021-0.425
				c-0.243-0.262-0.356-0.586-0.337-0.977c0.019-0.39,0.16-0.708,0.422-0.955C320.428,376.897,320.783,376.784,321.234,376.806z
				 M321.651,368.244c0.457,0.022,0.804,0.169,1.04,0.44c0.235,0.271,0.345,0.601,0.325,0.991c-0.019,0.383-0.159,0.694-0.419,0.935
				c-0.262,0.239-0.62,0.35-1.077,0.327c-0.438-0.021-0.777-0.163-1.021-0.425c-0.243-0.261-0.355-0.586-0.337-0.976
				c0.02-0.391,0.16-0.709,0.422-0.956C320.846,368.335,321.2,368.221,321.651,368.244z"/>
			<path style="fill:#313333;" d="M332.455,365.798l-0.544,3.886l-1.401-0.068l0.258-5.284l1.755,0.086L332.455,365.798z
				 M335.49,365.946l-0.543,3.887l-1.402-0.068l0.258-5.284l1.755,0.085L335.49,365.946z"/>
			<path style="fill:#313333;" d="M337.575,381.454l-1.926-0.094l6.556-15.662l1.926,0.094L337.575,381.454z"/>
			<path style="fill:#313333;" d="M351.635,380.877c-0.098-0.215-0.175-0.559-0.232-1.032c-0.82,0.775-1.794,1.135-2.924,1.08
				c-1.096-0.054-1.975-0.41-2.637-1.068c-0.663-0.66-0.97-1.449-0.925-2.371c0.057-1.162,0.53-2.034,1.425-2.613
				c0.895-0.58,2.146-0.831,3.753-0.752l1.502,0.072l0.035-0.715c0.027-0.566-0.109-1.025-0.409-1.381
				c-0.299-0.354-0.771-0.548-1.416-0.579c-0.558-0.027-1.022,0.09-1.392,0.351c-0.371,0.263-0.565,0.609-0.586,1.039l-2.451-0.12
				c0.029-0.599,0.254-1.147,0.676-1.65c0.422-0.501,0.982-0.884,1.68-1.146c0.695-0.263,1.465-0.374,2.306-0.333
				c1.277,0.062,2.279,0.433,3.008,1.112c0.729,0.679,1.075,1.601,1.039,2.766l-0.24,4.921c-0.048,0.982,0.052,1.772,0.299,2.37
				l-0.009,0.172L351.635,380.877z M349.028,378.98c0.483,0.023,0.945-0.072,1.384-0.286s0.774-0.515,1.009-0.902l0.101-2.057
				l-1.32-0.063c-0.908-0.045-1.599,0.08-2.071,0.373c-0.473,0.295-0.723,0.729-0.751,1.309c-0.022,0.47,0.115,0.854,0.414,1.147
				S348.503,378.955,349.028,378.98z"/>
			<path style="fill:#313333;" d="M362.952,380.356c-0.761,0.812-1.804,1.186-3.129,1.121c-1.183-0.058-2.062-0.447-2.636-1.169
				c-0.576-0.723-0.831-1.739-0.767-3.051l0.345-7.069l2.451,0.12l-0.344,7.039c-0.067,1.386,0.474,2.105,1.624,2.162
				c1.189,0.058,2.013-0.331,2.473-1.164l0.382-7.836l2.45,0.119l-0.532,10.912l-2.309-0.112L362.952,380.356z"/>
			<path style="fill:#313333;" d="M371.498,368.248l-0.129,2.652l1.926,0.094l-0.089,1.815l-1.926-0.094l-0.297,6.091
				c-0.021,0.417,0.047,0.722,0.203,0.915s0.444,0.3,0.869,0.321c0.281,0.014,0.569-0.007,0.861-0.061l-0.092,1.896
				c-0.566,0.128-1.107,0.179-1.625,0.153c-1.883-0.092-2.773-1.176-2.672-3.254l0.301-6.182l-1.795-0.088l0.089-1.815l1.795,0.088
				l0.129-2.652L371.498,368.248z"/>
			<path style="fill:#313333;" d="M377.521,372.393c0.847-0.889,1.881-1.304,3.105-1.244c2.325,0.113,3.439,1.5,3.345,4.156
				l-0.348,7.131l-2.451-0.12l0.343-7.04c0.037-0.753-0.099-1.293-0.41-1.622c-0.312-0.328-0.782-0.507-1.414-0.538
				c-0.981-0.048-1.735,0.353-2.264,1.203l-0.38,7.796l-2.45-0.119l0.755-15.49l2.45,0.119L377.521,372.393z"/>
			<path style="fill:#313333;" d="M385.912,376.976c0.053-1.068,0.312-2.021,0.776-2.857s1.092-1.466,1.881-1.891
				c0.789-0.423,1.682-0.61,2.677-0.562c1.473,0.071,2.645,0.604,3.516,1.598c0.871,0.992,1.307,2.273,1.304,3.844l-0.018,0.575
				c-0.053,1.076-0.307,2.027-0.762,2.854c-0.454,0.827-1.077,1.453-1.869,1.879c-0.794,0.428-1.693,0.615-2.702,0.566
				c-1.54-0.075-2.747-0.647-3.622-1.719c-0.874-1.069-1.27-2.459-1.187-4.167L385.912,376.976z M388.353,377.307
				c-0.055,1.123,0.135,2.015,0.567,2.672s1.063,1.008,1.891,1.048s1.486-0.252,1.978-0.875c0.492-0.622,0.769-1.556,0.829-2.8
				c0.054-1.102-0.141-1.987-0.584-2.656c-0.442-0.669-1.069-1.023-1.883-1.062c-0.8-0.039-1.451,0.247-1.953,0.86
				C388.695,375.106,388.414,376.044,388.353,377.307z"/>
			<path style="fill:#313333;" d="M403.995,374.734c-0.319-0.069-0.651-0.111-0.994-0.128c-1.122-0.056-1.9,0.339-2.331,1.18
				l-0.364,7.463l-2.451-0.119l0.532-10.912l2.34,0.114l0.001,1.224c0.637-0.92,1.48-1.354,2.53-1.303
				c0.35,0.017,0.635,0.077,0.86,0.184L403.995,374.734z"/>
			<path style="fill:#313333;" d="M407.486,369.456l-0.543,3.887l-1.402-0.068l0.258-5.284l1.755,0.085L407.486,369.456z
				 M410.521,369.604l-0.542,3.886l-1.402-0.068l0.258-5.284l1.754,0.086L410.521,369.604z"/>
			<path style="fill:#313333;" d="M412.164,387.142l-1.283-0.851c0.421-0.593,0.713-1.113,0.88-1.56
				c0.168-0.446,0.266-0.905,0.295-1.376l0.093-1.905l2.208,0.107l-0.096,1.764c-0.041,0.713-0.256,1.419-0.644,2.117
				C413.229,386.138,412.745,386.706,412.164,387.142z"/>
			<path style="fill:#313333;" d="M423.864,370.254l-0.543,3.886l-1.402-0.068l0.258-5.284l1.755,0.086L423.864,370.254z
				 M426.899,370.402l-0.542,3.887l-1.402-0.068l0.258-5.284l1.754,0.085L426.899,370.402z"/>
			<path style="fill:#313333;" d="M428.984,385.91l-1.926-0.094l6.556-15.662l1.927,0.094L428.984,385.91z"/>
			<path style="fill:#313333;" d="M442.66,376.619c-0.319-0.069-0.651-0.111-0.994-0.128c-1.122-0.055-1.901,0.339-2.331,1.18
				l-0.364,7.463l-2.451-0.119l0.532-10.912l2.34,0.114l0.001,1.224c0.637-0.92,1.48-1.354,2.53-1.303
				c0.35,0.017,0.635,0.077,0.86,0.184L442.66,376.619z"/>
			<path style="fill:#313333;" d="M448.581,385.803c-1.553-0.075-2.788-0.626-3.705-1.651c-0.917-1.024-1.336-2.351-1.257-3.978
				l0.015-0.303c0.054-1.089,0.311-2.053,0.772-2.889c0.462-0.837,1.085-1.475,1.868-1.916c0.783-0.439,1.642-0.638,2.576-0.593
				c1.486,0.073,2.61,0.604,3.374,1.591s1.104,2.349,1.02,4.083l-0.048,0.988l-7.13-0.348c0.029,0.904,0.295,1.632,0.798,2.183
				c0.503,0.549,1.153,0.845,1.954,0.884c1.123,0.055,2.059-0.355,2.81-1.229l1.259,1.326c-0.469,0.631-1.077,1.109-1.823,1.433
				C450.316,385.709,449.488,385.848,448.581,385.803z M448.745,376.441c-0.673-0.033-1.228,0.177-1.664,0.627
				s-0.732,1.094-0.888,1.928l4.67,0.228l0.009-0.182c-0.015-0.823-0.202-1.453-0.564-1.893
				C449.944,376.711,449.424,376.474,448.745,376.441z"/>
			<path style="fill:#313333;" d="M458.737,382.983l2.689-7.692l2.532,0.123l-4.314,10.728l-2.128-0.104l-3.28-11.098l2.542,0.124
				L458.737,382.983z"/>
			<path style="fill:#313333;" d="M467.562,386.528l-2.451-0.12l0.532-10.912l2.451,0.12L467.562,386.528z M465.629,372.655
				c0.019-0.376,0.154-0.684,0.404-0.921s0.599-0.346,1.043-0.323c0.443,0.021,0.779,0.163,1.009,0.424
				c0.231,0.26,0.337,0.579,0.318,0.955c-0.018,0.37-0.154,0.672-0.409,0.905c-0.253,0.233-0.602,0.34-1.045,0.318
				c-0.444-0.022-0.78-0.162-1.007-0.419C465.716,373.338,465.611,373.025,465.629,372.655z"/>
			<path style="fill:#313333;" d="M475.024,387.092c-1.553-0.075-2.789-0.626-3.705-1.651c-0.917-1.024-1.337-2.351-1.258-3.978
				l0.015-0.303c0.054-1.089,0.312-2.053,0.773-2.889c0.462-0.837,1.084-1.475,1.867-1.916c0.783-0.439,1.642-0.638,2.576-0.593
				c1.486,0.073,2.611,0.604,3.375,1.591s1.104,2.349,1.02,4.083l-0.048,0.988l-7.131-0.348c0.03,0.904,0.296,1.632,0.799,2.183
				c0.503,0.549,1.153,0.845,1.954,0.884c1.122,0.055,2.058-0.355,2.809-1.229l1.26,1.326c-0.47,0.631-1.077,1.109-1.823,1.433
				C476.76,386.998,475.932,387.137,475.024,387.092z M475.188,377.73c-0.672-0.033-1.227,0.177-1.664,0.627
				c-0.436,0.45-0.731,1.094-0.887,1.928l4.67,0.228l0.009-0.182c-0.015-0.823-0.202-1.453-0.565-1.894
				C476.388,378,475.866,377.763,475.188,377.73z"/>
			<path style="fill:#313333;" d="M491.063,384.286l2.101-7.448l2.391,0.116l-3.508,10.768l-2.016-0.099l-1.976-7.607l-2.665,7.382
				l-2.016-0.099l-2.454-11.058l2.391,0.116l1.401,7.539l2.603-7.344l1.845,0.09L491.063,384.286z"/>
			<path style="fill:#313333;" d="M502.922,385.278c0.021-0.437-0.143-0.778-0.49-1.023c-0.35-0.246-0.937-0.477-1.761-0.693
				c-0.825-0.215-1.511-0.47-2.057-0.767c-1.193-0.651-1.763-1.538-1.708-2.662c0.046-0.941,0.479-1.708,1.304-2.301
				c0.824-0.594,1.849-0.86,3.072-0.801c1.305,0.063,2.343,0.438,3.114,1.123c0.771,0.684,1.132,1.541,1.082,2.569l-2.45-0.12
				c0.023-0.47-0.133-0.87-0.467-1.2c-0.335-0.329-0.791-0.508-1.369-0.536c-0.538-0.026-0.982,0.077-1.334,0.309
				c-0.352,0.232-0.537,0.558-0.558,0.974c-0.019,0.377,0.125,0.678,0.431,0.9c0.307,0.224,0.935,0.466,1.885,0.724
				c0.952,0.259,1.694,0.548,2.229,0.867c0.532,0.318,0.923,0.69,1.169,1.113c0.245,0.423,0.354,0.927,0.325,1.512
				c-0.048,0.981-0.493,1.756-1.336,2.326c-0.844,0.568-1.925,0.82-3.242,0.756c-0.894-0.043-1.683-0.243-2.367-0.6
				c-0.684-0.357-1.206-0.827-1.568-1.411s-0.528-1.202-0.496-1.854l2.381,0.116c0.005,0.58,0.202,1.037,0.59,1.368
				c0.388,0.333,0.915,0.515,1.581,0.548c0.646,0.031,1.142-0.068,1.49-0.297C502.719,385.988,502.902,385.675,502.922,385.278z"/>
			<path style="fill:#313333;" d="M507.95,389.759l-1.926-0.094l6.556-15.662l1.927,0.094L507.95,389.759z"/>
			<path style="fill:#313333;" d="M518.062,379.158l-3.033-1.036l0.638-1.675l2.987,1.326l0.019-3.473l1.805,0.088l-0.322,3.519
				l3.052-1.013l0.459,1.76l-3.169,0.734l1.887,2.78l-1.516,0.998l-1.673-2.994l-1.933,2.728l-1.422-1.102L518.062,379.158z"/>
			<path style="fill:#313333;" d="M526.822,375.273l-0.544,3.887l-1.401-0.068l0.258-5.284l1.755,0.085L526.822,375.273z
				 M529.857,375.421l-0.543,3.886l-1.402-0.068l0.258-5.284l1.755,0.086L529.857,375.421z"/>
		</g>
		<path style="fill:#F7851F;" d="M542.471,405.369l-1.184-0.06L226.154,389.3l2.282-39.735l1.184,0.06l315.134,16.009
			L542.471,405.369z M228.648,387.208l311.583,15.828l2.027-35.311l-311.583-15.828L228.648,387.208z"/>
	</g>
	<g>
		<g>
			<path style="fill:#F7851F;" d="M307.694,334.881l0.184-2.702l6.19,0.421l-0.632,9.279c-0.823,0.317-1.677,0.536-2.558,0.655
				c-0.882,0.116-1.833,0.142-2.854,0.072c-1.207-0.082-2.28-0.342-3.216-0.78c-0.938-0.438-1.72-1.049-2.344-1.831
				s-1.08-1.731-1.364-2.848c-0.286-1.116-0.379-2.393-0.282-3.83c0.099-1.447,0.376-2.729,0.831-3.849s1.07-2.051,1.849-2.796
				c0.776-0.745,1.706-1.291,2.785-1.637c1.08-0.345,2.295-0.473,3.645-0.381c0.798,0.054,1.572,0.177,2.321,0.366
				c0.75,0.188,1.494,0.424,2.232,0.706l-0.22,3.235c-0.637-0.356-1.345-0.66-2.125-0.914c-0.781-0.254-1.575-0.408-2.382-0.463
				c-0.816-0.056-1.548,0.037-2.192,0.279c-0.645,0.241-1.197,0.609-1.653,1.104c-0.458,0.495-0.82,1.117-1.09,1.865
				s-0.436,1.602-0.502,2.561c-0.062,0.924-0.035,1.761,0.083,2.513c0.118,0.753,0.35,1.401,0.69,1.946
				c0.342,0.545,0.801,0.976,1.377,1.29c0.576,0.315,1.29,0.502,2.142,0.561c0.204,0.014,0.382,0.02,0.533,0.017
				c0.152-0.003,0.296-0.014,0.43-0.031c0.135-0.018,0.265-0.041,0.387-0.067c0.122-0.027,0.251-0.06,0.388-0.093l0.302-4.448
				L307.694,334.881z"/>
			<path style="fill:#F7851F;" d="M317.084,342.653l1.182-17.398l10.477,0.712l-0.188,2.77l-7.148-0.487l-0.295,4.326l6.815,0.464
				l-0.184,2.703l-6.815-0.464l-0.329,4.832l7.149,0.486l-0.188,2.77L317.084,342.653z"/>
			<path style="fill:#F7851F;" d="M339.818,329.198l-0.998,14.67l-3.354-0.228l0.996-14.67l-4.766-0.324l0.187-2.729l12.886,0.876
				l-0.186,2.729L339.818,329.198z"/>
			<path style="fill:#F7851F;" d="M363.596,347.903l-3.155-0.216l10.766-21.039l3.169,0.216L363.596,347.903z"/>
			<path style="fill:#F7851F;" d="M376.409,345.635l1.184-17.398l5.618,0.382c1.978,0.134,3.438,0.582,4.382,1.341
				c0.941,0.76,1.366,1.842,1.27,3.243c-0.028,0.435-0.108,0.855-0.238,1.261c-0.132,0.406-0.314,0.774-0.551,1.106
				c-0.236,0.331-0.523,0.619-0.861,0.864c-0.338,0.244-0.729,0.427-1.174,0.549c0.431,0.101,0.835,0.269,1.217,0.504
				c0.38,0.235,0.708,0.529,0.981,0.883c0.276,0.354,0.484,0.762,0.626,1.226c0.143,0.465,0.195,0.976,0.157,1.535
				c-0.121,1.774-0.806,3.067-2.056,3.878c-1.251,0.812-2.998,1.142-5.243,0.988L376.409,345.635z M382.129,343.337
				c0.523,0.036,0.988-0.001,1.391-0.105c0.405-0.107,0.748-0.269,1.03-0.485s0.502-0.481,0.661-0.791
				c0.16-0.311,0.253-0.647,0.277-1.011c0.051-0.754-0.191-1.364-0.725-1.828c-0.535-0.464-1.384-0.736-2.547-0.814l-2.036-0.139
				l-0.342,5.018L382.129,343.337z M385.416,333.544c0.022-0.328-0.011-0.63-0.099-0.903c-0.088-0.272-0.244-0.511-0.467-0.714
				c-0.223-0.201-0.515-0.366-0.876-0.493c-0.36-0.127-0.804-0.209-1.327-0.244l-1.982-0.136l-0.314,4.606l1.983,0.134
				c0.533,0.037,0.987,0.003,1.363-0.1c0.379-0.104,0.692-0.262,0.942-0.472c0.251-0.211,0.438-0.458,0.56-0.744
				C385.32,334.192,385.393,333.88,385.416,333.544z"/>
			<path style="fill:#F7851F;" d="M404.8,338.49c-0.108,1.58-0.385,2.93-0.831,4.05c-0.446,1.119-1.016,2.026-1.709,2.719
				c-0.693,0.693-1.485,1.187-2.374,1.483c-0.89,0.296-1.827,0.41-2.812,0.344c-2.289-0.155-3.959-1.033-5.009-2.634
				c-1.052-1.601-1.478-3.853-1.279-6.755c0.106-1.579,0.384-2.929,0.829-4.048c0.446-1.12,1.017-2.026,1.71-2.719
				c0.693-0.693,1.484-1.188,2.374-1.484c0.891-0.296,1.827-0.41,2.812-0.344c2.29,0.156,3.959,1.032,5.01,2.629
				C404.57,333.327,404.998,335.58,404.8,338.49z M401.327,338.415c0.141-2.058-0.03-3.612-0.513-4.662
				c-0.48-1.049-1.352-1.616-2.611-1.702c-0.63-0.042-1.177,0.053-1.638,0.283c-0.461,0.231-0.854,0.591-1.177,1.077
				c-0.322,0.485-0.575,1.096-0.76,1.827c-0.184,0.732-0.307,1.577-0.372,2.534c-0.141,2.061,0.031,3.615,0.52,4.663
				c0.485,1.05,1.354,1.616,2.604,1.702c0.63,0.043,1.178-0.052,1.644-0.282c0.467-0.231,0.858-0.59,1.178-1.077
				c0.317-0.486,0.568-1.095,0.752-1.827C401.138,340.219,401.262,339.374,401.327,338.415z"/>
			<path style="fill:#F7851F;" d="M419.813,339.248c-0.108,1.58-0.384,2.93-0.831,4.05c-0.445,1.119-1.016,2.026-1.709,2.719
				c-0.693,0.693-1.485,1.188-2.374,1.483c-0.89,0.296-1.827,0.41-2.812,0.344c-2.289-0.155-3.96-1.033-5.01-2.634
				c-1.051-1.6-1.477-3.853-1.278-6.754c0.106-1.58,0.383-2.929,0.83-4.048c0.444-1.121,1.016-2.027,1.709-2.72
				c0.693-0.693,1.484-1.188,2.374-1.484c0.89-0.295,1.826-0.409,2.812-0.343c2.29,0.155,3.96,1.032,5.01,2.628
				C419.585,334.085,420.012,336.337,419.813,339.248z M416.342,339.172c0.14-2.058-0.031-3.612-0.513-4.661
				c-0.481-1.05-1.352-1.616-2.612-1.703c-0.63-0.042-1.176,0.053-1.638,0.284c-0.461,0.23-0.854,0.59-1.176,1.076
				c-0.323,0.485-0.575,1.096-0.76,1.827c-0.184,0.732-0.308,1.578-0.373,2.535c-0.141,2.06,0.032,3.614,0.52,4.663
				c0.485,1.049,1.354,1.616,2.605,1.701c0.63,0.043,1.177-0.052,1.643-0.281c0.468-0.232,0.858-0.591,1.178-1.078
				c0.318-0.485,0.568-1.095,0.752-1.826C416.151,340.977,416.276,340.131,416.342,339.172z"/>
			<path style="fill:#F7851F;" d="M430.012,348.492l-4.659-8.769l-0.572,8.413l-3.327-0.226l1.183-17.399l3.328,0.227l-0.539,7.92
				l5.743-7.566l3.955,0.269l-6.475,7.893l5.597,9.527L430.012,348.492z"/>
			<path style="fill:#F7851F;" d="M448.685,344.216c-0.063,0.95-0.296,1.764-0.694,2.44c-0.397,0.677-0.928,1.223-1.589,1.637
				c-0.66,0.415-1.434,0.703-2.318,0.866s-1.841,0.208-2.871,0.138c-0.915-0.062-1.794-0.175-2.639-0.339
				c-0.846-0.165-1.676-0.399-2.492-0.705l0.22-3.233c0.398,0.169,0.814,0.331,1.251,0.484c0.435,0.155,0.874,0.294,1.315,0.418
				c0.441,0.125,0.882,0.228,1.322,0.311s0.868,0.14,1.287,0.167c0.62,0.043,1.151,0.025,1.595-0.052
				c0.441-0.076,0.807-0.198,1.094-0.366c0.288-0.168,0.503-0.376,0.644-0.625c0.142-0.249,0.224-0.528,0.245-0.839
				c0.028-0.427-0.068-0.792-0.293-1.097c-0.225-0.304-0.529-0.582-0.913-0.831c-0.385-0.249-0.825-0.479-1.323-0.691
				c-0.499-0.213-1.005-0.438-1.519-0.678c-0.515-0.241-1.019-0.506-1.511-0.799c-0.493-0.293-0.926-0.643-1.3-1.052
				c-0.373-0.408-0.664-0.886-0.872-1.43s-0.287-1.19-0.236-1.936c0.047-0.684,0.215-1.323,0.506-1.918
				c0.289-0.596,0.716-1.104,1.28-1.524c0.563-0.42,1.271-0.737,2.123-0.952c0.853-0.214,1.87-0.28,3.05-0.2
				c0.347,0.023,0.706,0.063,1.082,0.12c0.374,0.057,0.745,0.123,1.109,0.196c0.365,0.074,0.718,0.154,1.054,0.245
				c0.337,0.089,0.645,0.18,0.925,0.27l-0.204,2.995c-0.277-0.125-0.581-0.244-0.912-0.355s-0.674-0.213-1.028-0.305
				c-0.355-0.091-0.714-0.166-1.075-0.227c-0.362-0.06-0.706-0.102-1.034-0.124c-0.577-0.039-1.067-0.025-1.475,0.041
				c-0.404,0.065-0.742,0.172-1.011,0.319c-0.269,0.146-0.47,0.335-0.601,0.567c-0.132,0.23-0.208,0.494-0.228,0.786
				c-0.024,0.364,0.076,0.686,0.303,0.964s0.534,0.535,0.924,0.771c0.39,0.235,0.834,0.462,1.331,0.68
				c0.497,0.217,1.009,0.447,1.531,0.691c0.522,0.246,1.03,0.519,1.522,0.819s0.928,0.656,1.305,1.065
				c0.378,0.409,0.671,0.882,0.88,1.417S448.733,343.506,448.685,344.216z"/>
			<path style="fill:#F7851F;" d="M453.682,352.452l-3.154-0.216l10.766-21.039l3.169,0.216L453.682,352.452z"/>
			<path style="fill:#F7851F;" d="M466.801,350.205l0.196-2.888l4.434,0.301l0.76-11.183l-4.004,1.868l-0.886-2.722l5.724-2.538
				l2.728,0.186l-0.994,14.615l3.82,0.259l-0.196,2.891L466.801,350.205z"/>
		</g>
	</g>
	<g>
		<defs>
			<rect id="SVGID_1_" x="133.698" y="273.36" width="533.555" height="149.79"/>
		</defs>
		<clipPath id="SVGID_2_">
			<use xlink:href="#SVGID_1_"  style="overflow:visible;"/>
		</clipPath>
		<path style="clip-path:url(#SVGID_2_);fill:#F7851F;" d="M664.313,369.389l-13.145-14.451c-0.227-0.249-0.544-0.399-0.88-0.414
			l-9.2-0.433c-1.131-0.053-1.761,1.289-1,2.126l5.994,6.586c0.763,0.838,0.132,2.18-1,2.127l-527.798-26.661l-0.418,8.891
			l527.799,26.661c1.131,0.053,1.633,1.448,0.796,2.21l-6.587,5.995c-0.837,0.762-0.335,2.157,0.795,2.21l9.2,0.433
			c0.336,0.016,0.666-0.103,0.915-0.33l14.444-13.153C664.748,370.713,664.786,369.909,664.313,369.389z"/>
	</g>
</g>
<g id="Calque_1">
</g>
</svg>
