<?xml version="1.0" encoding="iso-8859-1"?>
<!-- Generator: Adobe Illustrator 25.0.1, SVG Export Plug-In . SVG Version: 6.00 Build 0)  -->
<svg version="1.1" xmlns="http://www.w3.org/2000/svg" xmlns:xlink="http://www.w3.org/1999/xlink" x="0px" y="0px"
	 viewBox="0 0 800 810.965" style="enable-background:new 0 0 800 810.965;" xml:space="preserve">
<g id="step4-base">
	<g>
		<g>
			<ellipse style="fill:#00ABAF;" cx="678.053" cy="697.895" rx="13.778" ry="13.73"/>
			<path style="fill:#059DC1;" d="M678.053,712.952c-8.331,0-15.109-6.754-15.109-15.056c0-8.302,6.778-15.056,15.109-15.056
				c8.331,0,15.109,6.754,15.109,15.056C693.162,706.197,686.384,712.952,678.053,712.952z M678.053,685.493
				c-6.863,0-12.446,5.564-12.446,12.403c0,6.839,5.583,12.403,12.446,12.403c6.863,0,12.446-5.564,12.446-12.403
				C690.499,691.057,684.916,685.493,678.053,685.493z"/>
		</g>
		<g>
			<path style="fill:#FFFFFF;" d="M686.781,695.052l-5.851-0.864l-2.654-5.254l-2.663,5.279l-5.845,0.921l4.225,4.127l-0.928,5.827
				l5.216-2.733l5.299,2.674l-0.983-5.81L686.781,695.052z M678.276,701.149v-9.824l0-0.001l1.943,3.845l4.285,0.632l-3.062,3.05
				l0.721,4.258L678.276,701.149z"/>
		</g>
	</g>
	<g>
		<g>
			<ellipse style="fill:#FF2F51;" cx="678.574" cy="738.629" rx="13.778" ry="13.73"/>
			<path style="fill:#059DC1;" d="M678.574,753.685c-8.331,0-15.109-6.754-15.109-15.057c0-8.302,6.778-15.056,15.109-15.056
				c8.331,0,15.109,6.754,15.109,15.056C693.683,746.931,686.905,753.685,678.574,753.685z M678.574,726.226
				c-6.863,0-12.446,5.564-12.446,12.403c0,6.839,5.583,12.403,12.446,12.403c6.863,0,12.446-5.564,12.446-12.403
				C691.02,731.79,685.437,726.226,678.574,726.226z"/>
		</g>
		<g>
			<path style="fill:#FFFFFF;" d="M687.302,735.785l-5.851-0.864l-2.654-5.254l-2.663,5.279l-5.845,0.921l4.225,4.127l-0.928,5.827
				l5.216-2.733l5.299,2.674l-0.983-5.81L687.302,735.785z M678.797,741.882v-9.824l0-0.001l1.943,3.845l4.285,0.632l-3.062,3.05
				l0.721,4.258L678.797,741.882z"/>
		</g>
	</g>
	<g>
		<g>
			<ellipse style="fill:#005C79;" cx="677.451" cy="656.652" rx="13.778" ry="13.73"/>
			<path style="fill:#059DC1;" d="M677.451,671.708c-8.331,0-15.109-6.754-15.109-15.056c0-8.302,6.778-15.057,15.109-15.057
				c8.331,0,15.109,6.754,15.109,15.057C692.56,664.954,685.782,671.708,677.451,671.708z M677.451,644.249
				c-6.863,0-12.446,5.564-12.446,12.403c0,6.839,5.583,12.403,12.446,12.403c6.863,0,12.446-5.564,12.446-12.403
				C689.897,649.812,684.314,644.249,677.451,644.249z"/>
		</g>
		<g>
			<g>
				<path style="fill:#FFFFFF;" d="M677.32,649.272c-2.243,0-4.076,1.827-4.076,4.062s1.833,4.062,4.076,4.062
					c2.243,0,4.076-1.827,4.076-4.062S679.563,649.272,677.32,649.272z"/>
			</g>
		</g>
		<g>
			<g>
				<path style="fill:#FFFFFF;" d="M684.315,660.641c-0.107-0.266-0.249-0.514-0.409-0.745c-0.819-1.206-2.082-2.004-3.506-2.199
					c-0.178-0.018-0.374,0.018-0.516,0.124c-0.748,0.55-1.637,0.834-2.563,0.834c-0.926,0-1.815-0.284-2.563-0.834
					c-0.142-0.106-0.338-0.16-0.516-0.124c-1.424,0.195-2.705,0.993-3.506,2.199c-0.16,0.231-0.303,0.497-0.409,0.745
					c-0.053,0.106-0.036,0.231,0.018,0.337c0.142,0.248,0.32,0.497,0.481,0.709c0.249,0.337,0.516,0.638,0.819,0.922
					c0.249,0.248,0.534,0.479,0.819,0.709c1.406,1.047,3.097,1.596,4.841,1.596c1.744,0,3.435-0.55,4.841-1.596
					c0.285-0.213,0.57-0.461,0.819-0.709c0.285-0.284,0.57-0.585,0.819-0.922c0.178-0.231,0.338-0.461,0.481-0.709
					C684.351,660.872,684.369,660.748,684.315,660.641z"/>
			</g>
		</g>
	</g>
</g>
<g id="Calque_1">
</g>
</svg>
