<?xml version="1.0" encoding="iso-8859-1"?>
<!-- Generator: Adobe Illustrator 25.0.1, SVG Export Plug-In . SVG Version: 6.00 Build 0)  -->
<svg version="1.1" xmlns="http://www.w3.org/2000/svg" xmlns:xlink="http://www.w3.org/1999/xlink" x="0px" y="0px"
	 viewBox="0 0 800 816.682" style="enable-background:new 0 0 800 816.682;" xml:space="preserve">
<g id="step4">
	<g>
		<path style="fill:#F7851F;" d="M366.697,627.379l-0.11-2.139l3.481-3.863c0.654-0.724,1.176-1.349,1.566-1.868
			c0.39-0.521,0.688-0.982,0.893-1.386c0.206-0.404,0.336-0.774,0.39-1.111c0.055-0.337,0.071-0.684,0.054-1.04
			c-0.016-0.293-0.077-0.568-0.186-0.83c-0.109-0.261-0.26-0.482-0.452-0.667s-0.43-0.328-0.714-0.429
			c-0.282-0.1-0.603-0.141-0.96-0.122c-0.609,0.031-1.169,0.193-1.678,0.485s-0.986,0.673-1.431,1.14l-1.635-1.892
			c0.641-0.662,1.373-1.202,2.197-1.622c0.825-0.421,1.728-0.656,2.71-0.707c0.761-0.039,1.456,0.022,2.083,0.185
			c0.628,0.163,1.172,0.422,1.631,0.779c0.461,0.357,0.825,0.816,1.097,1.374c0.271,0.558,0.426,1.209,0.464,1.953
			c0.032,0.618-0.021,1.2-0.159,1.742c-0.14,0.544-0.354,1.077-0.644,1.602c-0.291,0.522-0.654,1.05-1.094,1.582
			c-0.437,0.53-0.938,1.092-1.503,1.686l-2.147,2.267l6.549-0.338l0.139,2.674L366.697,627.379z"/>
		<path style="fill:#F7851F;" d="M390.479,618.296c0.066,1.276-0.014,2.424-0.239,3.444c-0.225,1.021-0.587,1.891-1.086,2.611
			c-0.499,0.722-1.123,1.284-1.873,1.688c-0.749,0.404-1.62,0.631-2.61,0.683c-0.854,0.044-1.651-0.064-2.388-0.329
			c-0.736-0.264-1.384-0.705-1.939-1.323c-0.556-0.619-1.008-1.424-1.352-2.415c-0.346-0.99-0.555-2.188-0.627-3.59
			c-0.066-1.275,0.016-2.424,0.244-3.443c0.229-1.021,0.592-1.893,1.086-2.613c0.496-0.721,1.123-1.283,1.879-1.688
			c0.758-0.405,1.628-0.634,2.61-0.685c0.856-0.044,1.652,0.066,2.389,0.33s1.381,0.704,1.933,1.319
			c0.552,0.614,1.002,1.418,1.346,2.407C390.196,615.685,390.405,616.885,390.479,618.296z M381.282,618.818
			c0.008,0.159,0.016,0.308,0.022,0.446c0.008,0.14,0.022,0.279,0.047,0.421l5.605-4.509c-0.318-0.77-0.714-1.331-1.188-1.684
			c-0.476-0.353-1.022-0.514-1.641-0.481c-0.443,0.022-0.85,0.157-1.218,0.403c-0.369,0.244-0.682,0.609-0.938,1.091
			c-0.258,0.482-0.449,1.079-0.575,1.793S381.231,617.852,381.282,618.818z M387.56,618.542c-0.007-0.134-0.018-0.271-0.033-0.409
			c-0.015-0.138-0.025-0.271-0.032-0.397l-5.57,4.482c0.293,0.756,0.679,1.308,1.157,1.656c0.479,0.35,1.023,0.507,1.633,0.476
			c0.444-0.023,0.853-0.159,1.225-0.409c0.373-0.25,0.687-0.613,0.944-1.091c0.258-0.479,0.446-1.076,0.569-1.794
			C387.573,620.339,387.609,619.501,387.56,618.542z"/>
		<path style="fill:#F7851F;" d="M403.445,617.625c0.066,1.276-0.014,2.424-0.238,3.444c-0.226,1.021-0.587,1.891-1.087,2.612
			c-0.499,0.721-1.123,1.284-1.873,1.688c-0.749,0.404-1.62,0.632-2.609,0.683c-0.855,0.044-1.652-0.064-2.389-0.329
			c-0.736-0.264-1.383-0.705-1.939-1.323c-0.556-0.618-1.007-1.424-1.352-2.415c-0.346-0.99-0.554-2.188-0.626-3.59
			c-0.066-1.275,0.016-2.423,0.243-3.443c0.23-1.021,0.592-1.893,1.086-2.613c0.497-0.721,1.123-1.282,1.88-1.688
			c0.758-0.405,1.628-0.633,2.609-0.684c0.856-0.045,1.652,0.066,2.389,0.329c0.736,0.264,1.381,0.704,1.933,1.319
			c0.553,0.614,1.002,1.418,1.347,2.407C403.163,615.014,403.372,616.215,403.445,617.625z M394.25,618.147
			c0.008,0.159,0.016,0.308,0.022,0.446c0.008,0.14,0.022,0.279,0.047,0.421l5.605-4.508c-0.319-0.771-0.715-1.331-1.189-1.685
			c-0.476-0.353-1.021-0.514-1.641-0.481c-0.443,0.023-0.849,0.157-1.218,0.404c-0.368,0.244-0.682,0.608-0.938,1.09
			c-0.258,0.482-0.449,1.08-0.575,1.793C394.238,616.342,394.199,617.181,394.25,618.147z M400.526,617.871
			c-0.007-0.134-0.018-0.271-0.033-0.408c-0.015-0.139-0.025-0.271-0.032-0.398l-5.57,4.483c0.294,0.755,0.679,1.307,1.158,1.655
			c0.478,0.35,1.022,0.507,1.632,0.476c0.444-0.022,0.853-0.158,1.226-0.409c0.372-0.25,0.687-0.613,0.943-1.091
			c0.258-0.479,0.447-1.076,0.569-1.793C400.54,619.668,400.576,618.83,400.526,617.871z"/>
		<path style="fill:#F7851F;" d="M429.572,616.274c0.073,1.41-0.029,2.635-0.306,3.675c-0.275,1.038-0.684,1.901-1.224,2.588
			c-0.54,0.688-1.188,1.21-1.944,1.566c-0.756,0.357-1.574,0.558-2.454,0.604c-2.044,0.105-3.616-0.494-4.717-1.8
			c-1.1-1.306-1.716-3.253-1.85-5.844c-0.073-1.41,0.027-2.635,0.304-3.675c0.275-1.038,0.685-1.901,1.225-2.588
			c0.54-0.688,1.188-1.21,1.944-1.566c0.756-0.357,1.573-0.56,2.453-0.604c2.044-0.106,3.616,0.492,4.717,1.794
			C428.82,611.725,429.438,613.675,429.572,616.274z M426.49,616.576c-0.096-1.838-0.412-3.195-0.95-4.073s-1.369-1.287-2.495-1.229
			c-0.562,0.028-1.036,0.171-1.419,0.424c-0.384,0.255-0.693,0.613-0.928,1.079c-0.233,0.464-0.393,1.031-0.478,1.698
			c-0.085,0.669-0.105,1.43-0.062,2.285c0.095,1.838,0.414,3.196,0.956,4.074c0.542,0.877,1.372,1.287,2.488,1.229
			c0.562-0.029,1.038-0.172,1.426-0.425c0.389-0.255,0.697-0.614,0.928-1.079c0.229-0.464,0.387-1.031,0.472-1.699
			S426.534,617.431,426.49,616.576z"/>
		<path style="fill:#F7851F;" d="M439.178,623.63l-5.06-7.269l0.389,7.511l-2.971,0.153l-0.804-15.533l2.971-0.153l0.366,7.071
			l4.281-7.312l3.529-0.183l-4.894,7.678l5.971,7.842L439.178,623.63z"/>
	</g>
	<path style="fill:#F7851F;" d="M134.894,647.339l13.145-14.451c0.227-0.249,0.544-0.399,0.88-0.414l9.2-0.433
		c1.131-0.053,1.762,1.289,1,2.126l-5.994,6.586c-0.763,0.838-0.132,2.18,1,2.127l527.798-26.661l0.418,8.891l-527.799,26.661
		c-1.131,0.053-1.633,1.448-0.795,2.21l6.587,5.995c0.837,0.762,0.335,2.157-0.795,2.211l-9.2,0.433
		c-0.336,0.016-0.666-0.103-0.915-0.33l-14.444-13.153C134.46,648.662,134.422,647.858,134.894,647.339z"/>
	<g>
		<path style="fill:#FF2F51;" d="M369.022,748.047l-0.111-2.14l3.482-3.863c0.654-0.724,1.176-1.348,1.566-1.868
			c0.39-0.52,0.688-0.982,0.894-1.386c0.205-0.405,0.335-0.773,0.389-1.11s0.072-0.684,0.054-1.04
			c-0.015-0.293-0.077-0.569-0.186-0.83c-0.109-0.261-0.26-0.483-0.451-0.667c-0.193-0.186-0.431-0.329-0.714-0.43
			c-0.283-0.1-0.604-0.14-0.96-0.122c-0.609,0.032-1.17,0.193-1.679,0.486c-0.509,0.292-0.985,0.672-1.431,1.14l-1.635-1.894
			c0.641-0.66,1.373-1.2,2.197-1.621c0.825-0.42,1.729-0.655,2.71-0.706c0.761-0.04,1.455,0.022,2.084,0.185
			c0.628,0.162,1.171,0.422,1.63,0.778c0.46,0.358,0.825,0.816,1.097,1.375c0.271,0.558,0.427,1.209,0.465,1.953
			c0.032,0.618-0.021,1.198-0.16,1.742c-0.14,0.544-0.354,1.077-0.644,1.601c-0.291,0.523-0.655,1.051-1.094,1.582
			c-0.437,0.531-0.938,1.093-1.502,1.686l-2.147,2.268l6.549-0.339l0.139,2.675L369.022,748.047z"/>
		<path style="fill:#FF2F51;" d="M392.804,738.964c0.066,1.275-0.014,2.424-0.238,3.444c-0.226,1.02-0.588,1.891-1.087,2.611
			c-0.499,0.722-1.123,1.283-1.873,1.688c-0.749,0.402-1.62,0.631-2.609,0.682c-0.855,0.045-1.652-0.064-2.389-0.328
			s-1.383-0.705-1.939-1.324c-0.556-0.618-1.007-1.423-1.352-2.415c-0.345-0.99-0.554-2.187-0.626-3.589
			c-0.066-1.275,0.016-2.425,0.243-3.444c0.23-1.021,0.592-1.892,1.086-2.612c0.497-0.721,1.123-1.283,1.88-1.688
			c0.758-0.404,1.628-0.633,2.609-0.684c0.856-0.044,1.652,0.066,2.389,0.329c0.736,0.265,1.381,0.704,1.933,1.32
			c0.553,0.614,1.002,1.417,1.347,2.407C392.521,736.352,392.73,737.553,392.804,738.964z M383.608,739.486
			c0.008,0.159,0.016,0.308,0.022,0.446s0.022,0.278,0.046,0.421l5.606-4.509c-0.319-0.77-0.715-1.331-1.19-1.685
			c-0.475-0.353-1.021-0.513-1.641-0.48c-0.443,0.022-0.848,0.157-1.217,0.402s-0.682,0.61-0.938,1.092
			c-0.258,0.481-0.449,1.079-0.575,1.793C383.597,737.68,383.558,738.519,383.608,739.486z M389.885,739.21
			c-0.007-0.135-0.018-0.271-0.033-0.409c-0.015-0.138-0.025-0.271-0.032-0.397l-5.57,4.481c0.293,0.756,0.679,1.309,1.157,1.657
			s1.023,0.506,1.633,0.475c0.444-0.023,0.853-0.158,1.226-0.408c0.371-0.25,0.687-0.613,0.943-1.092
			c0.258-0.479,0.447-1.076,0.568-1.793C389.898,741.007,389.935,740.169,389.885,739.21z"/>
		<path style="fill:#FF2F51;" d="M405.771,738.293c0.066,1.275-0.013,2.424-0.238,3.444s-0.588,1.891-1.086,2.611
			c-0.5,0.722-1.124,1.283-1.874,1.688c-0.749,0.403-1.619,0.631-2.609,0.683c-0.855,0.044-1.652-0.065-2.389-0.329
			s-1.383-0.705-1.938-1.323c-0.557-0.619-1.008-1.424-1.353-2.415s-0.554-2.188-0.626-3.59c-0.066-1.275,0.016-2.425,0.243-3.443
			c0.23-1.021,0.593-1.893,1.087-2.613c0.496-0.721,1.122-1.283,1.879-1.688c0.758-0.404,1.628-0.633,2.61-0.684
			c0.855-0.044,1.651,0.066,2.388,0.329c0.736,0.265,1.381,0.704,1.934,1.32c0.552,0.614,1.001,1.418,1.346,2.407
			C405.489,735.682,405.697,736.883,405.771,738.293z M396.575,738.815c0.008,0.159,0.016,0.308,0.022,0.446
			s0.022,0.279,0.046,0.421l5.606-4.509c-0.319-0.77-0.715-1.331-1.189-1.684c-0.476-0.353-1.022-0.514-1.64-0.481
			c-0.445,0.022-0.85,0.157-1.219,0.402c-0.369,0.246-0.682,0.61-0.938,1.092c-0.259,0.481-0.45,1.08-0.575,1.793
			C396.563,737.01,396.524,737.848,396.575,738.815z M402.852,738.539c-0.007-0.135-0.018-0.271-0.033-0.409
			c-0.014-0.138-0.024-0.271-0.031-0.397l-5.571,4.481c0.293,0.756,0.68,1.309,1.157,1.657c0.479,0.35,1.024,0.506,1.634,0.475
			c0.443-0.023,0.853-0.157,1.225-0.408c0.373-0.25,0.687-0.613,0.944-1.092c0.257-0.479,0.446-1.075,0.569-1.793
			C402.866,740.336,402.901,739.498,402.852,738.539z"/>
		<path style="fill:#FF2F51;" d="M431.897,736.941c0.073,1.41-0.029,2.636-0.305,3.674c-0.276,1.04-0.684,1.903-1.225,2.59
			c-0.541,0.688-1.188,1.209-1.944,1.566c-0.756,0.356-1.574,0.558-2.453,0.603c-2.045,0.106-3.617-0.493-4.717-1.799
			c-1.101-1.306-1.717-3.255-1.851-5.845c-0.073-1.41,0.027-2.634,0.304-3.674c0.276-1.039,0.685-1.901,1.225-2.589
			c0.541-0.688,1.188-1.21,1.944-1.566c0.757-0.356,1.573-0.559,2.453-0.604c2.044-0.105,3.616,0.493,4.717,1.794
			C431.146,732.392,431.763,734.343,431.897,736.941z M428.815,737.244c-0.096-1.838-0.412-3.196-0.95-4.073
			c-0.537-0.878-1.369-1.288-2.495-1.23c-0.562,0.029-1.035,0.172-1.419,0.426s-0.693,0.613-0.927,1.078
			c-0.234,0.465-0.395,1.031-0.479,1.698c-0.083,0.669-0.104,1.43-0.06,2.286c0.095,1.838,0.413,3.196,0.956,4.073
			c0.541,0.877,1.37,1.288,2.487,1.229c0.562-0.028,1.038-0.171,1.426-0.425c0.389-0.254,0.696-0.614,0.928-1.078
			c0.23-0.466,0.387-1.031,0.472-1.7C428.839,738.861,428.859,738.099,428.815,737.244z"/>
		<path style="fill:#FF2F51;" d="M441.503,744.298l-5.059-7.27l0.389,7.511l-2.971,0.154l-0.804-15.533l2.971-0.154l0.366,7.071
			l4.28-7.312l3.53-0.183l-4.894,7.678l5.97,7.842L441.503,744.298z"/>
	</g>
	<g>
		<path style="fill:#00ABAF;" d="M368.497,709.463l-0.11-2.139l3.482-3.863c0.653-0.724,1.176-1.347,1.565-1.868
			c0.391-0.52,0.688-0.981,0.894-1.386c0.206-0.404,0.335-0.774,0.39-1.11c0.054-0.338,0.072-0.684,0.054-1.041
			c-0.015-0.292-0.077-0.568-0.186-0.83c-0.109-0.26-0.261-0.482-0.452-0.667c-0.192-0.185-0.43-0.327-0.713-0.429
			c-0.283-0.1-0.604-0.141-0.96-0.122c-0.609,0.031-1.17,0.193-1.679,0.486c-0.509,0.292-0.986,0.673-1.431,1.14l-1.636-1.893
			c0.641-0.661,1.374-1.202,2.198-1.622c0.825-0.421,1.729-0.655,2.71-0.706c0.761-0.039,1.455,0.021,2.083,0.185
			c0.629,0.162,1.172,0.422,1.631,0.779c0.46,0.356,0.824,0.815,1.097,1.373c0.271,0.559,0.427,1.209,0.465,1.953
			c0.032,0.619-0.022,1.2-0.16,1.742c-0.14,0.544-0.355,1.078-0.645,1.602c-0.291,0.523-0.654,1.051-1.093,1.582
			c-0.437,0.53-0.938,1.092-1.502,1.687l-2.147,2.267l6.549-0.338l0.138,2.674L368.497,709.463z"/>
		<path style="fill:#00ABAF;" d="M392.279,700.381c0.065,1.275-0.014,2.423-0.238,3.443c-0.227,1.021-0.588,1.892-1.087,2.612
			c-0.499,0.722-1.123,1.283-1.873,1.688s-1.62,0.632-2.609,0.684c-0.855,0.044-1.652-0.065-2.389-0.33
			c-0.736-0.263-1.383-0.705-1.939-1.323c-0.556-0.618-1.007-1.424-1.352-2.414c-0.346-0.991-0.555-2.188-0.627-3.59
			c-0.065-1.276,0.016-2.425,0.244-3.444c0.23-1.021,0.592-1.892,1.086-2.612c0.496-0.721,1.122-1.284,1.88-1.688
			c0.758-0.405,1.628-0.632,2.609-0.683c0.856-0.045,1.652,0.064,2.389,0.328c0.736,0.265,1.381,0.704,1.933,1.319
			c0.553,0.614,1.001,1.418,1.347,2.408C391.997,697.769,392.206,698.97,392.279,700.381z M383.083,700.903
			c0.009,0.158,0.016,0.307,0.023,0.445c0.007,0.14,0.022,0.28,0.046,0.421l5.605-4.509c-0.318-0.77-0.714-1.33-1.189-1.683
			c-0.476-0.354-1.021-0.515-1.641-0.482c-0.443,0.022-0.849,0.157-1.218,0.403c-0.368,0.246-0.682,0.609-0.938,1.091
			c-0.257,0.482-0.448,1.08-0.575,1.793C383.072,699.096,383.033,699.936,383.083,700.903z M389.36,700.627
			c-0.008-0.135-0.019-0.271-0.033-0.41c-0.015-0.138-0.025-0.27-0.032-0.396l-5.571,4.482c0.294,0.755,0.679,1.307,1.158,1.656
			c0.479,0.349,1.023,0.506,1.633,0.475c0.444-0.022,0.853-0.158,1.225-0.409c0.372-0.249,0.688-0.613,0.943-1.091
			c0.259-0.479,0.448-1.076,0.569-1.794C389.374,702.423,389.409,701.585,389.36,700.627z"/>
		<path style="fill:#00ABAF;" d="M405.246,699.71c0.065,1.275-0.013,2.424-0.238,3.443c-0.227,1.021-0.588,1.892-1.086,2.613
			c-0.5,0.721-1.124,1.283-1.874,1.687c-0.75,0.404-1.619,0.633-2.609,0.684c-0.855,0.044-1.652-0.065-2.389-0.33
			c-0.736-0.263-1.383-0.705-1.938-1.323c-0.557-0.618-1.008-1.424-1.353-2.414c-0.346-0.991-0.555-2.188-0.627-3.59
			c-0.065-1.276,0.016-2.424,0.244-3.444c0.23-1.021,0.593-1.892,1.087-2.612c0.495-0.721,1.121-1.283,1.879-1.688
			c0.758-0.406,1.628-0.633,2.61-0.684c0.855-0.045,1.651,0.065,2.388,0.329s1.381,0.704,1.934,1.318
			c0.552,0.615,1,1.418,1.346,2.409C404.965,697.098,405.173,698.3,405.246,699.71z M396.05,700.232
			c0.009,0.158,0.016,0.307,0.023,0.445c0.007,0.14,0.022,0.28,0.046,0.421l5.605-4.508c-0.318-0.771-0.714-1.331-1.188-1.684
			c-0.477-0.354-1.022-0.514-1.641-0.482c-0.444,0.023-0.85,0.158-1.219,0.404c-0.368,0.245-0.682,0.608-0.938,1.09
			c-0.258,0.482-0.449,1.08-0.575,1.793C396.039,698.426,396,699.265,396.05,700.232z M402.327,699.956
			c-0.008-0.135-0.019-0.271-0.033-0.409c-0.014-0.139-0.024-0.271-0.031-0.397l-5.572,4.482c0.294,0.755,0.68,1.308,1.158,1.656
			s1.024,0.507,1.634,0.475c0.443-0.022,0.853-0.158,1.224-0.409c0.373-0.249,0.688-0.612,0.944-1.09
			c0.258-0.479,0.447-1.077,0.569-1.794C402.342,701.752,402.376,700.914,402.327,699.956z"/>
		<path style="fill:#00ABAF;" d="M431.373,698.359c0.072,1.41-0.029,2.634-0.305,3.674c-0.276,1.038-0.685,1.901-1.226,2.589
			c-0.54,0.687-1.188,1.21-1.943,1.565c-0.756,0.357-1.574,0.559-2.453,0.604c-2.045,0.105-3.617-0.494-4.717-1.801
			c-1.101-1.306-1.718-3.253-1.852-5.843c-0.072-1.411,0.028-2.636,0.305-3.674c0.276-1.04,0.684-1.903,1.225-2.59
			c0.541-0.688,1.188-1.209,1.944-1.566s1.573-0.559,2.453-0.604c2.044-0.106,3.616,0.492,4.717,1.793
			C430.621,693.809,431.238,695.76,431.373,698.359z M428.29,698.661c-0.095-1.839-0.412-3.196-0.95-4.074
			c-0.536-0.878-1.368-1.287-2.494-1.229c-0.562,0.028-1.035,0.171-1.42,0.425c-0.383,0.254-0.692,0.613-0.926,1.078
			c-0.234,0.464-0.395,1.031-0.479,1.699c-0.084,0.668-0.104,1.429-0.06,2.285c0.095,1.837,0.413,3.195,0.955,4.073
			c0.541,0.877,1.371,1.287,2.487,1.229c0.563-0.029,1.039-0.172,1.427-0.425c0.388-0.255,0.696-0.613,0.927-1.079
			c0.23-0.464,0.388-1.03,0.473-1.699C428.314,700.277,428.335,699.515,428.29,698.661z"/>
		<path style="fill:#00ABAF;" d="M440.978,705.714l-5.058-7.269l0.388,7.511l-2.971,0.153l-0.803-15.533l2.971-0.153l0.365,7.072
			l4.281-7.312l3.53-0.183l-4.894,7.677l5.969,7.842L440.978,705.714z"/>
	</g>
	<g>
		<path style="fill:#005C79;" d="M368.245,670.616l-0.11-2.139l3.481-3.862c0.654-0.725,1.176-1.348,1.566-1.869
			c0.39-0.52,0.688-0.981,0.893-1.386c0.206-0.404,0.336-0.774,0.39-1.11c0.054-0.337,0.071-0.684,0.054-1.04
			c-0.016-0.293-0.078-0.569-0.186-0.831c-0.109-0.261-0.26-0.481-0.452-0.667c-0.193-0.185-0.43-0.327-0.714-0.428
			c-0.282-0.101-0.603-0.142-0.96-0.123c-0.609,0.031-1.169,0.193-1.678,0.485c-0.51,0.293-0.986,0.674-1.431,1.141l-1.635-1.893
			c0.641-0.662,1.373-1.202,2.197-1.622c0.825-0.42,1.728-0.656,2.71-0.707c0.761-0.039,1.456,0.023,2.083,0.186
			c0.628,0.162,1.172,0.421,1.631,0.779c0.46,0.357,0.825,0.816,1.097,1.374c0.271,0.558,0.426,1.208,0.464,1.952
			c0.032,0.618-0.021,1.2-0.16,1.743c-0.139,0.544-0.354,1.076-0.644,1.601c-0.29,0.523-0.654,1.051-1.093,1.582
			c-0.437,0.531-0.938,1.093-1.503,1.686l-2.147,2.269l6.549-0.339l0.139,2.674L368.245,670.616z"/>
		<path style="fill:#005C79;" d="M392.026,661.534c0.066,1.275-0.014,2.424-0.239,3.443c-0.225,1.021-0.587,1.891-1.086,2.612
			c-0.499,0.721-1.123,1.284-1.873,1.688c-0.749,0.404-1.62,0.633-2.61,0.684c-0.855,0.044-1.651-0.065-2.388-0.33
			c-0.737-0.263-1.384-0.705-1.939-1.323s-1.008-1.424-1.352-2.415c-0.346-0.99-0.555-2.188-0.627-3.59
			c-0.066-1.275,0.016-2.423,0.244-3.443c0.229-1.021,0.592-1.892,1.086-2.612c0.496-0.722,1.122-1.283,1.879-1.688
			c0.758-0.406,1.628-0.634,2.61-0.685c0.856-0.045,1.652,0.066,2.389,0.329c0.736,0.264,1.381,0.705,1.933,1.319
			c0.552,0.615,1.002,1.418,1.346,2.409C391.744,658.923,391.953,660.124,392.026,661.534z M382.83,662.056
			c0.008,0.158,0.016,0.307,0.022,0.445c0.008,0.14,0.022,0.28,0.047,0.421l5.605-4.508c-0.318-0.771-0.715-1.331-1.188-1.685
			c-0.477-0.353-1.022-0.513-1.641-0.481c-0.443,0.023-0.85,0.158-1.218,0.404c-0.369,0.244-0.682,0.608-0.938,1.09
			c-0.259,0.482-0.448,1.08-0.575,1.793C382.818,660.25,382.779,661.09,382.83,662.056z M389.107,661.779
			c-0.007-0.134-0.018-0.271-0.033-0.408c-0.015-0.139-0.025-0.271-0.032-0.397l-5.57,4.482c0.293,0.755,0.679,1.307,1.157,1.656
			c0.479,0.349,1.023,0.506,1.633,0.475c0.443-0.022,0.853-0.158,1.225-0.409c0.373-0.249,0.687-0.613,0.944-1.09
			c0.258-0.479,0.446-1.077,0.569-1.794C389.121,663.576,389.157,662.738,389.107,661.779z"/>
		<path style="fill:#005C79;" d="M404.993,660.864c0.066,1.275-0.014,2.423-0.238,3.443c-0.226,1.021-0.587,1.891-1.087,2.611
			c-0.499,0.721-1.123,1.284-1.873,1.688c-0.749,0.403-1.62,0.632-2.609,0.683c-0.855,0.045-1.652-0.065-2.389-0.33
			c-0.735-0.262-1.383-0.704-1.939-1.323c-0.556-0.618-1.007-1.423-1.352-2.415c-0.346-0.989-0.554-2.188-0.626-3.59
			c-0.066-1.275,0.015-2.423,0.243-3.443c0.23-1.021,0.592-1.891,1.086-2.611c0.497-0.723,1.123-1.284,1.88-1.688
			c0.758-0.405,1.627-0.634,2.609-0.685c0.856-0.044,1.652,0.066,2.389,0.33s1.381,0.704,1.933,1.318
			c0.553,0.615,1.002,1.418,1.347,2.409C404.711,658.252,404.92,659.454,404.993,660.864z M395.798,661.386
			c0.008,0.158,0.016,0.307,0.022,0.445c0.008,0.14,0.022,0.279,0.047,0.42l5.605-4.508c-0.319-0.77-0.714-1.331-1.189-1.685
			c-0.476-0.353-1.021-0.513-1.641-0.48c-0.443,0.022-0.849,0.157-1.218,0.403c-0.368,0.244-0.682,0.609-0.938,1.09
			c-0.258,0.482-0.448,1.08-0.575,1.794C395.786,659.579,395.747,660.42,395.798,661.386z M402.074,661.108
			c-0.007-0.134-0.018-0.27-0.033-0.408c-0.015-0.139-0.025-0.271-0.032-0.396l-5.57,4.481c0.294,0.756,0.679,1.308,1.158,1.656
			c0.478,0.349,1.022,0.507,1.632,0.476c0.444-0.023,0.853-0.159,1.226-0.409c0.372-0.25,0.687-0.613,0.943-1.091
			c0.258-0.479,0.447-1.077,0.569-1.794C402.088,662.905,402.124,662.067,402.074,661.108z"/>
		<path style="fill:#005C79;" d="M431.119,659.512c0.073,1.41-0.028,2.635-0.305,3.674c-0.274,1.038-0.684,1.901-1.224,2.589
			c-0.54,0.687-1.188,1.21-1.944,1.566c-0.756,0.357-1.574,0.558-2.454,0.604c-2.044,0.105-3.616-0.494-4.717-1.801
			c-1.1-1.305-1.716-3.253-1.85-5.844c-0.073-1.41,0.027-2.635,0.304-3.674c0.275-1.039,0.685-1.901,1.225-2.589
			s1.188-1.21,1.944-1.566c0.756-0.357,1.573-0.56,2.453-0.604c2.044-0.105,3.616,0.493,4.717,1.795
			C430.368,654.963,430.985,656.913,431.119,659.512z M428.038,659.813c-0.096-1.838-0.412-3.195-0.95-4.072
			c-0.538-0.879-1.37-1.288-2.495-1.229c-0.562,0.029-1.036,0.171-1.419,0.424c-0.385,0.255-0.693,0.614-0.928,1.079
			c-0.233,0.465-0.393,1.032-0.478,1.699c-0.085,0.668-0.105,1.429-0.062,2.285c0.095,1.837,0.414,3.195,0.956,4.073
			s1.372,1.287,2.488,1.229c0.562-0.029,1.038-0.171,1.426-0.425c0.388-0.255,0.697-0.614,0.928-1.079
			c0.229-0.464,0.387-1.031,0.472-1.699C428.062,661.431,428.082,660.669,428.038,659.813z"/>
		<path style="fill:#005C79;" d="M440.726,666.868l-5.06-7.27l0.389,7.511l-2.971,0.153l-0.804-15.533l2.971-0.153l0.366,7.071
			l4.281-7.312l3.529-0.183l-4.894,7.677l5.971,7.842L440.726,666.868z"/>
	</g>
	<path style="fill:#005C79;" d="M134.928,691.387l7.609-8.393c0.131-0.145,0.315-0.231,0.509-0.241l5.326-0.251
		c0.654-0.031,1.02,0.749,0.579,1.235l-3.469,3.825c-0.442,0.487-0.076,1.266,0.579,1.236l528.757-31.337l0.243,5.164
		l-528.758,31.337c-0.654,0.031-0.945,0.841-0.46,1.284l3.814,3.482c0.485,0.443,0.194,1.253-0.46,1.284l-5.326,0.251
		c-0.194,0.009-0.385-0.06-0.53-0.192l-8.363-7.641C134.676,692.155,134.654,691.688,134.928,691.387z"/>
	<path style="fill:#00ABAF;" d="M134.913,730.534l7.609-8.393c0.131-0.145,0.315-0.231,0.509-0.241l5.326-0.251
		c0.654-0.031,1.02,0.749,0.579,1.235l-3.469,3.825c-0.442,0.487-0.076,1.266,0.579,1.236l528.757-31.337l0.243,5.164
		l-528.758,31.337c-0.654,0.031-0.945,0.841-0.46,1.284l3.814,3.482c0.485,0.443,0.194,1.253-0.46,1.284l-5.326,0.251
		c-0.194,0.009-0.385-0.06-0.53-0.192l-8.363-7.641C134.662,731.303,134.64,730.836,134.913,730.534z"/>
	<path style="fill:#FF2F51;" d="M134.899,769.074l7.609-8.393c0.131-0.145,0.315-0.231,0.509-0.241l5.326-0.251
		c0.654-0.031,1.02,0.749,0.579,1.235l-3.469,3.825c-0.442,0.487-0.076,1.266,0.579,1.235l528.757-31.337l0.243,5.164
		l-528.758,31.337c-0.654,0.031-0.945,0.841-0.46,1.284l3.814,3.482c0.485,0.443,0.194,1.253-0.46,1.284l-5.326,0.251
		c-0.194,0.009-0.385-0.06-0.53-0.192l-8.363-7.641C134.647,769.843,134.625,769.376,134.899,769.074z"/>
</g>
<g id="Calque_1">
</g>
</svg>
