<?xml version="1.0" encoding="iso-8859-1"?>
<!-- Generator: Adobe Illustrator 25.0.1, SVG Export Plug-In . SVG Version: 6.00 Build 0)  -->
<svg version="1.1" xmlns="http://www.w3.org/2000/svg" xmlns:xlink="http://www.w3.org/1999/xlink" x="0px" y="0px"
	 viewBox="0 0 800 816.682" style="enable-background:new 0 0 800 816.682;" xml:space="preserve">
<g id="step4-base">
	<g>
		<g>
			<circle style="fill:#00ABAF;" cx="679.788" cy="698.273" r="13.875"/>
			<path style="fill:#059DC1;" d="M679.788,713.489c-8.39,0-15.216-6.826-15.216-15.215s6.826-15.215,15.216-15.215
				c8.39,0,15.215,6.826,15.215,15.215S688.178,713.489,679.788,713.489z M679.788,685.74c-6.911,0-12.534,5.623-12.534,12.534
				s5.623,12.534,12.534,12.534c6.911,0,12.534-5.623,12.534-12.534S686.699,685.74,679.788,685.74z"/>
		</g>
		<g>
			<path style="fill:#FFFFFF;" d="M688.578,695.4l-5.892-0.873l-2.673-5.31l-2.682,5.335l-5.886,0.931l4.255,4.171l-0.934,5.888
				l5.253-2.762l5.337,2.703l-0.99-5.871L688.578,695.4z M680.013,701.561v-9.927l0-0.001l1.956,3.885l4.315,0.639l-3.084,3.082
				l0.726,4.303L680.013,701.561z"/>
		</g>
	</g>
	<g>
		<g>
			<circle style="fill:#FF2F51;" cx="680.313" cy="735.006" r="13.875"/>
			<path style="fill:#059DC1;" d="M680.313,750.222c-8.39,0-15.216-6.826-15.216-15.216c0-8.39,6.826-15.215,15.216-15.215
				c8.39,0,15.215,6.826,15.215,15.215C695.528,743.396,688.703,750.222,680.313,750.222z M680.313,722.472
				c-6.911,0-12.534,5.623-12.534,12.534c0,6.911,5.623,12.534,12.534,12.534c6.911,0,12.534-5.623,12.534-12.534
				C692.847,728.095,687.224,722.472,680.313,722.472z"/>
		</g>
		<g>
			<path style="fill:#FFFFFF;" d="M689.103,732.132l-5.892-0.873l-2.673-5.31l-2.682,5.335l-5.886,0.931l4.255,4.171l-0.934,5.888
				l5.253-2.762l5.337,2.703l-0.99-5.871L689.103,732.132z M680.538,738.294v-9.927l0-0.001l1.956,3.885l4.315,0.639l-3.084,3.082
				l0.726,4.303L680.538,738.294z"/>
		</g>
	</g>
	<g>
		<g>
			<circle style="fill:#005C79;" cx="679.182" cy="662.502" r="13.875"/>
			<path style="fill:#059DC1;" d="M679.182,677.717c-8.39,0-15.216-6.826-15.216-15.215c0-8.39,6.826-15.216,15.216-15.216
				c8.39,0,15.215,6.826,15.215,15.216C694.397,670.892,687.572,677.717,679.182,677.717z M679.182,649.968
				c-6.911,0-12.534,5.623-12.534,12.534c0,6.911,5.623,12.534,12.534,12.534c6.911,0,12.534-5.623,12.534-12.534
				C691.716,655.59,686.093,649.968,679.182,649.968z"/>
		</g>
		<g>
			<g>
				<path style="fill:#FFFFFF;" d="M679.05,655.044c-2.258,0-4.105,1.846-4.105,4.105s1.846,4.105,4.105,4.105
					s4.105-1.846,4.105-4.105S681.309,655.044,679.05,655.044z"/>
			</g>
		</g>
		<g>
			<g>
				<path style="fill:#FFFFFF;" d="M686.095,666.534c-0.108-0.269-0.251-0.52-0.412-0.753c-0.825-1.219-2.097-2.025-3.531-2.223
					c-0.179-0.018-0.376,0.018-0.52,0.125c-0.753,0.556-1.649,0.842-2.581,0.842c-0.932,0-1.828-0.287-2.581-0.842
					c-0.143-0.108-0.341-0.161-0.52-0.125c-1.434,0.197-2.724,1.004-3.531,2.223c-0.161,0.233-0.305,0.502-0.412,0.753
					c-0.054,0.108-0.036,0.233,0.018,0.341c0.143,0.251,0.323,0.502,0.484,0.717c0.251,0.341,0.52,0.645,0.825,0.932
					c0.251,0.251,0.538,0.484,0.825,0.717c1.416,1.058,3.119,1.613,4.875,1.613c1.757,0,3.459-0.556,4.875-1.613
					c0.287-0.215,0.574-0.466,0.825-0.717c0.287-0.287,0.574-0.591,0.825-0.932c0.179-0.233,0.341-0.466,0.484-0.717
					C686.13,666.767,686.148,666.641,686.095,666.534z"/>
			</g>
		</g>
	</g>
	<g>
		<g>
			<circle style="fill:#F7851F;" cx="679.377" cy="619.696" r="19.24"/>
			<path style="fill:#059DC1;" d="M679.377,640.795c-11.634,0-21.099-9.465-21.099-21.099c0-11.634,9.465-21.099,21.099-21.099
				c11.634,0,21.099,9.465,21.099,21.099C700.476,631.331,691.011,640.795,679.377,640.795z M679.377,602.316
				c-9.584,0-17.381,7.797-17.381,17.38c0,9.584,7.797,17.381,17.381,17.381c9.583,0,17.38-7.797,17.38-17.381
				C696.757,610.113,688.96,602.316,679.377,602.316z"/>
		</g>
		<g>
			<path style="fill:#FFFFFF;" d="M670.745,613.686l4.127,1.388c0.34,0.149,1.954,0.739,4.815,0.03
				c3.615-0.897,11.44-2.45,11.519-2.466l-0.291-1.471c-0.003,0.001-0.025,0.005-0.052,0.01l-7.459-1.051
				c-0.82-0.116-2.144-0.082-2.958,0.076l-9.971,1.934c-1.297-0.067-2.531,0.73-2.944,2.022c-0.238,0.746-0.172,1.54,0.187,2.234
				c0.183,0.355,0.433,0.661,0.732,0.91c-0.449,0.35-0.802,0.833-0.988,1.414c-0.238,0.746-0.171,1.54,0.187,2.235
				c0.194,0.376,0.465,0.693,0.786,0.947c-0.442,0.349-0.789,0.829-0.974,1.404c-0.238,0.746-0.171,1.54,0.187,2.234
				c0.359,0.695,0.967,1.209,1.712,1.447l7.189,2.299c0.395,0.126,1.042,0.154,1.446,0.061l12.62-2.891c0,0-0.075-0.327-0.168-0.73
				s-0.495-0.656-0.898-0.563l-11.489,2.631c-0.403,0.093-1.05,0.065-1.446-0.061l-6.796-2.172
				c-0.364-0.116-0.661-0.368-0.836-0.706c-0.175-0.339-0.208-0.726-0.091-1.089c0.24-0.751,1.046-1.163,1.798-0.928
				c0.002-0.007,4.159,1.321,5.861,1.864c0.395,0.126,1.042,0.154,1.446,0.061l12.62-2.891c0,0-0.075-0.328-0.168-0.731
				c-0.092-0.403-0.495-0.656-0.899-0.563l-11.489,2.631c-0.403,0.092-1.05,0.064-1.446-0.061l-6.797-2.173
				c-0.364-0.116-0.661-0.368-0.836-0.706c-0.175-0.339-0.208-0.726-0.091-1.089c0.24-0.751,1.046-1.164,1.798-0.928
				c0.001-0.002,4.215,1.345,5.931,1.892c0.394,0.126,1.042,0.154,1.445,0.061l12.62-2.891c0,0-0.075-0.326-0.168-0.731
				c-0.093-0.403-0.495-0.656-0.898-0.563l-11.489,2.63c-0.403,0.093-1.05,0.065-1.446-0.061l-6.797-2.172
				c-0.364-0.116-0.661-0.368-0.836-0.707c-0.175-0.339-0.208-0.726-0.091-1.089C669.198,613.865,670.004,613.447,670.745,613.686z"
				/>
		</g>
	</g>
</g>
<g id="Calque_1">
</g>
</svg>
