<?xml version="1.0" encoding="iso-8859-1"?>
<!-- Generator: Adobe Illustrator 25.0.1, SVG Export Plug-In . SVG Version: 6.00 Build 0)  -->
<svg version="1.1" xmlns="http://www.w3.org/2000/svg" xmlns:xlink="http://www.w3.org/1999/xlink" x="0px" y="0px"
	 viewBox="0 0 800 816.682" style="enable-background:new 0 0 800 816.682;" xml:space="preserve">
<g id="step2">
	<g>
		<path style="fill:#F7851F;" d="M149.245,371.901c-0.813,0.038-1.175,1.042-0.572,1.59l4.739,4.313
			c0.602,0.549,0.241,1.552-0.572,1.59l-6.618,0.311c-0.242,0.011-0.479-0.074-0.658-0.237l-10.392-9.463
			c-0.374-0.34-0.401-0.918-0.061-1.292l9.457-10.397c0.163-0.179,0.391-0.287,0.633-0.298l6.618-0.311
			c0.813-0.038,1.267,0.927,0.719,1.529l-4.312,4.738c-0.549,0.603-0.095,1.569,0.719,1.53"/>
		<path style="fill:#F7851F;" d="M147.613,371.234l-0.267-5.162l7.375-0.382l0.267,5.162L147.613,371.234z M162.364,370.471
			l-0.267-5.162l7.375-0.382l0.267,5.162L162.364,370.471z M177.114,369.709l-0.267-5.162l7.376-0.382l0.267,5.162L177.114,369.709z
			 M191.865,368.946l-0.267-5.162l7.375-0.382l0.267,5.162L191.865,368.946z M206.616,368.183l-0.267-5.162l7.375-0.382l0.267,5.162
			L206.616,368.183z M221.366,367.42l-0.267-5.162l7.376-0.381l0.267,5.162L221.366,367.42z M236.117,366.657l-0.267-5.162
			l7.375-0.382l0.267,5.162L236.117,366.657z M250.868,365.894l-0.267-5.162l7.375-0.382l0.267,5.162L250.868,365.894z
			 M265.618,365.131l-0.267-5.162l7.376-0.382l0.267,5.162L265.618,365.131z M280.369,364.369l-0.267-5.162l7.375-0.382l0.267,5.162
			L280.369,364.369z M295.12,363.606l-0.267-5.162l7.375-0.382l0.267,5.162L295.12,363.606z M309.871,362.843l-0.267-5.162
			l7.376-0.382l0.267,5.162L309.871,362.843z M324.622,362.08l-0.267-5.162l7.375-0.381l0.267,5.162L324.622,362.08z
			 M339.372,361.317l-0.267-5.162l7.375-0.382l0.267,5.162L339.372,361.317z M354.123,360.554l-0.267-5.162l7.376-0.382l0.267,5.162
			L354.123,360.554z M368.874,359.791l-0.267-5.162l7.375-0.381l0.267,5.162L368.874,359.791z M383.625,359.029l-0.267-5.162
			l7.375-0.382l0.267,5.162L383.625,359.029z M398.376,358.266l-0.267-5.162l7.375-0.382l0.267,5.162L398.376,358.266z
			 M413.126,357.503l-0.267-5.162l7.376-0.382l0.267,5.162L413.126,357.503z M427.877,356.741l-0.267-5.162l7.375-0.382l0.267,5.162
			L427.877,356.741z M442.628,355.978l-0.267-5.162l7.375-0.382l0.267,5.162L442.628,355.978z M457.378,355.215l-0.267-5.162
			l7.376-0.382l0.267,5.162L457.378,355.215z M472.129,354.451l-0.267-5.162l7.375-0.381l0.267,5.162L472.129,354.451z
			 M486.88,353.689l-0.267-5.162l7.375-0.382l0.267,5.162L486.88,353.689z M501.63,352.926l-0.267-5.162l7.376-0.382l0.267,5.162
			L501.63,352.926z M516.381,352.163l-0.267-5.162l7.375-0.382l0.267,5.162L516.381,352.163z M531.132,351.401l-0.267-5.162
			l7.375-0.382l0.267,5.162L531.132,351.401z M545.882,350.638l-0.267-5.162l7.376-0.382l0.267,5.162L545.882,350.638z
			 M560.633,349.875l-0.267-5.162l7.375-0.382l0.267,5.162L560.633,349.875z M575.384,349.112l-0.267-5.162l7.375-0.381l0.267,5.162
			L575.384,349.112z M590.135,348.349l-0.267-5.162l7.376-0.382l0.267,5.162L590.135,348.349z M604.885,347.586l-0.267-5.162
			l7.376-0.382l0.267,5.162L604.885,347.586z M619.636,346.823l-0.267-5.162l7.375-0.382l0.267,5.162L619.636,346.823z
			 M634.387,346.061l-0.267-5.162l7.375-0.382l0.267,5.162L634.387,346.061z M649.138,345.298l-0.267-5.162l7.376-0.382l0.267,5.162
			L649.138,345.298z M663.889,344.535l-0.267-5.162l7.375-0.382l0.267,5.162L663.889,344.535z M678.638,343.772l-0.264-5.162
			l0.634-0.032l0.264,5.162L678.638,343.772z"/>
	</g>
	<g>
		<g>
			<path style="fill:#F7851F;" d="M301.049,351.329l-0.099-2.895l4.44-0.152l-0.385-11.2l-3.793,2.267l-1.158-2.617l5.435-3.11
				l2.733-0.094l0.501,14.642l3.827-0.132l0.099,2.895L301.049,351.329z"/>
			<path style="fill:#F7851F;" d="M328.042,341.345c0.049,1.431-0.062,2.718-0.335,3.855c-0.272,1.141-0.696,2.109-1.269,2.907
				c-0.573,0.798-1.285,1.417-2.133,1.856c-0.849,0.438-1.828,0.676-2.939,0.714c-0.96,0.033-1.851-0.106-2.67-0.415
				c-0.821-0.312-1.537-0.817-2.148-1.522c-0.613-0.704-1.102-1.616-1.47-2.733c-0.367-1.117-0.578-2.464-0.632-4.037
				c-0.049-1.432,0.065-2.716,0.342-3.855c0.277-1.141,0.7-2.11,1.269-2.908c0.569-0.798,1.282-1.416,2.14-1.855
				c0.857-0.438,1.837-0.677,2.939-0.714c0.96-0.033,1.851,0.104,2.672,0.416c0.819,0.309,1.534,0.814,2.141,1.515
				c0.606,0.701,1.093,1.609,1.461,2.727C327.778,338.412,327.987,339.762,328.042,341.345z M317.723,341.751
				c0.006,0.178,0.013,0.345,0.018,0.5s0.019,0.312,0.043,0.472l6.372-4.944c-0.342-0.868-0.774-1.506-1.3-1.91
				s-1.135-0.596-1.829-0.571c-0.498,0.017-0.956,0.159-1.374,0.427s-0.775,0.67-1.073,1.206c-0.297,0.535-0.523,1.201-0.679,1.998
				C317.745,339.725,317.686,340.667,317.723,341.751z M324.766,341.563c-0.005-0.152-0.015-0.305-0.029-0.459
				c-0.014-0.156-0.023-0.305-0.028-0.447l-6.333,4.916c0.313,0.854,0.735,1.479,1.266,1.879c0.529,0.4,1.137,0.59,1.822,0.566
				c0.497-0.018,0.957-0.162,1.38-0.435c0.421-0.274,0.782-0.675,1.08-1.206c0.297-0.531,0.522-1.197,0.672-1.999
				C324.745,343.577,324.803,342.639,324.766,341.563z"/>
			<path style="fill:#F7851F;" d="M342.469,344.059c0.029,0.861-0.104,1.643-0.4,2.343c-0.297,0.699-0.769,1.304-1.413,1.811
				c-0.646,0.507-1.467,0.907-2.463,1.2c-0.996,0.291-2.174,0.461-3.533,0.507c-0.303,0.011-0.62,0.015-0.955,0.013
				c-0.333-0.002-0.665-0.009-0.994-0.02c-0.33-0.011-0.651-0.026-0.964-0.047s-0.593-0.049-0.843-0.084l-0.098-2.828
				c0.563,0.088,1.195,0.152,1.896,0.196c0.699,0.043,1.427,0.051,2.183,0.025c0.737-0.025,1.373-0.108,1.901-0.252
				c0.529-0.143,0.963-0.339,1.301-0.585c0.34-0.248,0.584-0.548,0.737-0.899c0.153-0.353,0.222-0.747,0.207-1.184
				c-0.013-0.381-0.11-0.726-0.289-1.03c-0.18-0.307-0.446-0.561-0.801-0.768c-0.354-0.206-0.802-0.359-1.344-0.46
				c-0.543-0.103-1.183-0.141-1.92-0.115l-1.934,0.065l-0.085-2.479l1.773-0.062c0.693-0.023,1.267-0.111,1.72-0.266
				c0.453-0.152,0.812-0.35,1.075-0.591c0.263-0.239,0.446-0.52,0.552-0.84c0.104-0.319,0.151-0.652,0.139-0.998
				c-0.023-0.712-0.273-1.243-0.748-1.597c-0.476-0.354-1.197-0.513-2.167-0.48c-0.693,0.023-1.376,0.114-2.047,0.271
				s-1.362,0.358-2.074,0.604l-0.094-2.733c0.395-0.146,0.773-0.271,1.135-0.373c0.361-0.101,0.724-0.188,1.087-0.265
				c0.361-0.074,0.729-0.131,1.102-0.169c0.372-0.04,0.758-0.067,1.159-0.081c0.96-0.033,1.806,0.04,2.536,0.221
				c0.732,0.18,1.351,0.449,1.857,0.811c0.506,0.36,0.894,0.809,1.16,1.342c0.268,0.534,0.413,1.134,0.436,1.8
				c0.036,1.059-0.177,1.923-0.638,2.593c-0.462,0.67-1.124,1.193-1.982,1.569c0.562,0.071,1.074,0.207,1.536,0.408
				c0.46,0.202,0.859,0.47,1.194,0.8c0.337,0.332,0.599,0.716,0.787,1.156C342.347,343.026,342.45,343.516,342.469,344.059z"/>
			<path style="fill:#F7851F;" d="M361.529,348.209l-0.597-17.429l10.495-0.359l0.094,2.773l-7.16,0.245l0.148,4.334l6.826-0.234
				l0.094,2.707l-6.827,0.233l0.166,4.841l7.16-0.245l0.095,2.774L361.529,348.209z"/>
			<path style="fill:#F7851F;" d="M385.424,347.128l-1.078-3.408l-6.08,0.208l-0.868,3.476l-3.254,0.111l4.564-17.605l4.586-0.157
				l5.758,17.252L385.424,347.128z M380.978,333.035l-2.017,8.187l4.561-0.156L380.978,333.035z"/>
			<path style="fill:#F7851F;" d="M399.61,346.379l-2.645-5.516c-0.249-0.525-0.586-0.917-1.009-1.174s-0.914-0.377-1.474-0.357
				l-0.626,0.021l0.247,7.214l-3.281,0.113l-0.597-17.43l5.081-0.174c0.96-0.031,1.834,0.021,2.621,0.158
				c0.788,0.138,1.464,0.388,2.029,0.752c0.563,0.363,1.005,0.846,1.324,1.449s0.492,1.35,0.523,2.238
				c0.022,0.641-0.052,1.213-0.221,1.717c-0.17,0.504-0.418,0.942-0.743,1.313c-0.326,0.372-0.718,0.678-1.177,0.915
				c-0.46,0.238-0.963,0.412-1.512,0.52c0.43,0.074,0.83,0.303,1.199,0.686c0.369,0.384,0.744,0.942,1.126,1.678l2.985,5.745
				L399.61,346.379z M398.376,334.112c-0.029-0.854-0.321-1.457-0.876-1.812c-0.555-0.355-1.375-0.514-2.459-0.478l-1.44,0.05
				l0.168,4.921l1.335-0.046c0.506-0.018,0.965-0.086,1.373-0.207c0.41-0.121,0.758-0.294,1.044-0.516
				c0.286-0.224,0.504-0.496,0.654-0.817C398.322,334.887,398.391,334.522,398.376,334.112z"/>
			<path style="fill:#F7851F;" d="M406.743,345.873l-0.597-17.429l3.334-0.114l0.501,14.614l7.359-0.251l0.097,2.812
				L406.743,345.873z"/>
			<path style="fill:#F7851F;" d="M428.054,338.7l0.21,6.173l-3.333,0.114l-0.21-6.146l-6.054-11.088l3.641-0.125l2.745,5.301
				l1.263,2.6l1.082-2.76l2.497-5.399l3.493-0.12L428.054,338.7z"/>
			<path style="fill:#F7851F;" d="M459.625,343.274l-0.261-7.587l-5.92,0.202l0.26,7.587l-3.28,0.114l-0.597-17.43l3.28-0.112
				l0.239,7.002l5.921-0.202l-0.24-7.002l3.281-0.112l0.597,17.429L459.625,343.274z"/>
			<path style="fill:#F7851F;" d="M465.665,328.04l-0.091-2.681l11.014-0.377l0.092,2.681l-3.841,0.132l0.413,12.041l3.841-0.131
				l0.093,2.706l-11.015,0.378l-0.094-2.707l3.841-0.133l-0.412-12.04L465.665,328.04z"/>
			<path style="fill:#F7851F;" d="M489.052,341.742l-5.022-10.24l-1.037-2.207l0.247,7.227l0.186,5.413l-2.987,0.103l-0.596-17.429
				l4.026-0.138l5.119,10.306l0.91,2.011l-0.264-7.693l-0.164-4.814l2.987-0.102l0.596,17.428L489.052,341.742z"/>
			<path style="fill:#F7851F;" d="M502.882,326.294l0.503,14.695l-3.36,0.114l-0.503-14.694l-4.773,0.164l-0.093-2.733l12.907-0.442
				l0.093,2.733L502.882,326.294z"/>
			<path style="fill:#F7851F;" d="M522.632,334.794c0.032,0.952-0.114,1.785-0.441,2.499s-0.799,1.311-1.415,1.791
				c-0.615,0.479-1.354,0.846-2.219,1.097c-0.863,0.252-1.81,0.396-2.842,0.431c-0.916,0.032-1.801,0.008-2.658-0.069
				c-0.857-0.078-1.708-0.226-2.552-0.446l-0.111-3.24c0.413,0.128,0.846,0.247,1.293,0.356c0.45,0.109,0.9,0.203,1.352,0.28
				c0.452,0.078,0.901,0.137,1.349,0.174c0.445,0.039,0.877,0.051,1.295,0.037c0.623-0.021,1.15-0.094,1.582-0.215
				c0.432-0.122,0.783-0.28,1.052-0.477s0.462-0.425,0.576-0.687c0.116-0.263,0.169-0.55,0.158-0.86
				c-0.015-0.427-0.148-0.78-0.403-1.062c-0.254-0.279-0.586-0.524-0.992-0.733c-0.408-0.208-0.87-0.393-1.388-0.553
				c-0.518-0.161-1.045-0.333-1.58-0.52c-0.535-0.188-1.064-0.399-1.584-0.641s-0.987-0.545-1.399-0.914
				c-0.414-0.367-0.751-0.813-1.014-1.333c-0.264-0.521-0.407-1.154-0.432-1.9c-0.023-0.685,0.077-1.338,0.306-1.961
				c0.229-0.622,0.601-1.17,1.118-1.646c0.52-0.476,1.19-0.863,2.017-1.163c0.826-0.301,1.831-0.47,3.013-0.511
				c0.348-0.012,0.709-0.009,1.089,0.009c0.378,0.019,0.754,0.046,1.123,0.082c0.371,0.036,0.729,0.082,1.074,0.137
				c0.344,0.055,0.66,0.114,0.947,0.176l0.103,2.999c-0.289-0.097-0.603-0.184-0.943-0.261c-0.342-0.078-0.693-0.144-1.055-0.198
				c-0.362-0.055-0.727-0.092-1.093-0.115s-0.713-0.029-1.042-0.019c-0.578,0.021-1.064,0.084-1.462,0.191
				c-0.396,0.105-0.722,0.246-0.974,0.419c-0.252,0.174-0.433,0.383-0.539,0.627c-0.107,0.244-0.155,0.513-0.146,0.806
				c0.012,0.365,0.146,0.674,0.398,0.928c0.254,0.253,0.586,0.478,0.997,0.673c0.412,0.196,0.877,0.375,1.395,0.54
				c0.517,0.165,1.049,0.343,1.593,0.532c0.546,0.191,1.079,0.412,1.599,0.66c0.52,0.249,0.99,0.558,1.406,0.927
				c0.418,0.368,0.758,0.809,1.021,1.32C522.463,333.471,522.607,334.083,522.632,334.794z"/>
		</g>
	</g>
	<g>
		<g>
			<g>
				<g>
					<g>
						<path style="fill:#313333;" d="M301.607,386.196l5.952-0.285l0.087,1.818l-8.23,0.395l-0.629-13.11l2.278-0.109
							L301.607,386.196z"/>
						<path style="fill:#313333;" d="M308.598,375.382c-0.017-0.336,0.077-0.619,0.28-0.853c0.201-0.232,0.5-0.358,0.897-0.378
							c0.396-0.019,0.708,0.078,0.934,0.29c0.228,0.213,0.349,0.485,0.365,0.821c0.016,0.331-0.079,0.611-0.286,0.84
							c-0.204,0.23-0.506,0.354-0.901,0.373c-0.397,0.02-0.707-0.075-0.93-0.285C308.733,375.982,308.613,375.713,308.598,375.382z
							 M311.51,387.544l-2.188,0.105l-0.468-9.744l2.188-0.104L311.51,387.544z"/>
						<path style="fill:#313333;" d="M315.454,377.589l0.117,1.123c0.679-0.904,1.603-1.386,2.774-1.441
							c2.028-0.098,3.116,1.015,3.265,3.335l0.309,6.438l-2.188,0.105l-0.303-6.312c-0.03-0.618-0.186-1.07-0.468-1.354
							c-0.281-0.284-0.725-0.412-1.331-0.383c-0.883,0.042-1.521,0.474-1.915,1.293l0.333,6.933l-2.188,0.104l-0.468-9.743
							L315.454,377.589z"/>
						<path style="fill:#313333;" d="M327.113,382.607l-0.925,1.046l0.152,3.179l-2.188,0.104l-0.664-13.831l2.188-0.104
							l0.383,7.979l0.644-0.889l2.547-3.164l2.63-0.126l-3.425,4.235l4.279,5.489l-2.53,0.121L327.113,382.607z"/>
						<path style="fill:#313333;" d="M334.615,376.462c0.408-0.02,0.729,0.081,0.962,0.302c0.233,0.221,0.359,0.505,0.376,0.853
							c0.017,0.342-0.082,0.631-0.293,0.867c-0.211,0.235-0.521,0.363-0.93,0.383c-0.39,0.019-0.704-0.078-0.942-0.289
							c-0.239-0.211-0.367-0.491-0.384-0.839s0.08-0.642,0.292-0.884C333.906,376.612,334.213,376.48,334.615,376.462z
							 M334.982,384.107c0.408-0.02,0.729,0.08,0.962,0.301s0.358,0.505,0.376,0.854c0.016,0.342-0.082,0.631-0.294,0.866
							c-0.211,0.235-0.521,0.364-0.929,0.384c-0.39,0.019-0.704-0.078-0.942-0.289c-0.239-0.212-0.367-0.491-0.384-0.839
							c-0.018-0.349,0.08-0.643,0.292-0.885C334.272,384.257,334.58,384.126,334.982,384.107z"/>
						<path style="fill:#313333;" d="M344.654,380.258l5.409,1.763l0.105,2.188l-7.699-2.996l-0.083-1.738l7.376-3.712l0.105,2.188
							L344.654,380.258z"/>
						<path style="fill:#313333;" d="M353.301,386.666l-1.721,0.083l4.478-14.484l1.72-0.082L353.301,386.666z"/>
						<path style="fill:#313333;" d="M365.746,384.94c-0.105-0.181-0.203-0.48-0.296-0.896c-0.662,0.759-1.497,1.163-2.505,1.212
							c-0.979,0.047-1.791-0.194-2.436-0.723c-0.646-0.528-0.987-1.204-1.026-2.026c-0.05-1.039,0.297-1.854,1.041-2.446
							c0.745-0.593,1.836-0.924,3.27-0.992l1.342-0.064l-0.03-0.639c-0.024-0.504-0.186-0.901-0.481-1.19
							c-0.296-0.291-0.733-0.422-1.31-0.394c-0.499,0.023-0.9,0.167-1.206,0.433c-0.307,0.264-0.451,0.589-0.433,0.974l-2.188,0.104
							c-0.025-0.535,0.128-1.043,0.461-1.525c0.331-0.481,0.796-0.87,1.392-1.163c0.597-0.294,1.27-0.458,2.021-0.494
							c1.141-0.055,2.063,0.188,2.771,0.728c0.706,0.541,1.092,1.331,1.159,2.368l0.211,4.395c0.043,0.877,0.199,1.57,0.472,2.081
							l0.007,0.152L365.746,384.94z M363.267,383.479c0.433-0.021,0.833-0.145,1.205-0.373c0.37-0.229,0.644-0.524,0.819-0.887
							l-0.089-1.838l-1.18,0.057c-0.811,0.039-1.413,0.21-1.808,0.511c-0.395,0.303-0.579,0.712-0.555,1.228
							c0.021,0.42,0.176,0.748,0.466,0.983C362.419,383.395,362.799,383.502,363.267,383.479z"/>
						<path style="fill:#313333;" d="M375.759,383.503c-0.606,0.788-1.5,1.21-2.683,1.267c-1.057,0.051-1.871-0.22-2.444-0.812
							c-0.573-0.592-0.888-1.474-0.944-2.644L369.385,375l2.188-0.105l0.302,6.286c0.06,1.236,0.602,1.83,1.628,1.781
							c1.063-0.052,1.763-0.467,2.099-1.247l-0.336-6.997l2.188-0.105l0.468,9.743l-2.062,0.1L375.759,383.503z"/>
						<path style="fill:#313333;" d="M382.31,372.007l0.113,2.367l1.721-0.083l0.078,1.621l-1.721,0.083l0.261,5.439
							c0.019,0.372,0.105,0.637,0.26,0.795c0.155,0.158,0.422,0.228,0.8,0.209c0.253-0.012,0.505-0.055,0.762-0.126l0.081,1.693
							c-0.491,0.161-0.969,0.254-1.431,0.276c-1.681,0.08-2.566-0.807-2.655-2.661l-0.265-5.521l-1.603,0.076l-0.078-1.621
							l1.603-0.076l-0.113-2.367L382.31,372.007z"/>
						<path style="fill:#313333;" d="M388.021,375.171c0.676-0.862,1.559-1.32,2.65-1.373c2.077-0.1,3.188,1.035,3.332,3.405
							l0.306,6.366l-2.188,0.104l-0.302-6.285c-0.032-0.672-0.2-1.142-0.505-1.405c-0.305-0.266-0.739-0.385-1.304-0.357
							c-0.877,0.042-1.512,0.464-1.906,1.265l0.334,6.96l-2.188,0.105l-0.664-13.831l2.188-0.105L388.021,375.171z"/>
						<path style="fill:#313333;" d="M395.872,378.52c-0.046-0.954,0.102-1.823,0.443-2.606s0.845-1.396,1.51-1.842
							c0.663-0.443,1.44-0.687,2.329-0.729c1.314-0.063,2.401,0.31,3.262,1.117c0.859,0.806,1.356,1.907,1.49,3.303l0.033,0.513
							c0.047,0.961-0.097,1.828-0.431,2.603c-0.332,0.773-0.832,1.384-1.5,1.832c-0.667,0.447-1.451,0.692-2.352,0.735
							c-1.374,0.066-2.497-0.339-3.366-1.215c-0.87-0.876-1.341-2.076-1.413-3.602L395.872,378.52z M398.069,378.605
							c0.049,1.003,0.293,1.777,0.734,2.324c0.441,0.549,1.031,0.804,1.77,0.769s1.3-0.351,1.684-0.948
							c0.383-0.595,0.548-1.448,0.494-2.56c-0.047-0.984-0.296-1.755-0.747-2.311c-0.45-0.556-1.039-0.816-1.765-0.781
							c-0.715,0.034-1.269,0.346-1.662,0.933C398.185,376.618,398.016,377.476,398.069,378.605z"/>
						<path style="fill:#313333;" d="M411.749,374.97c-0.29-0.034-0.589-0.044-0.895-0.029c-1.003,0.048-1.659,0.464-1.971,1.25
							l0.319,6.663l-2.188,0.104l-0.468-9.743l2.088-0.101l0.107,1.089c0.487-0.872,1.199-1.331,2.136-1.376
							c0.312-0.016,0.572,0.015,0.78,0.089L411.749,374.97z"/>
						<path style="fill:#313333;" d="M418.838,379.739c-0.019-0.391-0.193-0.681-0.525-0.869c-0.33-0.188-0.872-0.344-1.623-0.464
							c-0.752-0.12-1.383-0.288-1.894-0.504c-1.117-0.477-1.7-1.215-1.748-2.218c-0.041-0.841,0.28-1.56,0.961-2.158
							s1.567-0.924,2.66-0.977c1.164-0.056,2.119,0.188,2.865,0.729c0.745,0.542,1.14,1.272,1.184,2.191l-2.188,0.105
							c-0.021-0.421-0.193-0.764-0.52-1.027c-0.324-0.265-0.745-0.384-1.262-0.359c-0.48,0.023-0.867,0.153-1.159,0.391
							c-0.293,0.236-0.429,0.54-0.411,0.912c0.017,0.336,0.168,0.591,0.46,0.764s0.87,0.333,1.737,0.48
							c0.868,0.147,1.553,0.341,2.055,0.578c0.501,0.238,0.881,0.534,1.135,0.889c0.255,0.355,0.396,0.793,0.42,1.316
							c0.042,0.877-0.288,1.604-0.987,2.182c-0.7,0.578-1.64,0.896-2.815,0.952c-0.798,0.038-1.518-0.072-2.155-0.329
							c-0.638-0.26-1.143-0.632-1.516-1.12c-0.373-0.486-0.572-1.022-0.601-1.604l2.125-0.102c0.056,0.514,0.27,0.903,0.643,1.165
							c0.374,0.261,0.857,0.378,1.452,0.349c0.576-0.027,1.009-0.157,1.299-0.39C418.718,380.387,418.854,380.093,418.838,379.739z"
							/>
						<path style="fill:#313333;" d="M423.692,383.287l-1.721,0.083l4.478-14.484l1.72-0.083L423.692,383.287z"/>
						<path style="fill:#313333;" d="M436.102,381.562l-2.179,0.104l-0.506-10.532l-3.162,1.25l-0.088-1.837l5.023-2.127
							l0.279-0.014L436.102,381.562z"/>
						<path style="fill:#313333;" d="M446.119,375.342l-5.663-1.776l-0.104-2.152l7.941,2.977l0.083,1.738l-7.619,3.723
							l-0.104-2.152L446.119,375.342z"/>
						<path style="fill:#313333;" d="M451.011,383.807l-1.213-0.646c0.322-0.563,0.537-1.05,0.648-1.462
							c0.108-0.411,0.155-0.828,0.142-1.248l-0.082-1.701l1.973-0.095l0.067,1.576c0.024,0.636-0.106,1.282-0.39,1.937
							C451.871,382.823,451.489,383.369,451.011,383.807z M451.049,370.872c0.408-0.02,0.729,0.082,0.962,0.303
							s0.359,0.504,0.376,0.852c0.017,0.342-0.082,0.632-0.293,0.868c-0.212,0.235-0.521,0.362-0.93,0.382
							c-0.39,0.019-0.704-0.078-0.943-0.288c-0.238-0.211-0.366-0.491-0.383-0.839s0.08-0.643,0.291-0.885
							S450.646,370.891,451.049,370.872z"/>
						<path style="fill:#313333;" d="M464.104,372.458c-0.29-0.034-0.588-0.045-0.895-0.03c-1.003,0.049-1.659,0.465-1.971,1.25
							l0.319,6.663l-2.188,0.105l-0.468-9.744l2.088-0.1l0.107,1.088c0.487-0.872,1.199-1.331,2.136-1.376
							c0.312-0.015,0.572,0.015,0.78,0.089L464.104,372.458z"/>
						<path style="fill:#313333;" d="M470.157,380.109c-1.387,0.066-2.532-0.316-3.435-1.149c-0.903-0.831-1.391-1.974-1.46-3.427
							l-0.013-0.271c-0.047-0.973,0.099-1.851,0.438-2.634s0.837-1.404,1.494-1.863c0.658-0.459,1.404-0.708,2.239-0.748
							c1.326-0.063,2.372,0.311,3.136,1.123c0.764,0.811,1.184,1.991,1.258,3.54l0.043,0.883l-6.367,0.305
							c0.104,0.801,0.404,1.426,0.897,1.871c0.494,0.446,1.098,0.651,1.812,0.617c1.003-0.049,1.8-0.493,2.391-1.334l1.235,1.068
							c-0.363,0.602-0.861,1.079-1.498,1.432C471.69,379.874,470.968,380.07,470.157,380.109z M469.496,371.774
							c-0.601,0.028-1.075,0.263-1.424,0.699c-0.35,0.438-0.558,1.035-0.623,1.79l4.169-0.2l-0.008-0.162
							c-0.083-0.73-0.305-1.273-0.665-1.633S470.103,371.745,469.496,371.774z"/>
						<path style="fill:#313333;" d="M478.082,379.548l-2.189,0.104l-0.664-13.831l2.189-0.104L478.082,379.548z"/>
						<path style="fill:#313333;" d="M488.073,372.028l-7.762,0.373l-0.088-1.818l7.762-0.373L488.073,372.028z M488.257,375.846
							l-7.762,0.373l-0.087-1.811l7.762-0.373L488.257,375.846z"/>
						<path style="fill:#313333;" d="M499.085,373.756c0.073,1.507-0.212,2.727-0.853,3.656c-0.642,0.931-1.538,1.423-2.691,1.479
							c-1.068,0.051-1.94-0.259-2.617-0.931l0.222,4.619l-2.188,0.105l-0.647-13.489l2.018-0.098l0.137,0.987
							c0.604-0.812,1.46-1.244,2.563-1.297c1.189-0.057,2.143,0.342,2.861,1.195c0.717,0.853,1.113,2.064,1.189,3.638
							L499.085,373.756z M496.896,373.671c-0.047-0.973-0.276-1.733-0.691-2.285c-0.414-0.552-0.982-0.811-1.702-0.776
							c-0.896,0.043-1.52,0.443-1.874,1.2l0.207,4.323c0.433,0.737,1.1,1.084,2,1.04c0.696-0.033,1.228-0.34,1.595-0.92
							C496.797,375.673,496.951,374.812,496.896,373.671z"/>
						<path style="fill:#313333;" d="M505.895,370.451c-0.29-0.034-0.589-0.044-0.895-0.029c-1.003,0.048-1.659,0.464-1.971,1.25
							l0.319,6.663l-2.188,0.104l-0.468-9.743l2.088-0.1l0.107,1.088c0.487-0.872,1.199-1.331,2.136-1.376
							c0.312-0.015,0.572,0.015,0.78,0.089L505.895,370.451z"/>
						<path style="fill:#313333;" d="M511.948,378.102c-1.387,0.066-2.532-0.315-3.435-1.148c-0.903-0.832-1.392-1.974-1.461-3.427
							l-0.013-0.271c-0.047-0.973,0.099-1.852,0.438-2.634c0.338-0.784,0.837-1.404,1.494-1.864
							c0.658-0.458,1.403-0.707,2.238-0.747c1.327-0.063,2.372,0.311,3.137,1.123c0.764,0.811,1.183,1.99,1.257,3.539l0.043,0.883
							l-6.366,0.306c0.104,0.801,0.403,1.426,0.897,1.871c0.493,0.445,1.098,0.65,1.812,0.616c1.003-0.048,1.8-0.492,2.391-1.333
							l1.235,1.068c-0.363,0.602-0.861,1.078-1.499,1.432C513.481,377.868,512.759,378.063,511.948,378.102z M511.286,369.767
							c-0.6,0.029-1.074,0.263-1.423,0.7c-0.351,0.438-0.558,1.034-0.623,1.789l4.169-0.2l-0.008-0.162
							c-0.083-0.729-0.305-1.273-0.665-1.633C512.376,369.903,511.894,369.738,511.286,369.767z"/>
						<path style="fill:#313333;" d="M519.873,377.541l-2.189,0.105l-0.664-13.831l2.189-0.105L519.873,377.541z"/>
						<path style="fill:#313333;" d="M521.605,372.484c-0.046-0.954,0.103-1.823,0.444-2.605c0.342-0.784,0.845-1.397,1.51-1.843
							c0.663-0.442,1.44-0.687,2.329-0.729c1.313-0.062,2.401,0.31,3.262,1.117c0.859,0.807,1.356,1.907,1.49,3.304l0.033,0.512
							c0.047,0.961-0.097,1.828-0.431,2.603c-0.332,0.774-0.833,1.384-1.5,1.832c-0.667,0.447-1.451,0.692-2.352,0.735
							c-1.374,0.066-2.497-0.339-3.366-1.214c-0.87-0.877-1.341-2.077-1.415-3.603L521.605,372.484z M523.804,372.569
							c0.049,1.003,0.292,1.778,0.734,2.324c0.44,0.549,1.031,0.805,1.77,0.769c0.738-0.035,1.299-0.351,1.684-0.947
							c0.382-0.596,0.548-1.449,0.494-2.561c-0.047-0.984-0.297-1.754-0.747-2.31c-0.451-0.557-1.039-0.816-1.765-0.782
							c-0.715,0.034-1.27,0.346-1.662,0.933C523.918,370.583,523.75,371.44,523.804,372.569z"/>
						<path style="fill:#313333;" d="M538.576,376.643c-0.105-0.181-0.204-0.48-0.297-0.896c-0.661,0.76-1.496,1.164-2.505,1.212
							c-0.979,0.047-1.791-0.194-2.435-0.723c-0.646-0.528-0.988-1.204-1.027-2.026c-0.05-1.039,0.297-1.854,1.041-2.445
							c0.746-0.593,1.835-0.925,3.271-0.993l1.342-0.064l-0.031-0.639c-0.024-0.504-0.186-0.901-0.481-1.19
							c-0.296-0.29-0.733-0.421-1.31-0.394c-0.498,0.024-0.9,0.168-1.206,0.433c-0.307,0.264-0.451,0.589-0.433,0.974l-2.188,0.104
							c-0.025-0.535,0.127-1.042,0.46-1.525c0.332-0.481,0.796-0.87,1.392-1.163c0.598-0.294,1.271-0.458,2.021-0.494
							c1.141-0.055,2.063,0.188,2.771,0.729c0.705,0.54,1.091,1.33,1.158,2.367l0.211,4.395c0.043,0.877,0.199,1.57,0.472,2.081
							l0.007,0.152L538.576,376.643z M536.096,375.182c0.433-0.021,0.833-0.145,1.205-0.373c0.371-0.229,0.644-0.524,0.819-0.887
							l-0.089-1.838l-1.18,0.057c-0.811,0.039-1.413,0.21-1.808,0.511c-0.395,0.303-0.579,0.712-0.555,1.228
							c0.021,0.42,0.176,0.748,0.467,0.983C535.248,375.099,535.628,375.205,536.096,375.182z"/>
						<path style="fill:#313333;" d="M542.084,371.52c-0.072-1.501,0.219-2.723,0.871-3.666c0.653-0.942,1.564-1.442,2.735-1.498
							c1.032-0.05,1.884,0.271,2.556,0.961l-0.239-4.989l2.188-0.105l0.664,13.831l-1.981,0.096l-0.155-1.003
							c-0.618,0.823-1.472,1.262-2.563,1.314c-1.142,0.055-2.087-0.36-2.836-1.245S542.16,373.099,542.084,371.52z M544.282,371.604
							c0.048,0.99,0.274,1.755,0.683,2.291c0.408,0.537,0.963,0.789,1.665,0.755c0.895-0.043,1.53-0.473,1.906-1.291l-0.199-4.16
							c-0.44-0.761-1.108-1.121-2.002-1.078c-0.709,0.034-1.242,0.342-1.599,0.921C544.378,369.622,544.229,370.475,544.282,371.604
							z"/>
						<path style="fill:#313333;" d="M302.54,406.853l5.952-0.285l0.087,1.819l-8.23,0.395l-0.629-13.11l2.278-0.109L302.54,406.853
							z"/>
						<path style="fill:#313333;" d="M309.53,396.04c-0.016-0.336,0.077-0.62,0.28-0.853c0.201-0.232,0.501-0.358,0.898-0.378
							c0.396-0.019,0.707,0.078,0.934,0.29s0.349,0.485,0.364,0.821c0.016,0.33-0.079,0.611-0.284,0.84
							c-0.206,0.229-0.507,0.354-0.902,0.372c-0.397,0.02-0.708-0.075-0.93-0.284C309.666,396.64,309.546,396.37,309.53,396.04z
							 M312.442,408.202l-2.188,0.104l-0.468-9.743l2.188-0.104L312.442,408.202z"/>
						<path style="fill:#313333;" d="M316.387,398.247l0.118,1.122c0.678-0.905,1.603-1.385,2.774-1.441
							c2.028-0.097,3.116,1.015,3.264,3.336l0.309,6.438l-2.188,0.105l-0.303-6.312c-0.029-0.619-0.186-1.07-0.467-1.355
							c-0.282-0.284-0.725-0.411-1.331-0.382c-0.883,0.042-1.522,0.473-1.915,1.292l0.332,6.934l-2.188,0.104l-0.468-9.743
							L316.387,398.247z"/>
						<path style="fill:#313333;" d="M328.046,403.265l-0.925,1.046l0.152,3.179l-2.188,0.104l-0.664-13.832l2.189-0.104
							l0.383,7.979l0.644-0.889l2.546-3.164l2.63-0.127l-3.425,4.235l4.279,5.489l-2.53,0.122L328.046,403.265z"/>
						<path style="fill:#313333;" d="M335.549,397.12c0.407-0.021,0.729,0.081,0.961,0.301c0.234,0.221,0.359,0.506,0.376,0.853
							c0.017,0.343-0.081,0.632-0.293,0.867c-0.211,0.236-0.521,0.363-0.928,0.384c-0.391,0.019-0.706-0.078-0.944-0.29
							c-0.239-0.21-0.367-0.49-0.384-0.839c-0.017-0.347,0.081-0.643,0.292-0.884C334.839,397.27,335.146,397.138,335.549,397.12z
							 M335.916,404.764c0.407-0.02,0.729,0.081,0.961,0.301c0.233,0.221,0.359,0.506,0.376,0.854
							c0.017,0.343-0.081,0.632-0.293,0.866c-0.211,0.236-0.521,0.364-0.929,0.384c-0.391,0.02-0.705-0.077-0.943-0.289
							c-0.239-0.211-0.367-0.49-0.384-0.839c-0.017-0.348,0.08-0.644,0.292-0.885C335.206,404.915,335.513,404.784,335.916,404.764z
							"/>
						<path style="fill:#313333;" d="M345.587,400.916l5.409,1.762l0.105,2.188l-7.697-2.997l-0.084-1.738l7.376-3.711l0.104,2.188
							L345.587,400.916z"/>
						<path style="fill:#313333;" d="M354.234,407.324l-1.721,0.083l4.477-14.484l1.72-0.082L354.234,407.324z"/>
						<path style="fill:#313333;" d="M365.587,397.888c-0.29-0.034-0.589-0.044-0.896-0.029c-1.003,0.048-1.659,0.465-1.97,1.251
							l0.319,6.662l-2.188,0.105l-0.468-9.743l2.089-0.101l0.107,1.088c0.486-0.872,1.199-1.33,2.136-1.375
							c0.312-0.016,0.572,0.015,0.78,0.089L365.587,397.888z"/>
						<path style="fill:#313333;" d="M371.641,405.541c-1.388,0.066-2.531-0.316-3.435-1.149c-0.903-0.832-1.391-1.973-1.461-3.426
							l-0.013-0.271c-0.047-0.973,0.1-1.851,0.438-2.633c0.339-0.784,0.837-1.404,1.495-1.864c0.658-0.458,1.404-0.707,2.239-0.747
							c1.326-0.064,2.371,0.31,3.135,1.121c0.765,0.812,1.185,1.992,1.259,3.541l0.042,0.883l-6.367,0.306
							c0.105,0.801,0.404,1.425,0.897,1.87c0.494,0.445,1.098,0.651,1.812,0.617c1.003-0.048,1.8-0.493,2.393-1.334l1.233,1.069
							c-0.361,0.601-0.861,1.078-1.497,1.43C373.174,405.305,372.451,405.502,371.641,405.541z M370.979,397.206
							c-0.6,0.029-1.075,0.263-1.423,0.699c-0.35,0.439-0.559,1.035-0.624,1.79l4.169-0.2l-0.008-0.162
							c-0.082-0.729-0.304-1.273-0.664-1.633C372.068,397.342,371.585,397.177,370.979,397.206z"/>
						<path style="fill:#313333;" d="M380.422,402.159l1.728-7.069l2.26-0.108l-2.909,9.905l-1.899,0.091l-3.872-9.579l2.269-0.109
							L380.422,402.159z"/>
						<path style="fill:#313333;" d="M385.657,392.386c-0.016-0.336,0.077-0.62,0.28-0.853c0.202-0.232,0.501-0.358,0.898-0.378
							c0.396-0.019,0.707,0.078,0.934,0.29c0.228,0.211,0.349,0.485,0.364,0.821c0.016,0.33-0.078,0.61-0.284,0.84
							s-0.507,0.354-0.902,0.372c-0.397,0.02-0.707-0.075-0.93-0.284C385.793,392.986,385.673,392.716,385.657,392.386z
							 M388.57,404.548l-2.189,0.104l-0.468-9.743l2.189-0.104L388.57,404.548z"/>
						<path style="fill:#313333;" d="M395.251,404.408c-1.388,0.066-2.531-0.317-3.435-1.15c-0.903-0.831-1.391-1.973-1.461-3.426
							l-0.013-0.271c-0.047-0.973,0.1-1.851,0.438-2.634c0.338-0.783,0.836-1.404,1.494-1.863s1.404-0.708,2.239-0.748
							c1.326-0.063,2.371,0.31,3.135,1.122c0.766,0.811,1.185,1.991,1.259,3.54l0.042,0.883l-6.366,0.306
							c0.105,0.801,0.403,1.425,0.897,1.871c0.493,0.445,1.097,0.65,1.812,0.616c1.002-0.048,1.799-0.493,2.392-1.334l1.233,1.069
							c-0.361,0.601-0.861,1.079-1.497,1.431C396.784,404.173,396.062,404.369,395.251,404.408z M394.589,396.072
							c-0.6,0.029-1.075,0.264-1.423,0.7c-0.35,0.438-0.559,1.035-0.623,1.79l4.169-0.2l-0.008-0.162
							c-0.083-0.73-0.305-1.273-0.665-1.633S395.195,396.044,394.589,396.072z"/>
						<path style="fill:#313333;" d="M409.262,400.53l1.226-6.801l2.135-0.103l-2.189,9.871l-1.801,0.086l-2.41-6.59l-1.732,6.789
							l-1.801,0.087l-3.133-9.615l2.135-0.103l1.896,6.579l1.678-6.751l1.648-0.079L409.262,400.53z"/>
						<path style="fill:#313333;" d="M419.887,400.39c-0.019-0.39-0.192-0.68-0.525-0.868c-0.331-0.188-0.871-0.343-1.623-0.464
							c-0.752-0.12-1.382-0.289-1.893-0.504c-1.118-0.478-1.701-1.216-1.749-2.219c-0.041-0.841,0.28-1.56,0.961-2.157
							c0.682-0.6,1.568-0.924,2.661-0.977c1.164-0.056,2.119,0.187,2.864,0.729c0.744,0.542,1.14,1.272,1.184,2.191l-2.188,0.104
							c-0.02-0.42-0.193-0.763-0.519-1.027c-0.325-0.263-0.746-0.383-1.263-0.358c-0.48,0.023-0.866,0.153-1.158,0.39
							c-0.294,0.236-0.43,0.541-0.412,0.912c0.017,0.337,0.169,0.593,0.46,0.766c0.292,0.171,0.87,0.332,1.738,0.48
							c0.867,0.146,1.552,0.339,2.055,0.577c0.501,0.238,0.88,0.533,1.134,0.89c0.255,0.354,0.396,0.792,0.421,1.314
							c0.042,0.877-0.289,1.604-0.988,2.183c-0.7,0.577-1.64,0.896-2.815,0.952c-0.798,0.038-1.518-0.072-2.155-0.33
							s-1.144-0.632-1.515-1.118c-0.373-0.488-0.574-1.023-0.603-1.605l2.127-0.102c0.055,0.514,0.269,0.903,0.642,1.164
							c0.374,0.262,0.858,0.379,1.453,0.351c0.576-0.028,1.008-0.158,1.299-0.392C419.768,401.038,419.904,400.745,419.887,400.39z"
							/>
						<path style="fill:#313333;" d="M424.742,403.939l-1.721,0.083l4.477-14.484l1.72-0.082L424.742,403.939z"/>
						<path style="fill:#313333;" d="M437.15,402.216l-2.179,0.104l-0.505-10.532l-3.162,1.249l-0.089-1.837l5.024-2.127
							l0.279-0.014L437.15,402.216z"/>
						<path style="fill:#313333;" d="M447.169,395.995l-5.663-1.778l-0.103-2.151l7.94,2.977l0.084,1.738l-7.62,3.723l-0.103-2.153
							L447.169,395.995z"/>
						<path style="fill:#313333;" d="M452.062,404.46l-1.214-0.646c0.322-0.562,0.538-1.049,0.647-1.461
							c0.109-0.411,0.157-0.827,0.143-1.248l-0.082-1.701l1.973-0.095l0.067,1.576c0.024,0.636-0.106,1.281-0.391,1.937
							C452.921,403.475,452.539,404.021,452.062,404.46z M452.099,391.524c0.408-0.02,0.729,0.082,0.962,0.302
							c0.234,0.221,0.359,0.505,0.376,0.852c0.017,0.343-0.081,0.633-0.293,0.868c-0.212,0.236-0.521,0.363-0.93,0.383
							c-0.389,0.019-0.704-0.077-0.943-0.289c-0.239-0.21-0.366-0.49-0.383-0.839c-0.017-0.347,0.08-0.643,0.291-0.885
							C451.39,391.675,451.696,391.544,452.099,391.524z"/>
						<path style="fill:#313333;" d="M465.154,393.109c-0.291-0.034-0.589-0.045-0.896-0.03c-1.003,0.049-1.659,0.466-1.971,1.251
							l0.319,6.663l-2.188,0.105l-0.468-9.743l2.088-0.101l0.107,1.087c0.487-0.872,1.2-1.33,2.137-1.375
							c0.312-0.015,0.572,0.015,0.78,0.089L465.154,393.109z"/>
						<path style="fill:#313333;" d="M471.207,400.762c-1.387,0.066-2.531-0.317-3.435-1.149s-1.39-1.974-1.46-3.427l-0.013-0.271
							c-0.047-0.973,0.099-1.851,0.438-2.634s0.837-1.404,1.494-1.863c0.658-0.459,1.404-0.708,2.239-0.748
							c1.327-0.063,2.372,0.311,3.136,1.122c0.765,0.811,1.185,1.992,1.259,3.541l0.042,0.883l-6.367,0.306
							c0.105,0.8,0.404,1.424,0.897,1.87c0.494,0.445,1.098,0.651,1.812,0.617c1.003-0.049,1.8-0.494,2.392-1.335l1.234,1.069
							c-0.362,0.601-0.861,1.079-1.497,1.431C472.74,400.526,472.018,400.722,471.207,400.762z M470.545,392.427
							c-0.6,0.028-1.074,0.263-1.423,0.699c-0.349,0.438-0.558,1.035-0.623,1.79l4.169-0.2l-0.008-0.162
							c-0.083-0.73-0.305-1.273-0.664-1.633C471.635,392.561,471.152,392.397,470.545,392.427z"/>
						<path style="fill:#313333;" d="M479.132,400.2l-2.189,0.104l-0.664-13.832l2.189-0.104L479.132,400.2z"/>
						<path style="fill:#313333;" d="M489.123,392.679l-7.762,0.373l-0.087-1.817l7.762-0.373L489.123,392.679z M489.307,396.499
							l-7.762,0.373l-0.087-1.811l7.762-0.373L489.307,396.499z"/>
						<path style="fill:#313333;" d="M500.136,394.408c0.072,1.507-0.213,2.727-0.854,3.655c-0.642,0.931-1.538,1.424-2.691,1.479
							c-1.068,0.052-1.94-0.259-2.616-0.931l0.222,4.619l-2.188,0.105l-0.648-13.489l2.017-0.097l0.138,0.985
							c0.605-0.811,1.461-1.242,2.564-1.296c1.189-0.057,2.142,0.341,2.86,1.194c0.717,0.853,1.114,2.065,1.189,3.639
							L500.136,394.408z M497.946,394.323c-0.046-0.973-0.275-1.733-0.69-2.285c-0.415-0.553-0.982-0.811-1.702-0.776
							c-0.896,0.043-1.52,0.442-1.875,1.199l0.208,4.323c0.433,0.737,1.099,1.085,1.999,1.041c0.696-0.033,1.229-0.34,1.595-0.92
							S498.002,395.465,497.946,394.323z"/>
						<path style="fill:#313333;" d="M506.945,391.102c-0.291-0.033-0.59-0.044-0.896-0.029c-1.003,0.048-1.659,0.466-1.971,1.251
							l0.319,6.663l-2.188,0.104l-0.468-9.743l2.088-0.1l0.107,1.087c0.486-0.872,1.2-1.33,2.136-1.375
							c0.312-0.015,0.573,0.015,0.781,0.089L506.945,391.102z"/>
						<path style="fill:#313333;" d="M512.998,398.755c-1.387,0.067-2.531-0.316-3.435-1.149c-0.903-0.831-1.391-1.973-1.461-3.426
							l-0.013-0.271c-0.047-0.973,0.1-1.851,0.438-2.634c0.338-0.783,0.837-1.404,1.494-1.864c0.658-0.458,1.404-0.707,2.239-0.747
							c1.327-0.063,2.371,0.31,3.136,1.122c0.765,0.811,1.184,1.991,1.258,3.54l0.042,0.883l-6.366,0.306
							c0.105,0.801,0.403,1.425,0.897,1.871c0.493,0.445,1.098,0.65,1.812,0.616c1.003-0.048,1.8-0.493,2.392-1.334l1.233,1.069
							c-0.361,0.601-0.86,1.079-1.497,1.431C514.531,398.52,513.809,398.717,512.998,398.755z M512.336,390.42
							c-0.6,0.029-1.075,0.264-1.423,0.7c-0.35,0.438-0.558,1.035-0.623,1.789l4.169-0.199l-0.008-0.162
							c-0.083-0.73-0.305-1.273-0.664-1.634C513.426,390.555,512.942,390.391,512.336,390.42z"/>
						<path style="fill:#313333;" d="M520.923,398.194l-2.189,0.104l-0.664-13.832l2.189-0.104L520.923,398.194z"/>
						<path style="fill:#313333;" d="M522.655,393.137c-0.045-0.954,0.103-1.824,0.445-2.606c0.341-0.784,0.843-1.397,1.509-1.843
							c0.664-0.442,1.441-0.687,2.33-0.729c1.313-0.062,2.4,0.309,3.261,1.116c0.86,0.807,1.357,1.908,1.491,3.304l0.033,0.513
							c0.046,0.961-0.098,1.828-0.432,2.604c-0.331,0.773-0.833,1.384-1.499,1.831c-0.668,0.446-1.452,0.692-2.353,0.735
							c-1.375,0.066-2.496-0.34-3.365-1.214c-0.87-0.877-1.342-2.076-1.415-3.602L522.655,393.137z M524.854,393.221
							c0.048,1.003,0.292,1.778,0.734,2.324c0.439,0.548,1.03,0.805,1.769,0.769c0.738-0.035,1.299-0.352,1.684-0.947
							c0.383-0.595,0.548-1.449,0.495-2.561c-0.048-0.984-0.297-1.754-0.748-2.31c-0.451-0.558-1.039-0.816-1.765-0.782
							c-0.715,0.034-1.27,0.345-1.661,0.933C524.969,391.235,524.8,392.093,524.854,393.221z"/>
						<path style="fill:#313333;" d="M539.625,397.296c-0.104-0.182-0.203-0.48-0.295-0.896c-0.662,0.759-1.497,1.164-2.506,1.212
							c-0.979,0.047-1.79-0.194-2.435-0.723c-0.646-0.528-0.987-1.204-1.027-2.026c-0.05-1.038,0.297-1.854,1.042-2.446
							c0.745-0.592,1.835-0.923,3.27-0.992l1.342-0.064l-0.031-0.639c-0.023-0.505-0.185-0.901-0.481-1.191
							c-0.296-0.289-0.732-0.42-1.309-0.393c-0.499,0.024-0.9,0.168-1.207,0.432c-0.307,0.265-0.45,0.59-0.432,0.974l-2.188,0.104
							c-0.026-0.534,0.128-1.041,0.46-1.524c0.331-0.481,0.796-0.87,1.392-1.164c0.597-0.293,1.271-0.457,2.021-0.493
							c1.141-0.055,2.063,0.188,2.771,0.729c0.705,0.54,1.092,1.329,1.159,2.368l0.211,4.395c0.042,0.877,0.198,1.569,0.471,2.079
							l0.007,0.153L539.625,397.296z M537.146,395.835c0.433-0.021,0.834-0.145,1.205-0.374c0.37-0.227,0.644-0.522,0.819-0.887
							l-0.088-1.837l-1.18,0.057c-0.811,0.039-1.413,0.209-1.809,0.511c-0.395,0.303-0.579,0.711-0.555,1.228
							c0.021,0.42,0.176,0.748,0.468,0.982C536.298,395.752,536.678,395.857,537.146,395.835z"/>
						<path style="fill:#313333;" d="M543.134,392.173c-0.071-1.501,0.219-2.723,0.872-3.666c0.652-0.943,1.564-1.441,2.735-1.498
							c1.032-0.05,1.883,0.27,2.556,0.961l-0.239-4.99l2.188-0.105l0.663,13.832l-1.981,0.096l-0.156-1.004
							c-0.616,0.823-1.471,1.263-2.562,1.315c-1.142,0.055-2.086-0.361-2.835-1.245C543.623,394.984,543.21,393.752,543.134,392.173
							z M545.333,392.257c0.047,0.99,0.273,1.755,0.683,2.291c0.407,0.537,0.963,0.789,1.665,0.755
							c0.895-0.043,1.529-0.474,1.906-1.292l-0.2-4.16c-0.44-0.761-1.107-1.119-2.001-1.077c-0.709,0.034-1.242,0.341-1.6,0.921
							S545.278,391.128,545.333,392.257z"/>
						<path style="fill:#313333;" d="M303.531,427.508l5.952-0.285l0.088,1.819l-8.23,0.395l-0.63-13.111l2.278-0.109
							L303.531,427.508z"/>
						<path style="fill:#313333;" d="M310.521,416.693c-0.016-0.335,0.077-0.619,0.28-0.853c0.201-0.232,0.501-0.357,0.898-0.377
							c0.396-0.019,0.707,0.077,0.934,0.289c0.227,0.213,0.349,0.486,0.364,0.821c0.017,0.331-0.079,0.612-0.284,0.84
							c-0.205,0.23-0.507,0.354-0.902,0.373c-0.397,0.02-0.707-0.075-0.93-0.285C310.657,417.295,310.538,417.024,310.521,416.693z
							 M313.435,428.856l-2.188,0.104l-0.468-9.744l2.188-0.104L313.435,428.856z"/>
						<path style="fill:#313333;" d="M317.379,418.9l0.117,1.123c0.678-0.905,1.603-1.386,2.774-1.442
							c2.028-0.097,3.116,1.016,3.264,3.336l0.31,6.439l-2.188,0.105l-0.304-6.312c-0.029-0.618-0.185-1.07-0.467-1.354
							s-0.725-0.412-1.331-0.383c-0.883,0.042-1.521,0.474-1.915,1.293l0.333,6.934l-2.188,0.104l-0.468-9.744L317.379,418.9z"/>
						<path style="fill:#313333;" d="M329.037,423.92l-0.925,1.046l0.153,3.179l-2.188,0.104l-0.664-13.832l2.188-0.104l0.383,7.979
							l0.644-0.889l2.547-3.165l2.63-0.126l-3.426,4.234l4.28,5.49l-2.53,0.122L329.037,423.92z"/>
						<path style="fill:#313333;" d="M336.541,417.774c0.407-0.021,0.728,0.08,0.961,0.301s0.358,0.505,0.375,0.853
							c0.017,0.343-0.081,0.631-0.293,0.867c-0.211,0.236-0.521,0.363-0.928,0.384c-0.391,0.019-0.706-0.078-0.944-0.29
							c-0.238-0.211-0.367-0.49-0.384-0.839c-0.017-0.348,0.081-0.643,0.293-0.884C335.83,417.924,336.138,417.793,336.541,417.774z
							 M336.907,425.419c0.407-0.021,0.729,0.08,0.961,0.301c0.234,0.221,0.359,0.505,0.376,0.854
							c0.017,0.343-0.081,0.631-0.293,0.866c-0.211,0.236-0.521,0.364-0.928,0.384c-0.391,0.02-0.706-0.077-0.944-0.289
							c-0.239-0.212-0.367-0.49-0.384-0.839s0.081-0.644,0.292-0.885C336.197,425.568,336.504,425.437,336.907,425.419z"/>
						<path style="fill:#313333;" d="M346.578,421.569l5.41,1.763l0.104,2.188l-7.697-2.998l-0.083-1.737l7.375-3.712l0.104,2.188
							L346.578,421.569z"/>
						<path style="fill:#313333;" d="M355.226,427.977l-1.721,0.083l4.477-14.484l1.72-0.083L355.226,427.977z"/>
						<path style="fill:#313333;" d="M366.578,418.543c-0.289-0.034-0.589-0.044-0.896-0.029c-1.002,0.048-1.659,0.465-1.97,1.251
							l0.32,6.662l-2.188,0.105l-0.468-9.744l2.089-0.101l0.106,1.089c0.487-0.872,1.199-1.331,2.136-1.376
							c0.312-0.016,0.572,0.015,0.78,0.089L366.578,418.543z"/>
						<path style="fill:#313333;" d="M372.633,426.195c-1.388,0.066-2.532-0.316-3.436-1.149c-0.903-0.832-1.391-1.973-1.46-3.428
							l-0.014-0.27c-0.046-0.973,0.1-1.851,0.438-2.633c0.34-0.784,0.837-1.406,1.495-1.864c0.658-0.459,1.404-0.708,2.239-0.748
							c1.326-0.064,2.372,0.311,3.135,1.122c0.765,0.812,1.185,1.992,1.259,3.541l0.042,0.883l-6.367,0.306
							c0.105,0.801,0.404,1.425,0.897,1.869c0.494,0.446,1.099,0.652,1.812,0.618c1.003-0.048,1.8-0.493,2.392-1.334l1.233,1.069
							c-0.361,0.601-0.861,1.078-1.497,1.43C374.166,425.96,373.443,426.156,372.633,426.195z M371.97,417.859
							c-0.6,0.029-1.074,0.263-1.423,0.7c-0.35,0.438-0.558,1.034-0.623,1.79l4.169-0.2l-0.008-0.162
							c-0.082-0.729-0.305-1.274-0.665-1.633C373.06,417.995,372.576,417.83,371.97,417.859z"/>
						<path style="fill:#313333;" d="M381.413,422.813l1.729-7.07l2.26-0.108l-2.909,9.906l-1.899,0.091l-3.872-9.58l2.269-0.109
							L381.413,422.813z"/>
						<path style="fill:#313333;" d="M386.648,413.039c-0.016-0.335,0.077-0.619,0.28-0.853c0.202-0.232,0.501-0.357,0.898-0.377
							c0.396-0.019,0.707,0.077,0.934,0.289c0.228,0.212,0.349,0.486,0.364,0.821c0.017,0.331-0.078,0.611-0.284,0.84
							c-0.205,0.23-0.507,0.354-0.902,0.373c-0.397,0.02-0.706-0.075-0.93-0.285C386.784,413.64,386.665,413.37,386.648,413.039z
							 M389.562,425.202l-2.189,0.104l-0.468-9.744l2.189-0.104L389.562,425.202z"/>
						<path style="fill:#313333;" d="M396.243,425.062c-1.388,0.066-2.532-0.317-3.436-1.15c-0.903-0.831-1.391-1.973-1.46-3.427
							l-0.014-0.27c-0.046-0.973,0.1-1.851,0.438-2.634s0.836-1.405,1.494-1.863c0.658-0.46,1.404-0.709,2.239-0.749
							c1.326-0.063,2.372,0.311,3.135,1.123c0.766,0.811,1.185,1.991,1.259,3.54l0.042,0.883l-6.366,0.306
							c0.105,0.801,0.403,1.425,0.897,1.87c0.493,0.446,1.098,0.651,1.812,0.617c1.002-0.048,1.799-0.493,2.391-1.334l1.233,1.069
							c-0.361,0.601-0.861,1.079-1.497,1.431C397.776,424.827,397.054,425.023,396.243,425.062z M395.58,416.725
							c-0.6,0.029-1.074,0.264-1.423,0.701c-0.35,0.438-0.558,1.034-0.622,1.79l4.169-0.2l-0.008-0.162
							c-0.083-0.73-0.306-1.274-0.666-1.633C396.67,416.861,396.187,416.697,395.58,416.725z"/>
						<path style="fill:#313333;" d="M410.253,421.183l1.227-6.801l2.135-0.103l-2.189,9.872l-1.801,0.086l-2.411-6.59l-1.731,6.789
							l-1.801,0.087l-3.133-9.616l2.135-0.103l1.895,6.579l1.679-6.751l1.648-0.079L410.253,421.183z"/>
						<path style="fill:#313333;" d="M420.879,421.045c-0.02-0.391-0.193-0.68-0.525-0.868c-0.331-0.189-0.872-0.344-1.624-0.464
							c-0.751-0.12-1.382-0.289-1.893-0.505c-1.118-0.477-1.701-1.215-1.749-2.218c-0.04-0.841,0.28-1.56,0.962-2.158
							c0.681-0.599,1.567-0.924,2.66-0.977c1.164-0.056,2.119,0.188,2.864,0.729s1.14,1.272,1.185,2.191l-2.188,0.104
							c-0.021-0.421-0.193-0.763-0.52-1.027c-0.325-0.264-0.745-0.383-1.263-0.358c-0.48,0.023-0.866,0.152-1.158,0.39
							c-0.293,0.236-0.43,0.541-0.411,0.912c0.016,0.337,0.168,0.591,0.459,0.765c0.292,0.172,0.871,0.333,1.738,0.481
							c0.867,0.146,1.552,0.339,2.055,0.577c0.501,0.237,0.88,0.533,1.134,0.89c0.255,0.354,0.396,0.792,0.421,1.314
							c0.042,0.877-0.288,1.604-0.987,2.183c-0.701,0.577-1.64,0.896-2.815,0.952c-0.798,0.038-1.519-0.072-2.156-0.33
							c-0.638-0.259-1.143-0.632-1.515-1.119c-0.373-0.487-0.574-1.022-0.602-1.605l2.126-0.102c0.055,0.515,0.27,0.903,0.642,1.165
							c0.374,0.262,0.858,0.378,1.453,0.35c0.576-0.028,1.009-0.157,1.299-0.391C420.759,421.692,420.896,421.398,420.879,421.045z"
							/>
						<path style="fill:#313333;" d="M425.733,424.593l-1.721,0.083l4.477-14.484l1.72-0.083L425.733,424.593z"/>
						<path style="fill:#313333;" d="M441.033,422.73l-8.816,0.424l-0.072-1.504l4.14-4.974c0.596-0.732,1.017-1.341,1.262-1.825
							c0.243-0.483,0.354-0.964,0.331-1.438c-0.029-0.624-0.229-1.12-0.599-1.487c-0.37-0.368-0.851-0.537-1.446-0.509
							c-0.708,0.034-1.247,0.277-1.616,0.729c-0.369,0.45-0.536,1.051-0.5,1.803l-2.188,0.104c-0.039-0.8,0.107-1.527,0.44-2.184
							s0.828-1.179,1.485-1.564c0.659-0.387,1.429-0.603,2.312-0.645c1.273-0.062,2.293,0.211,3.06,0.814
							c0.766,0.605,1.176,1.472,1.23,2.6c0.031,0.654-0.121,1.35-0.456,2.085c-0.335,0.734-0.901,1.578-1.697,2.531l-3.041,3.585
							l6.088-0.293L441.033,422.73z"/>
						<path style="fill:#313333;" d="M448.16,416.649l-5.662-1.778l-0.104-2.152l7.941,2.978l0.083,1.737l-7.619,3.724l-0.104-2.153
							L448.16,416.649z"/>
						<path style="fill:#313333;" d="M453.053,425.114l-1.214-0.646c0.323-0.562,0.538-1.05,0.647-1.461
							c0.109-0.412,0.157-0.827,0.143-1.249l-0.081-1.701l1.973-0.095l0.066,1.576c0.024,0.637-0.105,1.282-0.391,1.938
							C453.913,424.129,453.531,424.676,453.053,425.114z M453.091,412.178c0.408-0.02,0.728,0.081,0.962,0.302
							c0.233,0.221,0.358,0.504,0.375,0.852c0.017,0.343-0.081,0.632-0.293,0.868s-0.521,0.363-0.929,0.383
							c-0.39,0.019-0.705-0.077-0.944-0.289c-0.239-0.211-0.366-0.49-0.383-0.839c-0.017-0.348,0.08-0.643,0.292-0.885
							C452.381,412.328,452.688,412.198,453.091,412.178z"/>
						<path style="fill:#313333;" d="M466.146,413.763c-0.29-0.034-0.588-0.045-0.895-0.03c-1.004,0.049-1.66,0.466-1.972,1.251
							l0.32,6.663l-2.188,0.105l-0.468-9.744l2.088-0.101l0.106,1.088c0.488-0.872,1.2-1.331,2.137-1.376
							c0.312-0.015,0.572,0.015,0.78,0.089L466.146,413.763z"/>
						<path style="fill:#313333;" d="M472.199,421.416c-1.387,0.066-2.532-0.317-3.436-1.149s-1.39-1.974-1.459-3.428l-0.014-0.27
							c-0.046-0.973,0.099-1.851,0.438-2.634c0.34-0.783,0.837-1.405,1.494-1.863c0.658-0.46,1.404-0.709,2.239-0.749
							c1.327-0.063,2.373,0.312,3.136,1.123c0.765,0.811,1.185,1.992,1.259,3.541l0.042,0.883l-6.367,0.306
							c0.105,0.8,0.404,1.424,0.897,1.869c0.494,0.446,1.099,0.652,1.812,0.618c1.003-0.049,1.8-0.494,2.391-1.335l1.234,1.069
							c-0.362,0.601-0.861,1.079-1.497,1.431C473.732,421.18,473.01,421.377,472.199,421.416z M471.536,413.08
							c-0.6,0.028-1.073,0.263-1.423,0.7c-0.349,0.438-0.557,1.034-0.622,1.79l4.169-0.2l-0.008-0.162
							c-0.083-0.73-0.306-1.274-0.665-1.633C472.626,413.216,472.144,413.051,471.536,413.08z"/>
						<path style="fill:#313333;" d="M480.124,420.854l-2.189,0.104l-0.664-13.832l2.189-0.104L480.124,420.854z"/>
						<path style="fill:#313333;" d="M490.114,413.334l-7.762,0.373l-0.087-1.818l7.762-0.373L490.114,413.334z M490.298,417.153
							l-7.762,0.373l-0.087-1.811l7.762-0.373L490.298,417.153z"/>
						<path style="fill:#313333;" d="M501.127,415.061c0.072,1.508-0.213,2.727-0.854,3.656c-0.641,0.931-1.537,1.424-2.69,1.479
							c-1.068,0.052-1.941-0.259-2.617-0.931l0.222,4.618L493,423.99l-0.647-13.489l2.017-0.098l0.137,0.987
							c0.605-0.811,1.461-1.243,2.564-1.297c1.189-0.057,2.143,0.342,2.86,1.195c0.718,0.853,1.114,2.064,1.189,3.639
							L501.127,415.061z M498.938,414.977c-0.047-0.973-0.276-1.733-0.691-2.286c-0.415-0.552-0.982-0.811-1.702-0.776
							c-0.896,0.043-1.52,0.443-1.875,1.2l0.208,4.323c0.433,0.737,1.1,1.085,2,1.041c0.696-0.033,1.228-0.34,1.594-0.92
							C498.839,416.978,498.993,416.118,498.938,414.977z"/>
						<path style="fill:#313333;" d="M507.937,411.757c-0.29-0.033-0.59-0.044-0.895-0.029c-1.004,0.048-1.66,0.466-1.972,1.251
							l0.32,6.663l-2.188,0.104l-0.468-9.744l2.088-0.1l0.106,1.088c0.487-0.872,1.2-1.331,2.136-1.376
							c0.312-0.015,0.573,0.015,0.781,0.089L507.937,411.757z"/>
						<path style="fill:#313333;" d="M513.99,419.409c-1.387,0.067-2.532-0.316-3.436-1.149c-0.903-0.831-1.391-1.973-1.46-3.427
							l-0.014-0.27c-0.046-0.973,0.1-1.851,0.438-2.634s0.837-1.405,1.494-1.864c0.658-0.459,1.404-0.708,2.239-0.748
							c1.327-0.063,2.372,0.311,3.136,1.123c0.765,0.811,1.184,1.991,1.258,3.54l0.042,0.883l-6.366,0.306
							c0.105,0.801,0.403,1.425,0.897,1.87c0.493,0.446,1.099,0.651,1.812,0.617c1.003-0.048,1.8-0.493,2.391-1.334l1.233,1.069
							c-0.361,0.601-0.86,1.079-1.497,1.431C515.523,419.175,514.801,419.371,513.99,419.409z M513.327,411.073
							c-0.6,0.029-1.074,0.264-1.423,0.701c-0.35,0.438-0.557,1.034-0.622,1.789l4.169-0.199l-0.008-0.162
							c-0.083-0.73-0.306-1.275-0.665-1.634C514.417,411.209,513.934,411.044,513.327,411.073z"/>
						<path style="fill:#313333;" d="M521.915,418.848l-2.189,0.104l-0.664-13.832l2.189-0.104L521.915,418.848z"/>
						<path style="fill:#313333;" d="M523.647,413.792c-0.046-0.954,0.103-1.824,0.444-2.606c0.341-0.784,0.843-1.398,1.509-1.843
							c0.664-0.443,1.441-0.688,2.33-0.73c1.313-0.062,2.401,0.31,3.261,1.117c0.86,0.807,1.357,1.908,1.491,3.304l0.033,0.512
							c0.046,0.961-0.097,1.828-0.431,2.603c-0.332,0.774-0.833,1.386-1.5,1.832c-0.668,0.447-1.451,0.693-2.352,0.736
							c-1.375,0.066-2.497-0.34-3.366-1.215c-0.87-0.877-1.342-2.075-1.415-3.602L523.647,413.792z M525.846,413.875
							c0.048,1.003,0.292,1.778,0.734,2.325c0.44,0.548,1.031,0.805,1.77,0.769c0.738-0.035,1.299-0.352,1.683-0.947
							c0.383-0.597,0.548-1.45,0.495-2.561c-0.048-0.984-0.297-1.754-0.747-2.311c-0.452-0.557-1.04-0.816-1.766-0.782
							c-0.715,0.035-1.27,0.346-1.661,0.933C525.96,411.889,525.792,412.747,525.846,413.875z"/>
						<path style="fill:#313333;" d="M540.617,417.95c-0.104-0.182-0.203-0.481-0.296-0.896c-0.661,0.759-1.496,1.164-2.505,1.212
							c-0.979,0.047-1.791-0.194-2.436-0.723c-0.646-0.529-0.987-1.204-1.026-2.026c-0.05-1.039,0.296-1.854,1.041-2.446
							c0.745-0.593,1.835-0.923,3.27-0.992l1.342-0.064l-0.03-0.639c-0.024-0.505-0.186-0.901-0.482-1.191
							c-0.296-0.29-0.732-0.42-1.309-0.393c-0.499,0.024-0.9,0.167-1.207,0.432s-0.45,0.589-0.432,0.974l-2.188,0.104
							c-0.025-0.534,0.128-1.042,0.46-1.524c0.331-0.482,0.796-0.87,1.392-1.164c0.597-0.294,1.271-0.458,2.021-0.494
							c1.141-0.055,2.063,0.188,2.771,0.729c0.705,0.541,1.092,1.33,1.159,2.369l0.211,4.393c0.042,0.877,0.199,1.571,0.471,2.081
							l0.008,0.153L540.617,417.95z M538.137,416.489c0.433-0.021,0.834-0.145,1.206-0.374c0.369-0.228,0.644-0.522,0.818-0.887
							l-0.088-1.838l-1.18,0.057c-0.811,0.039-1.413,0.21-1.808,0.512s-0.58,0.711-0.555,1.227c0.02,0.421,0.176,0.748,0.467,0.983
							C537.289,416.406,537.669,416.512,538.137,416.489z"/>
						<path style="fill:#313333;" d="M544.126,412.827c-0.072-1.502,0.219-2.723,0.871-3.666s1.564-1.443,2.735-1.499
							c1.032-0.05,1.884,0.271,2.556,0.961l-0.239-4.989l2.188-0.105l0.664,13.832l-1.981,0.096l-0.157-1.004
							c-0.616,0.823-1.47,1.263-2.562,1.315c-1.142,0.055-2.087-0.361-2.836-1.246C544.615,415.637,544.201,414.406,544.126,412.827
							z M546.324,412.91c0.048,0.99,0.274,1.755,0.683,2.292c0.407,0.537,0.963,0.789,1.665,0.755
							c0.895-0.043,1.529-0.474,1.906-1.292l-0.199-4.16c-0.441-0.761-1.108-1.12-2.002-1.078c-0.709,0.034-1.242,0.342-1.6,0.921
							C546.42,410.928,546.271,411.782,546.324,412.91z"/>
					</g>
				</g>
			</g>
		</g>
		<polyline style="fill:none;stroke:#F7851F;stroke-width:3;stroke-miterlimit:10;" points="565.037,349.56 568.82,426.99 
			290.34,440.599 286.556,363.169 		"/>
	</g>
</g>
<g id="Calque_1">
</g>
</svg>
