<?xml version="1.0" encoding="utf-8"?>
<!-- Generator: Adobe Illustrator 22.0.1, SVG Export Plug-In . SVG Version: 6.00 Build 0)  -->
<svg version="1.1" id="Calque_1" xmlns="http://www.w3.org/2000/svg" xmlns:xlink="http://www.w3.org/1999/xlink" x="0px" y="0px"
	 width="24px" height="24px" viewBox="0 0 24 24" style="enable-background:new 0 0 24 24;" xml:space="preserve">
<path d="M8.3,18.7c0,0.1-0.1,0.2-0.2,0.2c-0.1,0-0.3-0.1-0.3-0.2c0-0.1,0.1-0.2,0.2-0.2C8.2,18.5,8.3,18.6,8.3,18.7z M6.9,18.5
	c0,0.1,0.1,0.2,0.2,0.2c0.1,0,0.3,0,0.3-0.1c0-0.1-0.1-0.2-0.2-0.2C7,18.3,6.9,18.4,6.9,18.5L6.9,18.5z M8.9,18.4
	c-0.1,0-0.2,0.1-0.2,0.2c0,0.1,0.1,0.1,0.3,0.1c0.1,0,0.2-0.1,0.2-0.2C9.1,18.4,9,18.4,8.9,18.4z M11.9,1.1c-6.3,0-11.1,4.8-11.1,11
	c0,5,3.2,9.3,7.7,10.8C9,23,9.2,22.7,9.2,22.4c0-0.3,0-1.8,0-2.8c0,0-3.2,0.7-3.8-1.3c0,0-0.5-1.3-1.3-1.7c0,0-1-0.7,0.1-0.7
	c0,0,1.1,0.1,1.7,1.2c1,1.7,2.6,1.2,3.3,0.9c0.1-0.7,0.4-1.2,0.7-1.5c-2.5-0.3-5.1-0.6-5.1-5c0-1.2,0.3-1.9,1.1-2.7
	C5.8,8.5,5.5,7.3,6.1,5.8C7,5.5,9.2,7,9.2,7c0.9-0.3,1.9-0.4,2.8-0.4S14,6.7,14.9,7c0,0,2.2-1.5,3.1-1.2c0.6,1.6,0.2,2.8,0.1,3.1
	c0.7,0.8,1.2,1.4,1.2,2.7c0,4.4-2.7,4.7-5.2,5c0.4,0.4,0.8,1,0.8,2.1c0,1.5,0,3.4,0,3.8c0,0.3,0.2,0.7,0.8,0.5
	c4.5-1.5,7.6-5.8,7.6-10.8C23.2,5.8,18.1,1.1,11.9,1.1z M5.2,16.7c-0.1,0,0,0.1,0,0.2c0.1,0.1,0.2,0.1,0.2,0c0.1,0,0-0.1,0-0.2
	C5.3,16.6,5.2,16.6,5.2,16.7z M4.7,16.3c0,0.1,0,0.1,0.1,0.2c0.1,0,0.2,0,0.2,0c0-0.1,0-0.1-0.1-0.2C4.8,16.2,4.7,16.2,4.7,16.3z
	 M6.2,17.9c-0.1,0.1,0,0.2,0.1,0.3c0.1,0.1,0.2,0.1,0.3,0c0.1-0.1,0-0.2-0.1-0.3C6.4,17.8,6.2,17.8,6.2,17.9z M5.6,17.2
	c-0.1,0-0.1,0.2,0,0.3c0.1,0.1,0.2,0.1,0.3,0.1c0.1-0.1,0.1-0.2,0-0.3C5.8,17.2,5.7,17.2,5.6,17.2L5.6,17.2z"/>
</svg>
