<svg xmlns="http://www.w3.org/2000/svg" viewBox="0 0 600 600"><path fill="#495466" d="M508.7 524h3.3a12 12 0 0112 12v8a12 12 0 01-12 12H156a80 80 0 01-80-80V124a80 80 0 0180-80h344a23.94 23.94 0 0124 24v368a24.1 24.1 0 01-14.9 22.2c-3.6 16.1-4.4 45.6-.4 65.8zM204 428h288V76H204zm-96 16a80 80 0 0148-16h16V76h-16a48 48 0 00-48 48zm372.3 80a228.6 228.6 0 010-64H156c-64 0-64 64 0 64z"/><path fill="#ffa600" d="M432 204H264a12 12 0 01-12-12v-8a12 12 0 0112-12h168a12 12 0 0112 12v8a12 12 0 01-12 12zm12 52v-8a12 12 0 00-12-12H264a12 12 0 00-12 12v8a12 12 0 0012 12h168a12 12 0 0012-12z"/></svg>