<?xml version="1.0" encoding="utf-8"?>
<!-- Generator: Adobe Illustrator 22.0.1, SVG Export Plug-In . SVG Version: 6.00 Build 0)  -->
<svg version="1.1" id="Calque_1" xmlns="http://www.w3.org/2000/svg" xmlns:xlink="http://www.w3.org/1999/xlink" x="0px" y="0px"
	 width="640px" height="512px" viewBox="0 0 640 512" style="enable-background:new 0 0 640 512;" xml:space="preserve">
<style type="text/css">
	.st0{fill:#495466;}
	.st1{fill:#ffa600;}
</style>
<path class="st0" d="M502.4,350.7c-1.2-8.6-3.7-17.2-6.2-25.5c-0.5-1.7-1-3.4-1.5-5.1h-7.8c-2.5-3.5-5.3-6.9-8.8-9.8l-119.4-97
	L336,234.1l-1.2,1.1l123.1,99.9c6.8,5.6,7.8,15.7,2.3,22.5l-9.5,11.7c-5.4,6.6-15.4,8.1-22.5,2.3l-17.8-14.4l-41.5,51
	c-7.5,9.3-21,10.2-29.4,3.4l-30.6-26.1l-10.4,12.8c-16.7,20.5-47,23.7-66.6,7.9L142,320.1H96V159.9h38.6l59.3-59.3
	c3-3,7.1-4.7,11.3-4.7h69.5c0,0.1,0.1,0.2,0.1,0.3c11.3-10.1,21-19,26.1-24.2c-7.8-5.1-16.8-8-26.1-8h-69.5
	c-12.7,0-24.9,5.1-33.9,14.1l-50,50H8c-4.4,0-8,3.6-8,8v16c0,4.4,3.6,8,8,8h56v191.9H8c-4.4,0-8,3.6-8,8v16c0,4.4,3.6,8,8,8h56
	c17.6,0,31.8-14.2,31.9-31.7h33.2l81.5,78c29.8,24.1,71.8,23.4,101-0.2l7.2,6.2c9.6,7.8,21.3,11.9,33.5,11.9c16,0,31.1-7,41.4-19.6
	l21.9-26.9c16.4,8.9,42.9,9,60-12l9.5-11.7c6.2-7.6,9.6-16.6,10.5-25.7h7L502.4,350.7z"/>
<path class="st1" d="M355.1,211.3l28.4-26.1c6.5-6,7-16.1,1-22.6s-16.1-6.9-22.6-1l-75.1,68.8c-14.4,13.1-38.6,12-51.7-2.2
	c-13.6-14.8-12.7-38,2.2-51.7l83.1-76.2c3-2.7,6.8-4.2,10.8-4.2h101c4.3,0,8.3,1.7,11.4,4.8l60.7,59.1H543v160.1h-54.8
	c3.1,10.6,6.6,21.2,8.1,32.1h46.9c0.1,17.5,14.4,31.7,31.9,31.7h56c4.4,0,8-3.6,8-8v-16c0-4.4-3.6-8-8-8h-56V160.2l56-0.2
	c4.4,0,8-3.6,8-8v-16c-0.1-4.5-3.7-8-8.1-8h0l-113.5,0.2l-51.2-49.9c-9.1-9.1-21.1-14.1-33.9-14.1h-101c-9.4,0-18.2,3.2-25.9,8.3
	c-7.9,10.9-89.7,80.5-89.7,80.5c-28.2,25.9-29.6,69.2-4.2,96.9c14.3,15.6,58.6,39.3,96.9,4.2l22.8-20.9L355.1,211.3z"/>
</svg>
