<svg xmlns="http://www.w3.org/2000/svg" viewBox="0 0 600 600"><path fill="#495466" d="M466.06,385.91c-1.09-7.81-3.36-15.62-5.63-23.16l-1.36-4.63H452a46.13,46.13,0,0,0-8-8.9L335.55,261.13,314.94,280l-1.09,1,111.79,90.73a14.62,14.62,0,0,1,2.09,20.43l-8.62,10.62a14.51,14.51,0,0,1-20.44,2.09l-16.16-13.07-37.69,46.31a19.2,19.2,0,0,1-26.7,3.09l-27.79-23.7-9.45,11.62c-15.16,18.62-42.68,21.52-60.48,7.18l-81.64-78.2H97V212.63H132l53.86-53.85a14.6,14.6,0,0,1,10.26-4.27h63.12c0,.09.09.18.09.27,10.26-9.17,19.07-17.25,23.7-22a43.33,43.33,0,0,0-23.7-7.27H196.24a43.56,43.56,0,0,0-30.78,12.81l-45.41,45.4h-103A7.29,7.29,0,0,0,9.8,191v14.53a7.29,7.29,0,0,0,7.26,7.27H67.92V387.09H17.06a7.29,7.29,0,0,0-7.26,7.27v14.53a7.29,7.29,0,0,0,7.26,7.26H67.92a29,29,0,0,0,29-28.78H127l74,70.83a72.85,72.85,0,0,0,91.72-.18l6.54,5.63a48.44,48.44,0,0,0,68-7l19.89-24.43c14.89,8.08,39,8.17,54.49-10.9l8.63-10.62a43.53,43.53,0,0,0,9.53-23.34h6.36Z"/><path fill="#ffa600" d="M332.29,259.31l25.79-23.7a14.53,14.53,0,1,0-19.62-21.43l-68.2,62.48c-13.08,11.9-35.06,10.9-46.95-2a33.27,33.27,0,0,1,2-47l75.47-69.2a14.65,14.65,0,0,1,9.81-3.82H402.3a14.54,14.54,0,0,1,10.36,4.36l55.12,53.68h35.15V358.12H453.16c2.82,9.63,6,19.26,7.36,29.15h42.59a29,29,0,0,0,29,28.79h50.86a7.29,7.29,0,0,0,7.26-7.26V394.27a7.29,7.29,0,0,0-7.26-7.27H532.08V212.91l50.86-.18a7.29,7.29,0,0,0,7.26-7.27V190.93a7.36,7.36,0,0,0-7.35-7.27h0l-103.08.19-46.5-45.32a43.18,43.18,0,0,0-30.78-12.81H310.76a42.59,42.59,0,0,0-23.52,7.54c-7.17,9.9-81.46,73.11-81.46,73.11a62.24,62.24,0,0,0-3.82,88c13,14.17,53.22,35.69,88,3.81l20.71-19Z"/></svg>