<?xml version="1.0" encoding="utf-8"?>
<!-- Generator: Adobe Illustrator 22.0.1, SVG Export Plug-In . SVG Version: 6.00 Build 0)  -->
<svg version="1.1" id="Calque_1" xmlns="http://www.w3.org/2000/svg" xmlns:xlink="http://www.w3.org/1999/xlink" x="0px" y="0px"
	 width="237px" height="514px" viewBox="0 0 237 514" style="enable-background:new 0 0 237 514;" xml:space="preserve">
<style type="text/css">
	.st0{opacity:0.1;fill:#050505;}
	.st1{fill:#3177aa;}
	.st2{fill:#257ebf;}
	.st3{fill:#3e96d6;}
</style>
<g>
	<ellipse class="st0" cx="107.5" cy="454.5" rx="107.5" ry="59.5"/>
	<g>
		<g>
			<polygon class="st1" points="59.2,471.1 122.4,435.6 155.7,390.6 122.4,371.7 59.2,407.2 			"/>
			<path class="st1" d="M201.7,10.1c-21.3-14.4-61.8-14-95.7,5c-12.5,7-23.5,14.7-33.1,23C54.6,53.8,40.3,70.5,30.1,88.4
				C14.9,114.8,6.2,141.8,4,169.3l33.2,18.9c0.9-9.5,30.3-60.6,32.7-68.7c5.6-19.3,14.7-33.3,27.4-42c13.6-9.4,24-11.3,31.1-5.7
				c5.2,3.7,8.2,10.7,9.3,20.7l89.5-52.1C217.4,20.8,204.4,11.9,201.7,10.1z"/>
			<path class="st2" d="M179.7,30.3l-42,62.2c0.3,2.5,0.4,5.2,0.4,8.1c0,14.1-2.2,28.8-6.7,44.1c-7.8,26.4-22.2,55.8-43.2,88.5
				C68.9,263.4,59.2,298.3,59.2,338v25.2l63.3-35.5v-25.2c0-7.4,0.2-14.3,0.7-20.6c0.9-18.7,8.2-38.7,21.8-60
				c39.2-61.2,58.8-113.6,58.8-157.1c0-13.5-1.9-25-5.6-34.5H179.7z"/>
		</g>
		<polygon class="st2" points="59.2,363.2 92.4,382.1 123.9,336.9 75.8,319.1 		"/>
		<g>
			<path class="st3" d="M139.3,34c33.9-19,59.6-21.2,77-6.6C230.1,38.9,237,57.7,237,83.7c0,43.5-19.6,95.9-58.8,157.1
				c-13.7,21.3-20.9,41.3-21.8,60c-0.4,6.3-0.7,13.2-0.7,20.6v25.2l-63.3,35.5v-25.2c0-39.7,9.7-74.6,29.1-104.8
				c21-32.6,35.4-62.1,43.2-88.5c4.5-15.3,6.7-30,6.7-44.1c0-14.6-3.2-24.2-9.7-28.9c-7.2-5.6-17.5-3.7-31.1,5.7
				c-12.7,8.7-21.9,22.7-27.4,42c-2.5,8.1-4.1,16.9-5,26.3l-60.9,23.5c2.2-27.5,10.9-54.4,26.1-80.9C73.6,89.4,87.8,72.6,106.1,57
				C115.7,48.7,126.8,41,139.3,34z M92.4,426.1l63.3-35.5v63.9L92.4,490V426.1z"/>
		</g>
		<polygon class="st2" points="59.2,407.2 92.4,426.1 92.4,490 59.2,471.1 		"/>
	</g>
</g>
</svg>
