<?xml version="1.0" encoding="utf-8"?>
<!-- Generator: Adobe Illustrator 22.0.1, SVG Export Plug-In . SVG Version: 6.00 Build 0)  -->
<svg version="1.1" id="Calque_1" xmlns="http://www.w3.org/2000/svg" xmlns:xlink="http://www.w3.org/1999/xlink" x="0px" y="0px"
	 width="640px" height="512px" viewBox="0 0 640 512" style="enable-background:new 0 0 640 512;" xml:space="preserve">
<style type="text/css">
	.st0{fill:#495466;}
	.st1{fill:#ffa600;}
</style>
<path class="st0" d="M624,368h-48V96c0-35.3-28.7-64-64-64H128c-35.3,0-64,28.7-64,64v272H16c-8.8,0-16,7.2-16,16v48
	c0,44.1,35.9,80,80,80h480c44.1,0,80-35.9,80-80v-48C640,375.2,632.8,368,624,368z M96,96c0-17.7,14.3-32,32-32h384
	c17.7,0,32,14.3,32,32v272H391.1c-4.1,0-7,3.1-7.9,7.1c-3.2,14.3-16,24.9-31.2,24.9h-64c-15.2,0-28-10.6-31.2-24.9
	c-0.9-4-3.9-7.1-7.9-7.1H96V96z M608,432c0,26.5-21.5,48-48,48H80c-26.5,0-48-21.5-48-48v-32h194.8c6.6,18.6,24.4,32,45.2,32h96
	c20.9,0,38.7-13.4,45.2-32H608V432z"/>
<path class="st1" d="M266.3,277.6l11.3-11.3c3.1-3.1,3.1-8.2,0-11.3l-47-47l47-47c3.1-3.1,3.1-8.2,0-11.3l-11.3-11.3
	c-3.1-3.1-8.2-3.1-11.3,0l-64,64c-3.1,3.1-3.1,8.2,0,11.3l64,64C258.2,280.8,263.2,280.8,266.3,277.6z"/>
<path class="st1" d="M362.3,266.3l11.3,11.3c3.1,3.1,8.2,3.1,11.3,0l64-64c3.1-3.1,3.1-8.2,0-11.3l-64-64c-3.1-3.1-8.2-3.1-11.3,0
	l-11.3,11.3c-3.1,3.1-3.1,8.2,0,11.3l47,47l-47,47C359.2,258.1,359.2,263.2,362.3,266.3C362.3,266.3,362.3,266.3,362.3,266.3z"/>
</svg>
