
<svg version="1.1" xmlns="http://www.w3.org/2000/svg" xmlns:xlink="http://www.w3.org/1999/xlink" x="0px" y="0px" width="600px"
	 height="136.4px" viewBox="0 0 600 136.4" style="enable-background:new 0 0 600 136.4;" xml:space="preserve">
<style type="text/css">
	.st0{fill:#485568;}
	.st1{fill-rule:evenodd;clip-rule:evenodd;fill:#485568;}
	.st2{fill:url(#Circle_2_);}
	.st3{fill-rule:evenodd;clip-rule:evenodd;fill:url(#Flame_4_);}
	.st4{fill:url(#Circle_3_);}
	.st5{fill-rule:evenodd;clip-rule:evenodd;fill:url(#Flame_5_);}
</style>
<defs>
</defs>
<g id="Text_1_">
	<path id="V_1_" class="st0" d="M184,116.2c-2.9,0-5.9-1.4-9.2-4.2l-17.4-14.6c-2.8-2.1-4.8-4.2-6.2-6.3c-1.3-2.1-2.1-4.7-2.4-8
		V32.2c0-3.3,1.1-6.1,3.4-8.4c2.3-2.3,5.1-3.4,8.4-3.4c3.3,0,6.1,1.1,8.4,3.4c2.3,2.3,3.4,5.1,3.4,8.4v49.5c0,5.5,4.4,9.9,9.9,9.9h0
		c7.5,0,13.6-6.1,13.6-13.6V32.2c0-3.3,1.1-6.1,3.4-8.4c2.2-2.2,5.3-3.5,8.4-3.4c3.2,0,5.9,1.2,8.1,3.4c2.3,2.3,3.4,5.1,3.4,8.4
		v50.9c-0.3,3.3-1.1,6-2.4,8c-1.3,2.1-3.4,4.2-6.2,6.3l-17.1,14.3C189.9,114.7,186.8,116.2,184,116.2z"/>
	<path id="U_1_" class="st0" d="M227.8,24.5c2.2-2.4,5-3.6,8.4-3.6s6.2,1.2,8.4,3.6c2.2,2.4,3.4,5.3,3.4,8.8v47.6
		c0,6,4.8,10.8,10.8,10.8l0,0c6,0,10.8-4.8,10.8-10.8V32.7c0-3.1,1.2-5.9,3.5-8.2c2.3-2.4,5.1-3.5,8.3-3.6c3.3,0,6.5,1.4,8.8,3.8
		c2.1,2.3,3.2,4.9,3.2,8v71c0,3.3-1.2,6.1-3.5,8.4c-2.3,2.3-5.1,3.4-8.4,3.4c-3.2,0-6-1.1-8.3-3.4c-2.3-2.3-3.5-5.1-3.5-8.4v-4
		c0-0.4-0.1-0.7-0.3-0.7c-0.2,0-0.4,0.2-0.5,0.7c-1.6,5.1-4.2,9-7.8,11.6c-3.6,2.6-8,4-13.2,4c-4.4,0-8.3-0.9-11.9-2.7
		c-3.5-1.8-6.3-4.4-8.4-7.7c-2.1-3.3-3.1-7.1-3.1-11.5V33C224.4,29.7,225.6,26.8,227.8,24.5z"/>
	<path id="L_1_" class="st0" d="M308.9,112.2c-3.1-1.8-5.6-4.3-7.4-7.4c-1.8-3.1-2.7-6.5-2.7-10.1V32.2c0-3.1,1.2-5.8,3.6-8.1
		c2.4-2.3,5.1-3.4,8.2-3.4c3.3,0,6.1,1.1,8.4,3.4c2.3,2.3,3.5,5,3.5,8.1v59.5c3,0,5.3,0,6.8-0.1c1.5,0,2.6-0.1,3.4-0.1
		c1.3-0.1,4.6-0.1,9.9-0.1c3.7,0,6.5,1.2,8.5,3.5c2,2.3,3,5.1,3,8.3c0,3.2-1,6-3,8.3c-2,2.3-4.8,3.5-8.5,3.5H319
		C315.4,115,312,114.1,308.9,112.2z"/>
	<path id="C_1_" class="st0" d="M360.2,31.1c1.8-3,4.2-5.4,7.2-7.2c3-1.8,6.3-2.7,9.9-2.7h32.4c3.1,0,5.9,1.2,8.2,3.5
		c2.4,2.3,3.6,5.1,3.6,8.3c0,3.1-1.2,5.9-3.6,8.2c-2.4,2.3-5.1,3.5-8.2,3.5h-28.8v47.2h28.5c3.2,0,6,1.1,8.3,3.4
		c2.3,2.3,3.5,5,3.5,8.2s-1.2,5.9-3.5,8.2c-2.3,2.2-5.1,3.4-8.3,3.4h-32.2c-3.6,0-6.9-0.9-9.9-2.7c-3-1.8-5.4-4.2-7.2-7.2
		c-1.8-3-2.7-6.3-2.7-9.9V41C357.5,37.4,358.4,34.1,360.2,31.1z"/>
	<path id="I_1_" class="st0" d="M502.2,33.1c0-3.6,1.2-6.4,3.5-8.4c2.3-2.1,5.1-3.1,8.3-3.1c3.1,0,5.8,1,8.2,3
		c2.3,2,3.5,4.8,3.5,8.4v71.5c0,3.6-1.2,6.4-3.5,8.4c-2.3,2-5,3-8.2,3c-3.2,0-6-1-8.3-3c-2.3-2-3.5-4.8-3.5-8.4V33.1z"/>
	<path id="N_1_" class="st0" d="M596.6,111.8c-2.2,2.3-5,3.5-8.3,3.5c-3.4,0-6.2-1.2-8.4-3.5c-2.2-2.3-3.4-5.1-3.4-8.4v-48
		c0-6-4.8-10.8-10.8-10.8l0,0c-6,0-10.8,4.8-10.8,10.8v48.3c0,3.3-1.2,6.1-3.5,8.3c-2.3,2.2-5,3.3-8.2,3.3c-3.2,0.1-6.3-1.2-8.5-3.4
		c-2.3-2.3-3.4-5-3.4-8.2v-71c0-3.3,1.2-6.1,3.5-8.4c2.3-2.3,5-3.4,8.2-3.4c3.3,0,6.1,1.1,8.4,3.4c2.3,2.3,3.5,5.1,3.5,8.4v3.9
		c0,0.4,0.1,0.7,0.3,0.7c0.2,0,0.3-0.1,0.3-0.3c1.6-5.2,4.3-9.1,8-11.8c3.7-2.7,8.2-4,13.3-4c6.7,0,12.2,2,16.6,6
		c4.4,4,6.6,9.3,6.6,16v60.3C600,106.6,598.9,109.4,596.6,111.8z"/>
	<path id="A_1_" class="st1" d="M460.7,20.2c2.8,0,5.8,1.4,9.1,4.2l17.6,14.3c2.8,2.3,4.8,4.5,6.1,6.6c1.3,2.1,2,4.6,2.2,7.8v50.8
		c0,3.2-1.1,5.9-3.3,8.2c-2.2,2.2-5,3.3-8.2,3.3c-3.3,0-6.1-1.1-8.4-3.3c-2.3-2.2-3.4-5-3.4-8.2V74.6L449,73.7v30.2
		c0,3.2-1.1,5.9-3.4,8.2c-2.3,2.2-5,3.3-8.2,3.3c-3.2,0-6-1.1-8.3-3.3c-2.3-2.2-3.5-5-3.5-8.2V53.1c0.3-3,1.1-5.6,2.4-7.6
		c1.3-2.1,3.4-4.3,6.2-6.7l17.1-14.3C454.9,21.6,458,20.2,460.7,20.2z M473.5,52.4c0,7-5.9,12.9-12.9,12.9c-7,0-12.9-5.9-12.9-12.9
		c-0.2-3.6,2.5-7.2,2.7-10.9c1,1.9,1.1,3.2,1.3,5.2c3.3-4,6.6-9.4,5.9-14.2c0,0,6.2,1.9,8.7,11.4c1.5-1.3,1.3-4,0.6-5.6
		C468.2,39.2,473.7,45.7,473.5,52.4L473.5,52.4z"/>
</g>
<g id="Flame_2_">
	<linearGradient id="Circle_2_" gradientUnits="userSpaceOnUse" x1="0" y1="71.1673" x2="130.8823" y2="71.1673">
		<stop  offset="0" style="stop-color:#FAA21B"/>
		<stop  offset="0.9996" style="stop-color:#F26522"/>
	</linearGradient>
	<path id="Circle_1_" class="st2" d="M72.4,5.9c2,1.9,4,4.1,6,6.6c26.8,5.9,47,29.9,47,58.5c0,33-26.9,59.9-59.9,59.9
		S5.5,104,5.5,71c0-27.6,18.7-50.8,44.1-57.8c0.4-2,0.7-4,0.8-5.9C21.6,14.1,0,40.1,0,71c0,36.1,29.4,65.4,65.4,65.4
		s65.4-29.4,65.4-65.4C130.9,37.2,105.2,9.4,72.4,5.9z"/>
	<linearGradient id="Flame_4_" gradientUnits="userSpaceOnUse" x1="16.2712" y1="62.489" x2="114.525" y2="62.489">
		<stop  offset="0" style="stop-color:#FAA21B"/>
		<stop  offset="0.9996" style="stop-color:#F26522"/>
	</linearGradient>
	<path id="Flame_3_" class="st3" d="M89.3,22.1c2.8,6.1,3.3,16.4-2.3,21.4C77.4,7.4,53.9,0,53.9,0c2.8,18.6-10.1,38.9-22.5,54.2
		c-0.4-7.4-0.9-12.5-4.8-19.6c-0.9,14.1-11,27.8-10.3,41.4c0,10.4,3.4,20.1,9.1,28.1l29.5-29.5L68.4,88l-29.2,29.2
		c7.6,4.9,16.6,7.8,26.2,7.8c26.7,0,49.1-22.3,49.1-49.1C115.4,50.7,94.5,25.9,89.3,22.1z M81.6,53.6c0.8-0.8,2.1-0.8,2.9,0l5,5
		c0.8,0.8,0.8,2.1,0,2.9l-1.9,1.9l-7.9-7.9L81.6,53.6z M85.1,98.9c-0.8,0.8-2.1,0.8-2.9,0l-38-38c-0.8-0.8-0.8-2.1,0-2.9l16-16
		c0.8-0.8,2.1-0.8,2.9,0l38,38c0.8,0.8,0.8,2.1,0,2.9L85.1,98.9z"/>
</g>
</svg>

