<svg xmlns="http://www.w3.org/2000/svg" xmlns:xlink="http://www.w3.org/1999/xlink" viewBox="0 0 248.98 46.89"><defs><style>.a{fill:url(#a);}.b{fill:url(#b);}.c{fill:#fff;}</style><linearGradient id="a" y1="23.44" x2="46.89" y2="23.44" gradientUnits="userSpaceOnUse"><stop offset="0" stop-color="#76c8dd"/><stop offset="1" stop-color="#2ab3d7"/></linearGradient><linearGradient id="b" x1="5.03" y1="23.19" x2="41.86" y2="23.19" xlink:href="#a"/></defs><title>Fichier 1</title><path class="a" d="M23.44,46.89A23.45,23.45,0,1,1,46.89,23.44,23.47,23.47,0,0,1,23.44,46.89ZM23.44,2A21.47,21.47,0,1,0,44.91,23.44,21.49,21.49,0,0,0,23.44,2Z"/><path class="b" d="M23.44,4.78A18.41,18.41,0,0,0,7.24,31.94c.48-.35,1-.7,1.59-1.07,10.1-6,19-11,25-20.17,0,0-.42,10.4-6.42,15.27a43,43,0,0,1-3.54,2.61,24.76,24.76,0,0,0,7.71-5.87s-.15,7-5.3,10.08a21.68,21.68,0,0,1-5.13,2.27,17.5,17.5,0,0,0,6.38-2.5c-1.32,4.35-4.13,6.61-8.53,7.26a12.67,12.67,0,0,1-4.39-.5,18.21,18.21,0,0,0,8.87,2.29,18.42,18.42,0,1,0,0-36.83Z"/><path class="c" d="M64.47,6.33a4.18,4.18,0,0,1,3.32,1.59l3.64,3.88,3.65-3.88a4.72,4.72,0,0,1,3.46-1.59,4.26,4.26,0,0,1,3.31,1.59L86.75,13c.19.23.56.65,1.12,1.28a8.6,8.6,0,0,1,1.3,1.82,5.34,5.34,0,0,1,.55,2V36.38a3.73,3.73,0,0,1-1.25,3,4.64,4.64,0,0,1-6,0,3.76,3.76,0,0,1-1.25-3V17.92a2.8,2.8,0,0,0-2.8-2.8h0a2.8,2.8,0,0,0-2.81,2.8V36.38a3.89,3.89,0,0,1-1.25,3.07,4.27,4.27,0,0,1-2.93,1.11,4.31,4.31,0,0,1-3-1.11,3.85,3.85,0,0,1-1.25-3.07V17.88a2.76,2.76,0,0,0-2.76-2.76h0a2.75,2.75,0,0,0-2.76,2.76v18.5a3.76,3.76,0,0,1-1.25,3,4.64,4.64,0,0,1-6,0,3.76,3.76,0,0,1-1.25-3V18.09a4.54,4.54,0,0,1,.6-2.25,10.15,10.15,0,0,1,1.3-1.71c.49-.53.85-.9,1.08-1.13l4.89-5.08A4.37,4.37,0,0,1,64.47,6.33Z"/><path class="c" d="M100,19.44h9.36a4,4,0,0,1,3,1.22,4.11,4.11,0,0,1,1.22,3,4.27,4.27,0,0,1-4.18,4.18H100v4h10.18a4,4,0,0,1,3,1.22,4.08,4.08,0,0,1,1.23,3A3.88,3.88,0,0,1,113.12,39a4.45,4.45,0,0,1-3,1.3H98.6a6.66,6.66,0,0,1-3.48-1,7.25,7.25,0,0,1-2.57-2.59,6.92,6.92,0,0,1-1-3.56V30.57a12,12,0,0,1,.82-4.77,5.24,5.24,0,0,1,3.36-2.72,5.4,5.4,0,0,1-3.29-2.56A10.08,10.08,0,0,1,91.59,16V13.72a6.91,6.91,0,0,1,1-3.55,7.25,7.25,0,0,1,2.57-2.59,6.66,6.66,0,0,1,3.48-1h11.57a4,4,0,0,1,3,1.22,4,4,0,0,1,1.23,2.91,4.16,4.16,0,0,1-1.25,3A4,4,0,0,1,110.17,15H100Z"/><path class="c" d="M136.52,26.54a8.59,8.59,0,0,1,3.1,3.07,8.48,8.48,0,0,1,.93,4.08v2.45a4.05,4.05,0,0,1-1.2,3,4,4,0,0,1-5.8,0,4.09,4.09,0,0,1-1.2-2.93V33.79l-8.21-10V36.14a4.05,4.05,0,0,1-1.2,3A3.94,3.94,0,0,1,120,40.32a4.08,4.08,0,0,1-3-1.23,4,4,0,0,1-1.22-3V10.84A4.17,4.17,0,0,1,120,6.62h9.36a7.19,7.19,0,0,1,5,2.06l4.08,3.94a7.14,7.14,0,0,1,2.26,5.18v1.88A7.15,7.15,0,0,1,136.52,26.54Zm-12.38-3.46h4.25a4,4,0,0,0,4-4h0a4.11,4.11,0,0,0-4.11-4.1h0a4.1,4.1,0,0,0-4.1,4.1Z"/><path class="c" d="M143.58,10.17a7.15,7.15,0,0,1,2.59-2.59,6.88,6.88,0,0,1,3.55-1h11.62a4.1,4.1,0,0,1,2.95,1.25,4,4,0,0,1,1.27,3,4,4,0,0,1-1.27,2.93A4.1,4.1,0,0,1,161.34,15H151v16.9h10.22a4.09,4.09,0,0,1,3,1.22,4,4,0,0,1,1.25,3A3.92,3.92,0,0,1,164.22,39a4.15,4.15,0,0,1-3,1.2H149.72a6.88,6.88,0,0,1-3.55-1,7.15,7.15,0,0,1-2.59-2.59,6.88,6.88,0,0,1-1-3.55V13.72A6.91,6.91,0,0,1,143.58,10.17Z"/><path class="c" d="M168.2,7.8a4.21,4.21,0,0,1,6.05,0,4.38,4.38,0,0,1,1.2,3.14V28a3.86,3.86,0,0,0,3.86,3.87h0A3.87,3.87,0,0,0,183.18,28V10.75a4,4,0,0,1,1.25-2.95,4.05,4.05,0,0,1,3-1.28,4.34,4.34,0,0,1,3.14,1.37,4,4,0,0,1,1.13,2.86V36.19a4.05,4.05,0,0,1-1.24,3,4.2,4.2,0,0,1-3,1.22,4.11,4.11,0,0,1-3-1.22,4,4,0,0,1-1.25-3V34.75c0-.16,0-.24-.1-.24s-.13.08-.19.24a7.42,7.42,0,0,1-7.54,5.57,9.09,9.09,0,0,1-4.25-1,7.53,7.53,0,0,1-3-2.76,7.7,7.7,0,0,1-1.1-4.13V10.84A4.26,4.26,0,0,1,168.2,7.8Z"/><path class="c" d="M214.28,26.54a8.59,8.59,0,0,1,3.1,3.07,8.48,8.48,0,0,1,.93,4.08v2.45a4.05,4.05,0,0,1-1.2,3,4,4,0,0,1-5.8,0,4.1,4.1,0,0,1-1.21-2.93V33.79l-8.2-10V36.14a4.05,4.05,0,0,1-1.2,3,3.94,3.94,0,0,1-2.93,1.23,4.08,4.08,0,0,1-3-1.23,4,4,0,0,1-1.22-3V10.84a4.17,4.17,0,0,1,4.22-4.22h9.36a7.19,7.19,0,0,1,5,2.06l4.08,3.94a7.14,7.14,0,0,1,2.26,5.18v1.88A7.15,7.15,0,0,1,214.28,26.54ZM201.9,23.08h4.24a4,4,0,0,0,4-4h0A4.1,4.1,0,0,0,206,15h0a4.1,4.1,0,0,0-4.1,4.1Z"/><path class="c" d="M228.73,27.84v4h10.18a4,4,0,0,1,3,1.22,4.11,4.11,0,0,1,1.22,3A3.91,3.91,0,0,1,241.86,39a4.47,4.47,0,0,1-3,1.3H227.34a6.66,6.66,0,0,1-3.48-1,7.17,7.17,0,0,1-2.57-2.59,6.92,6.92,0,0,1-1-3.56V30.57a12,12,0,0,1,.81-4.77,5.29,5.29,0,0,1,3.37-2.72,5.37,5.37,0,0,1-3.29-2.56,9.94,9.94,0,0,1-.89-4.54V13.72a6.91,6.91,0,0,1,1-3.55,7.17,7.17,0,0,1,2.57-2.59,6.66,6.66,0,0,1,3.48-1h11.57a4,4,0,0,1,3,1.22,4,4,0,0,1,1.22,2.91,4.12,4.12,0,0,1-1.25,3A4,4,0,0,1,238.91,15H228.73v4.42"/><path class="c" d="M247.33,19.6A15.45,15.45,0,0,1,242,22.17c.73-.3,1.52-.66,2.43-1.13,4.12-2.17,4.51-7.71,4.51-7.71-4.12,4.48-10.22,6.48-17.12,9-3,1.11-3.7-.68-4,.65l-.16,6a49,49,0,0,1,10.88-1.07c3,0,4.92-1,5.86-3.26a12.93,12.93,0,0,1-4.35.87,16,16,0,0,0,3.5-.84A5.84,5.84,0,0,0,247.33,19.6Z"/></svg>