<svg xmlns="http://www.w3.org/2000/svg" viewBox="0 0 600 600"><path fill="#495466" d="M580 44H20a8 8 0 00-8 8v16a8 8 0 008 8h24v287.8a32.05 32.05 0 0032 32.1h208V445l-85.7 86a8 8 0 000 11.3l11.3 11.3a8 8 0 0011.3 0l79-79.2 79 79.2a8 8 0 0011.3 0l11.3-11.3a8 8 0 000-11.3L316 445.14V396h208a32.05 32.05 0 0032-32.1V76.14h24a8 8 0 008-8V52a8 8 0 00-8-8zm-56 320H76V76h448z"/><path fill="#ffa600" d="M148.4 318.14l-14.8-20.2 162.7-119 14.5 42.2 137.6-84.7 13.2 21.2-164.4 101.3-13.5-39.8-135.3 99z"/></svg>