<?xml version="1.0" encoding="utf-8"?>
<!-- Generator: Adobe Illustrator 22.0.1, SVG Export Plug-In . SVG Version: 6.00 Build 0)  -->
<svg version="1.1" id="Calque_1" xmlns="http://www.w3.org/2000/svg" xmlns:xlink="http://www.w3.org/1999/xlink" x="0px" y="0px"
	 width="576px" height="512px" viewBox="0 0 576 512" style="enable-background:new 0 0 576 512;" xml:space="preserve">
<style type="text/css">
	.st0{fill:#495466;}
	.st1{fill:#ffa600;}
</style>
<path class="st0" d="M568,0H8C3.6,0,0,3.6,0,8v16c0,4.4,3.6,8,8,8h24v287.8c0,17.7,14.3,32.1,32,32.1h208v49.1L186.3,487
	c-3.1,3.1-3.1,8.2,0,11.3l11.3,11.3c3.1,3.1,8.2,3.1,11.3,0c0,0,0,0,0,0l79-79.2l79,79.2c3.1,3.1,8.2,3.1,11.3,0c0,0,0,0,0,0
	l11.3-11.3c3.1-3.1,3.1-8.2,0-11.3L304,401.1v-49.1h208c17.7,0,32-14.4,32-32.1V32.1h24c4.4,0,8-3.6,8-8V8C576,3.6,572.4,0,568,0z
	 M512,320H64V32h448V320z"/>
<polygon class="st1" points="136.4,274.1 121.6,253.9 284.3,134.9 298.8,177.1 436.4,92.4 449.6,113.6 285.2,214.9 271.7,175.1 "/>
</svg>
